<mxfile host="app.diagrams.net" agent="Mozilla/5.0 (Windows NT 10.0; Win64; x64) AppleWebKit/537.36 (KHTML, like Gecko) Chrome/138.0.0.0 Safari/537.36 Edg/138.0.0.0" version="28.0.7">
  <diagram id="f106602c-feb2-e66a-4537-3a34d633f6aa" name="Page-1">
    <mxGraphModel dx="1182" dy="722" grid="1" gridSize="10" guides="1" tooltips="1" connect="1" arrows="1" fold="1" page="1" pageScale="1" pageWidth="1169" pageHeight="827" background="none" math="0" shadow="0">
      <root>
        <mxCell id="0" />
        <mxCell id="1" parent="0" />
        <mxCell id="o_3mLYSUMHdXF__UBMAF-769" value="API Services (Docker)" style="sketch=0;points=[[0,0,0],[0.25,0,0],[0.5,0,0],[0.75,0,0],[1,0,0],[1,0.25,0],[1,0.5,0],[1,0.75,0],[1,1,0],[0.75,1,0],[0.5,1,0],[0.25,1,0],[0,1,0],[0,0.75,0],[0,0.5,0],[0,0.25,0]];rounded=1;absoluteArcSize=1;arcSize=2;html=1;strokeColor=none;gradientColor=none;shadow=0;dashed=0;fontSize=12;fontColor=#9E9E9E;align=left;verticalAlign=top;spacing=10;spacingTop=-4;whiteSpace=wrap;fillColor=#F1F8E9;" parent="1" vertex="1">
          <mxGeometry x="340" y="525" width="480" height="215" as="geometry" />
        </mxCell>
        <mxCell id="o_3mLYSUMHdXF__UBMAF-765" value="GitHub Actions" style="sketch=0;points=[[0,0,0],[0.25,0,0],[0.5,0,0],[0.75,0,0],[1,0,0],[1,0.25,0],[1,0.5,0],[1,0.75,0],[1,1,0],[0.75,1,0],[0.5,1,0],[0.25,1,0],[0,1,0],[0,0.75,0],[0,0.5,0],[0,0.25,0]];rounded=1;absoluteArcSize=1;arcSize=2;html=1;strokeColor=none;gradientColor=none;shadow=0;dashed=0;fontSize=12;fontColor=#9E9E9E;align=left;verticalAlign=top;spacing=10;spacingTop=-4;whiteSpace=wrap;fillColor=#F3E5F5;" parent="1" vertex="1">
          <mxGeometry x="340" y="33.13" width="740" height="466.87" as="geometry" />
        </mxCell>
        <mxCell id="o_3mLYSUMHdXF__UBMAF-723" style="edgeStyle=orthogonalEdgeStyle;rounded=0;orthogonalLoop=1;jettySize=auto;html=1;" parent="1" source="o_3mLYSUMHdXF__UBMAF-719" target="o_3mLYSUMHdXF__UBMAF-721" edge="1">
          <mxGeometry relative="1" as="geometry" />
        </mxCell>
        <mxCell id="o_3mLYSUMHdXF__UBMAF-719" value="" style="fillColor=#ffffff;strokeColor=#dddddd;shadow=1;strokeWidth=1;rounded=1;absoluteArcSize=1;arcSize=2;" parent="1" vertex="1">
          <mxGeometry x="60" y="220" width="120" height="60" as="geometry" />
        </mxCell>
        <mxCell id="o_3mLYSUMHdXF__UBMAF-720" value="Data&amp;nbsp;&lt;div&gt;Source&lt;/div&gt;" style="editableCssRules=.*;html=1;fontColor=#999999;shape=image;verticalLabelPosition=middle;verticalAlign=middle;labelPosition=right;align=left;spacingLeft=20;part=1;points=[];imageAspect=0;image=data:image/svg+xml,PHN2ZyB4bWxucz0iaHR0cDovL3d3dy53My5vcmcvMjAwMC9zdmciIHhtbG5zOnY9Imh0dHBzOi8vdmVjdGEuaW8vbmFubyIgd2lkdGg9IjIwIiBoZWlnaHQ9IjE2IiB2aWV3Qm94PSIwIDAgMjAgMTYiPiYjeGE7CTxzdHlsZSB0eXBlPSJ0ZXh0L2NzcyI+JiN4YTsJLnN0MHtmaWxsOiM0Mjg1ZjQ7fSYjeGE7CS5zdDF7ZmlsbDojNjY5ZGY2O30mI3hhOwkuc3Qye2ZpbGw6I2FlY2JmYTt9JiN4YTsJPC9zdHlsZT4mI3hhOwk8cGF0aCBjbGFzcz0ic3QwIiBkPSJNMTIgMTBIOEw2IDhoOHoiLz4mI3hhOwk8cGF0aCBjbGFzcz0ic3QyIiBkPSJNMTYgMkg0bDEtMmgxMHptMyAzSDFsMS0yaDE2eiIvPiYjeGE7CTxwYXRoIGNsYXNzPSJzdDEiIGQ9Ik0xNCA3bC0yIDNIOEw2IDdIMHY5aDIwVjd6Ii8+JiN4YTs8L3N2Zz4=;" parent="o_3mLYSUMHdXF__UBMAF-719" vertex="1">
          <mxGeometry width="30" height="24" relative="1" as="geometry">
            <mxPoint x="15" y="18" as="offset" />
          </mxGeometry>
        </mxCell>
        <mxCell id="o_3mLYSUMHdXF__UBMAF-737" style="edgeStyle=orthogonalEdgeStyle;rounded=0;orthogonalLoop=1;jettySize=auto;html=1;entryX=0.529;entryY=0;entryDx=0;entryDy=0;entryPerimeter=0;" parent="1" source="o_3mLYSUMHdXF__UBMAF-721" target="o_3mLYSUMHdXF__UBMAF-724" edge="1">
          <mxGeometry relative="1" as="geometry">
            <mxPoint x="480" y="40" as="targetPoint" />
            <Array as="points">
              <mxPoint x="265" y="20" />
              <mxPoint x="480" y="20" />
              <mxPoint x="480" y="60" />
            </Array>
          </mxGeometry>
        </mxCell>
        <mxCell id="o_3mLYSUMHdXF__UBMAF-721" value="Ingest" style="fillColor=#ffffff;strokeColor=#dddddd;shadow=1;strokeWidth=1;rounded=1;absoluteArcSize=1;arcSize=2;labelPosition=center;verticalLabelPosition=middle;align=center;verticalAlign=bottom;spacingLeft=0;fontColor=#999999;fontSize=12;whiteSpace=wrap;spacingBottom=2;html=1;" parent="1" vertex="1">
          <mxGeometry x="230" y="207.5" width="70" height="85" as="geometry" />
        </mxCell>
        <mxCell id="o_3mLYSUMHdXF__UBMAF-722" value="" style="sketch=0;dashed=0;connectable=0;html=1;fillColor=#757575;strokeColor=none;shape=mxgraph.gcp2.laptop;part=1;" parent="o_3mLYSUMHdXF__UBMAF-721" vertex="1">
          <mxGeometry x="0.5" width="50" height="33" relative="1" as="geometry">
            <mxPoint x="-25" y="18.5" as="offset" />
          </mxGeometry>
        </mxCell>
        <mxCell id="GmEKnKSyr8c-gKUxN58G-2" style="edgeStyle=orthogonalEdgeStyle;rounded=0;orthogonalLoop=1;jettySize=auto;html=1;" edge="1" parent="1" source="o_3mLYSUMHdXF__UBMAF-724" target="o_3mLYSUMHdXF__UBMAF-726">
          <mxGeometry relative="1" as="geometry" />
        </mxCell>
        <mxCell id="o_3mLYSUMHdXF__UBMAF-724" value="" style="fillColor=#ffffff;strokeColor=#dddddd;shadow=1;strokeWidth=1;rounded=1;absoluteArcSize=1;arcSize=2;" parent="1" vertex="1">
          <mxGeometry x="390" y="60" width="170" height="60" as="geometry" />
        </mxCell>
        <mxCell id="o_3mLYSUMHdXF__UBMAF-725" value="&lt;font color=&quot;#000000&quot;&gt;Data&amp;nbsp;&lt;/font&gt;&lt;div&gt;&lt;font color=&quot;#000000&quot;&gt;Validation&lt;/font&gt;&lt;/div&gt;" style="editableCssRules=.*;html=1;fontColor=#999999;shape=image;verticalLabelPosition=middle;verticalAlign=middle;labelPosition=right;align=left;spacingLeft=20;part=1;points=[];imageAspect=0;image=data:image/svg+xml,PHN2ZyB4bWxucz0iaHR0cDovL3d3dy53My5vcmcvMjAwMC9zdmciIHhtbG5zOnY9Imh0dHBzOi8vdmVjdGEuaW8vbmFubyIgd2lkdGg9IjIwLjAwMTA0NTIyNzA1MDc4IiBoZWlnaHQ9IjIwLjAwMTA0NTIyNzA1MDc4IiBmaWxsLXJ1bGU9ImV2ZW5vZGQiIHZpZXdCb3g9IjAgMCAyMC4wMDEwNDUyMjcwNTA3OCAyMC4wMDEwNDUyMjcwNTA3OCI+JiN4YTsJPHN0eWxlIHR5cGU9InRleHQvY3NzIj4mI3hhOwkuc3Qwe2ZpbGw6I2FlY2JmYTt9JiN4YTsJLnN0MXtmaWxsOiM2NjlkZjY7fSYjeGE7CS5zdDJ7ZmlsbDojNDI4NWY0O30mI3hhOwk8L3N0eWxlPiYjeGE7CTxwYXRoIGNsYXNzPSJzdDAiIGQ9Ik00LjczIDguODN2Mi42M2E0LjkxIDQuOTEgMCAwIDAgMS43MSAxLjc0VjguODN6Ii8+JiN4YTsJPHBhdGggY2xhc3M9InN0MSIgZD0iTTcuODkgNi40MXY3LjUzQTcuNjIgNy42MiAwIDAgMCA5IDE0YTggOCAwIDAgMCAxIDBWNi40MXoiLz4mI3hhOwk8cGF0aCBjbGFzcz0ic3QwIiBkPSJNMTEuNjQgOS44NnYzLjI5YTUgNSAwIDAgMCAxLjctMS44MlY5Ljg2eiIvPiYjeGE7CTxwYXRoIGNsYXNzPSJzdDIiIGQ9Ik0xNS43NCAxNC4zMmwtMS40MiAxLjQyYS40Mi40MiAwIDAgMCAwIC42bDMuNTQgMy41NGEuNDIuNDIgMCAwIDAgLjU5IDBsMS40My0xLjQzYS40Mi40MiAwIDAgMCAwLS41OWwtMy41NC0zLjU0YS40Mi40MiAwIDAgMC0uNiAwIi8+JiN4YTsJPHBhdGggY2xhc3M9InN0MSIgZD0iTTkgMGE5IDkgMCAxIDAgMCAxOEE5IDkgMCAxIDAgOSAwbTAgMTUuNjlhNi42OCA2LjY4IDAgMCAxIC4wMDctMTMuMzYgNi42OCA2LjY4IDAgMCAxIDQuNzI3IDExLjQwM0E2LjY4IDYuNjggMCAwIDEgOSAxNS42OSIvPiYjeGE7PC9zdmc+;" parent="o_3mLYSUMHdXF__UBMAF-724" vertex="1">
          <mxGeometry width="30" height="30" relative="1" as="geometry">
            <mxPoint x="15" y="15" as="offset" />
          </mxGeometry>
        </mxCell>
        <mxCell id="GmEKnKSyr8c-gKUxN58G-1" value="" style="shape=image;verticalLabelPosition=bottom;labelBackgroundColor=default;verticalAlign=top;aspect=fixed;imageAspect=0;image=data:image/png,iVBORw0KGgoAAAANSUhEUgAAAMgAAADICAYAAACtWK6eAAA02UlEQVR4nOy9C3wbV5n3/zszGl0sW77EcuJEip17IoXc09qU1qKwZIFuuy9bhe2+3Ba3QDfdhaS0u/D572t5990b/EkKbMNCyUJpWSATWugN0pYit2ntXpI2baQ0zc2JFNuJHd8lWxrNnPczY9lN08SJxjO62PPlEzd8nJk5M+f8znMuz/McBgYGBpfFEIiBwSQYAjEwmARDIAYGk2AIxMBgEgyBGBhMgiEQA4NJMARiYDAJhkAMDCbBEIiBwSQYAjEwmARTrgsw3WnyALCDgAHBCVA4QSGAoAoEHIBeUKQAVAGgoMpFBATnAJhBYAcm/l05KKIgKFOupegCbW7P9RtOb0iuCzAd8DuVroaEUqBeB4iHAbwurgoS5mPUNA/FZB4ImQ2KSv8CxgnKloNBsSIdwAbAAqp0VqwiEwIJgAAgASAOihgoHQIjnudP0PMg6AalXbSPRokjdQYEp1s7hP5oAojEQN1mkMgQaNtgrr9M4WMIRCVNtSBys0UNmGDUxPmq2Wt81dz1vnmm6wCsl8WgDGDFiWGslP7eZArfnU78oWDAKD/p2J3paYC8xh9P7gv1ic+Hh1Mhj00UlTKeB5r709bJICMMgVwl/iXKwAd1HDG7K00rwZo3esrY9d5yshbACjDECkkRgzRFEahFSg/O5J8UlA4ACLWekw5Eh6T9EJMvh84I74RNypCO8McNwVwNhkAmoUke65cCwSTgm2P9UGC99XMAbgGDCogT3y7fFzrGhMMogjgd6hV/xZ8QfhbuHT3sSQLhAVA+nusi5i+GQC7CXz02OXY5WGd9GffRuhrTJreVvREgc5UBzdgQp1C/G03PceTyvx2KJf8QPifuDR0V/hA2SaPoA/g+w7JcSKFWtOY0/TkIzgBIWVcH1lv+HoTcAgmW9K/z3UqoRUq3gHioT3yAP5H6/2EZ6cQCoPkXhlAw0wXiLwfBPFD/PG4+RPNmf61pM0DWgiqrSTPt28hiESPD0h/besTdkeHR37aKYk80DLTFcl203DHTGoFCQy3gY0BgMc32e23/6i1jP5/uL6erpcgUCQyGgh3C94LRke04Jw3wKdBwd66LlX1mlED8S0FcxQxTV8b56mdbGt125lOgyjacIYxLI1uVnlCftDs8mPgxfyrxprK/0pnrYmWPGSGQBgC+m0AQtSwJrC96AIR+yLAYGSGNLR2TXwVeH/o6lqW6+F+AhnNdqiwwrQXicQLKzvYsbm3j4qJt7iLy6fSOtYE6KAj6Qv30wV0nhr8f6RXb23pBo9N4x37aCsTvBDxuzuJfYP2ut4K9Q9kNMCyGVshzlHjwjPBPwbdH7wtKYqqlfXquerG5LoDW1C0CGpeynG+O5c4tK217qqxMQ3r/Ytp2BjlAHnCZax3sRxZVcZ+stqPHXUrfGRygtFvIddG0ZVo1GsU/qoJbHlhvfwQUS9PCMNAbAjHUJz7Bnxz5TDiSGuan0WrXtLAg/nKQTU5Stm5J0Te2eGw/AsVcYziVVZgqK7PUN9d8BywYoGdTBxwmIJrKdbGmTsFbEH8NiCdpcgduKn4KElYYwsgxBCKAfYHo4K3Bg9L5ls7CnpsUrAVx2YGt14F8ZkHRts+utfGQ4JoOgp8GyB1Uja/U8hdFNnS4S1KH27pyXST1FKRAGmpBPrWUqQgsLd3rtjONoMSS6zIZvAe5o6rwlpr+wmXjZjlnJ/d2nwMKcQJfcALZugzkf9VaPrRlRREPkWwEiGE18hd5brLRx3I3JKz01fpSqaelwCbwBdW4mlaA8dZY/7ffZf2psmVVYOWfwUhg0BN4YfgjYSEVKqRgrYJoYB4n0FhJijetKA54K9i7QGEMqQoPWSQJPjKyPrA/cbhQHB/z3u1CFocTwKaVxQ97HeyfFfjehpQOWmKVrbbxP5MxlsKBXHA9KdCVOhLsEO7hjybeLhRxIN8F4nGANC4y1Wzz2H4GwlxXQA2Dpps0BeggCGmHSE7zp5KnAdoFSrphkrrRlRrALMTAYARAMi0ApOeGFkiwYQR22M3lAHWCEKfLylTXz2ZqwZD5kGjNRbHw+fp9pNazyXvuPxzfuedE4QyvkM9DLFkc/lpTWWBjcRuAxXlc+ZgIZWWVDCMDIGjhjyWeDvXT53FeOAqnKKIfFIMAvErkIpX/f/NV9KQeAP5aAA4QVIDgACQsA1Fya3VxJlSza3zVTINvnnkTJHwIDLi0zPJljkaDXcLf7jwc28kXmDiQJx/wfXjKgcal3JptK+2/ATA/T8s5lnKHIhrqE18I90n7ICVfjpyj4bZ4KomUIhgS6dMvP5WSj8sBQgdBiQ3EP8tShFKsAcvW11WxH3Lb2esBlOXQtV9q7U7es/1gfMeeU4UnDuRjw5PF4V9gqg6sK34VFPNyXZ5LoISmguLXgQOjO0GSL8EhSRgGml/LfSOQ52z+ajBKFsYelvVWWf/Mv5i7C8AN6aFYtoQyZjkOxXbyBSoO5JtAlDnHcm7NtlX2x/NMHLIoRiGKz/JR4VFYUk/wJ1Ln5V+0hkGjuS7dZZCHZ16P8lfiX8gtwAh3i7/G9OdgmOsnkpzqw5jlOBC/b090Yl5VkOSNQJQ5R42pLHBt8eugeTOsUpYmQcmDgVeG/w2DQiRsBvh3CrNHbKpP5/x1WLyB9bZ/A4NPKJ5T2loVGjwr3LXzjdh/8QUuDuRJIxzb56gxLdi2xv57ULIk5+VSll7pKf6k8JNIX+LBtpPi6QgL2taT01Jphr8GBD2gfh+3ysWab6+v4j4HihINhCK1nk1+fftb8fsKdc5xMTkXyPg+R/B/lbwAkf1gjler0pFyqf8InohvhyiNNB+dHhV9OZqWgsDKlviXFO3wVrBfmELkJQ12CnftDMV+UMhzjovJuUC+8wFSvGl58c+9DvamHIqDgmAw1Cf+ZNeJ+HcjneKptj7QaCJHpckyniLAWwnimcOtaVxku9dtZz49sZNzdUw7yzFOTgXSVA/GP7fk294y9ms5EweBCEIPBvbH/hLLUsdmSraOSzGR/eWM9drABuvPIaH2KuplWlqOcXLmzbt1GbC2zPq5D8/j/gkgXA6KIMlTVv7k6Nf5/ck7955Nnf/5q0ABeUFozikALe8AVabUmUhR6qFoD5LeCna1kq340p2p1Nqd/Pr33ojfvycy/cSBXFmQhlqQLTWWG/xLbM/lyLdKDA2Iz/AnRvzTLYZaS5QY/3LOE9hQ9CQk4r7ImtBgl3DXzoPTY7XqcmTdgrhswKdqmIotq5V4jtnZfTqlIOQ8f2r0Hx57a+Tex05LIy0D2S1BIdHSDyT6pO5oSnjAwhGLu4itSye3p/Kc43uH4v85XS3HOFkXyNY6MIGVjqchMuvTafizg1yNJtLJvzJ8Y8iS/N2/H0SqECPcsk1UBFo6qeCyCH+AjQZri7lbgp3CPd+XxTEN5xwXk1Vv3ltdIJscRXeDkLqsDu8IlSIxumfX0eG/2dshnW87mLUnvw8XgPpFY6VSfnannRjlLzLus+WUu+/0f8sUx0RgBJQ/m7tyN78JKZRKPH8gkvK2dotnZ4I4kM1G6i8HPFZTbeCTxYdAlcMrswOBFOxKfXvnW8PfyMUqi5LhcTEYVILiGAhMoDBbStMrRPMBVAU2mGdBYksAagOIBIrR0GCyjz8u9QHoBOhppMRTIKkRxWM4qmT9IsEXQVuy/UIzjKwJ5DvrSPm29Y4XIZIVWXsqQbK1M7l1+6H4D5R9jSzkkK2rBFxVgDyjrZ/LVaOPrEW5aXXdLGaF22FaAopa5TBo5t2IkUsuVJCJ06DG/00KBF0APRnqF46E+xAOdQlveBnpIJ8QB+R/H+oFCikYqRDISlNt+jyIf7Don70V5m9kbb+DQSzYIXxy56HY89mwHE3XyXKUh0xctc9jvc03j7kNIOsUh3g6cWzb1N997E7v7ndTJMHgRf6Y8FDocIIPd6bivAbvYzCG7gKpswCbvJw3sM7+IihK9X6e0oIYDGx/Pf7p1rjw9J6wfuLw14C4kqD1yzgPWPPN/lruJhBsUPYNxkSRrSVsCYRSgBzf/tqA9+436DTIaZgf6D5J37ScMQfW238DUYmJ0x+GDPgeH76+ypQ6tCeqjzgaakF8JfLXs64LbLD+K4CPTnjFvvvEbO4xMQChwQ5hR1vcEIeW6CqQW53Apvnmr4BiQVaWdBka274/vtlpSr3F6xCk4XeBuCqItW6V5ZZ60fwlt53xTYS35tyrDZ3BgZGftUZyXYzphW4C8TgAr8tkq59t/Ub6UEx9ITQZjIqfaDsrvLDnjPa3b7pWnmNYrwlssO4CxYqJnCT5gRTqp4/ihDQSHcl1UaYXugnEawH8i2z/CYoqvZ4xAYHU2pn82v3hEVkcmg6r/BtB/HHOU7fQ+n/cdnYzpDw8J50Bwn0ju/nYzNibyCa6CKRBbliruGu85ezn03HQ+jG2z/Gt4KGR/9Jy80qJ7f4oiH+06G5vpfk/JjJa5Zs4xtL9hEOjyefD0/gotFyhi0B8N4HUFVu3XZDwTC9oZFjcc/9bw99s69NOHLcC2LzYus5fzH0bRaxPd5FPBQKy+5jQFD6X64JMTzQXiH8pgDM2j3s9e6vOnrryzKZz19HYnVq7PXg9IJ553O2QmIY8z8clczz8duxRfgYdzZxNNK98VzExBdZZHsjCxLwn8Frso3vPSr1a37g5DLrr8PA9oX7xJxMDq/xEaj2X2q3svBjogqYWpKEWqC+zfAQE1+rarAhEPjLaBIfwdtsBfR6xI0RjDjr8FSwvpt5yU2NeWhIWiMYTv2p+Nq9FXNBoWum+2SB1s7nbda4uKdQv7o0cT+xqDur7pOYwxF2h2NZQf+q/89KSSAi2RoQ3c12M6YxmFsRfDkAomue2szfrPPc4xx8f2cx30KSOz5hgxxEac7DDX8GKEuotY/PHkhBIgf0j/xjtnXBnNNAB7SrbDPgXsP8OquPuPIHEnxz9RxxJxcNx3Z7yPhRLcmh4a2hA3JU3jZHS1xFLtPLdeVKeaYp2FmQFt9Bbwd6m45KoBGB/qGh0V3M8+41izJIM3YkVJci5JaGQ+FPCblhzVoIZgyaVrCQfY7nNuobuEwwGDsRu27svdz3mhCXpz7ElYZFCIsU3v2lYD73RxoIUgfgXmDfrOPcQQ33YhWXCCb1Wra6WPLAkFJT+ho8k27P83BnJlPcq/MsAJ2fZ6JvLfVO3xsIg9vDBoS988w+0X5f7Z0hLN6hFEp5zObiqKiuzLsvx9Un/s/HbyKjUHY5l7akzlqk36FGQwEbb3+tmPQik4BnhX9u6xNNTuY1fHgp6tGvIsiXhDw/dGeoXf3zB0WnZ4EVvtfB2LhM4zCSm3Kj9FewcAJ/QrRelOBU8OfLd1mH1423F8fAaywa/p+T7W73EplXRpri6daH7owTmoj9kQnTSBfcW+f7kr2D4XWWNKc1Bmj4PgtO2j0FSUlPqgcS3J3ehWBqdSpyDfzGI32v+NihzfePyYtZBh+6SG7cWBbzqOQkdzwOcPjuQ4ASAV0M90lt8e6IdID0AjaWjA4sBWhVYXbQYHF0NYCOA2UoCoJPir5sL6JzxQmdqk/RXgbo1zCbNSnMxDEYj5xI/a35LfYPwrwf8c0rvBSU3yHf0lrFflhvzoDh8944jVJPdFFlsg+Lw1saVxbJIbr/ImtK0JA7wJ4Vn0C+8gHK6v/WYcC4qzwATys4RUWpi3GbIf+8D3ZxIyL8nHgHwLudqIWH+9qPCeS3KbHB1qBaIcrKXHcRdxHxYp/kHhWTa1dYlqg4ibZDLmeBWemeRf72gjMRbxn5JbswOVldLks46Iv4m8JrQBPtoSBZA+Cgo//64jUt3AN0X/O60cLIJONmmRWENrhrVAtlUCSBl+bBi+vWAIBZoHfiPyBRsnO86kMb51qZLNL8xS7JcB0tCh7/W6CnGoEDFaDxxPx8RDmEUhH9j6sOiZi0KaZARqptftBRk9wbrF3Rav6GhfvGZ4Bmho03lwq7fBYK4pd5tZ//iMrHjxFvOfqnRq7ElOUzjjtTQl1EGNL86IQpjzlCgqBZIHcNaAaLP6hUBDfcIjzirAKgUiKuaWANrbD++goAZb7kOlmSaH9s2k1A1d5DH9u5rmVUgOiWCIxBQKz65R+Vpsg21IPWi+VOgWHYVAh63JN9p8uTuQCGD/ESVBZHH9ujkrkGtLnsfFFTczT8r9Km9wd+wQN0yyx0ZLB7oYkkMCh91q08c4Clj1+uSF4qABvYn7wer7t7+OSBhh2Wj287ckOmTFUuy0rAkBu+ibg7SC3gXs2t1SpzWjiLxtdbX1Q2vXMWAcki+urKN75OQQXF4m2FJDDK2IH6H/NNUBIrlOpRHCvWlXgCXktRmDq2v5bxg4JtCGYi3jL3DsCQGUGVBXABYth4MTHos8Yb7UvtwUt21SlyKxN2iwYKtYUkMFDKfg3QDgTXFDbpEDsr9tSS+3Kw2z5UV8C80f1Ijt3vDkhiosCAVIODED0JU7Ie2IpFwPtKdelvNpf5KIDTEzQOwXsMSvWtJ6PC2HYcNSzLTyLiBe0SGgYS1OvhfyTbpubZhledbVAFbPObPgGruWTxmSTzF25s25l1eXgOdybiRexey1QBKNW8qBNh9NPmMq1rl6lUCxFfN/aVewUuDApVgRPDNODIfYnGYr5yMob0zBQn3i8+rzfNU7+bmgeADungWM0C0O/GfzToe52aQn2QkkFvrACRZFyQdJq0UvTgnnGhVcb7HrQ7ZbjB67ctIEMVH+IgQ1uHeBnlORr2tl4CBxMwFtPF8vagkJ7FEomr2P7xeMOBMq0F1GF4RkMAbySa1O/sGhU1mwxFB7qOJ9vEfss0QxVOIqGzg5yDVVZo8OmVVeQ22xOFsHCVtkH9kNMTyvQbq/Evq1NzFnUDk26UI3CBQE29dBcZdQhbrMMSS+JPJZ5CVLMBXpskJgnJliURx91Ei3PMRJyj/KqiaMancy/nl93RqX6xgN2hLd2bXZCSQYB1IoIhzKhNhzauGdqIn8wm6S/7hUK6p0bpEcmkiw+I+/kjurIf8fnVLQepns2WDw9yN3llMnb+GWwpCHGmLmW8ikb9V/+CZ/lvCHZlf7J0HEvhE2UOg9EYQot27UeV/P9r8RH8gk5RJma1iyTMPQvSIAWFB0QObitWrRQC6rbPgopV6tBW3U9wfflnz2141jdeC8VXav+Sby/0zKGalKzo/MsxfHrHey5Xs6BCGMr5SrkKR9oEQlQv+l0UeXyyCNbNOODOBSJCn6SWaT4UJpEgsdQ7tKj4JAQGltWCI1jsg8tsebT2UytAoa0NdBbBpIeNqXFj83247+cgFrj35cCb75LBKKeW5auYCGQQN9Qrt3lmaZ5KSu5XKTNdf1bi7F6u4ZnIYwF1CBzeraYqKpIj2w6uxvuy1aA4GVw0NQFUHMz+w3rEfKVQUgMV4PxIqARzL+DonwJ+SznorlQO3tX7v8kxbfOarWIBmmQkvQL6vun3qblBPOap0+JgkdF54Exqenns1uGyAr5+xfmdD8S+RohV5c2BPJkggkQRKmtRcq9hHeYilfbEAlGRq0zL7+BVKU9Yni6IEdbkTXcDmBdZKzZsxA4k/mWpHUXYHNI1WwOcq+hd3EXMtQApPHGMQN8uV4PMqrhwbJutz4jtFkWdpZi0lswoYOxNQrxOk1C2mCsrPEo3Lkob0KJ1ClvAA8DZwy3zV7F0FaTnGocpctQinVHcuU0g0e1nkspgdLZldlFElpBOX6REbQWBSuTs/okzS9Rj2QfWwTyX+NWAwxG0GJfodY5ctKDhV1429uTqP7qu4e6aZKTMSiGfsP/qMyae2yafX8QPZ7cX7QP215usL2nq8i7p2ou9BEhmXKaOK8I/9R49XoBBVWiZlk5AZ1bxEY2i/YjcZPqVGPFl9pl4QIqi6bqx1qbM+Vyblz/CCzHqqOqWXV/fiV4KFRdV18nSOTanOoXVZlL6GVqEjO6tYfheAA5wJkuJMUtgQSCBibApBEUUalwjpGk20ZhhvmplARhWBJDJ7xFUiqFw+TgCB14QeJUZFSyiYwFpusW592cU45H6TYafF8IoAoSFxCBlOiBXG5iD6ZOwE4tEzmQ3lM6uMsR1S7eOyKUhkFHZVY4sSZd38rOYCkY09a1oNe3aWeSNhAGcTCRAVu8/5BgH1lmBAVTb6AbkeSYUudptgMNNBs5realjFNZNDAXcRU+avVXGt0uOQU5qXCUq5NnqylM9EWV1xKGI8kZ0n6owJPaquk4DAOnaOTt4DvZnOoDMrhKSEJOkhEAKwVekGkhlyj8OI7ZCo1kFcDAjmepea5mt838uzGLT1XKo1y4eCao+IFIYkdceMKgNt0wKti5SeGfVkuoCcmUDkkSGlejhfSGDgBJe5QEJyNRwXhkCI9k6FFCTUxW5s0CE24VIEHweNDqd+W+CzELku2/l+Ud1mnxUELKnVoZMgSNEOjOi4k+45ANraJ3RfcAKrVhCXFdWZFl5GCcpZrPxVZT7GSaCgm9xcg29RduYh8py29XTyBRDxD3JPlI1n6oD8rV6HoPKbjbnzL9GhVNLujsTJTMc/GQkk7AUTHVJ6as1XjOpnm2pgV3l9D2ioVzqiQ68jl+tPsumNtXdAEgOvxW8DIerG8LmGAMEz0j70q2sj/hpTCSS4NV/NI0C4G6exQM9VLPmlKT2rQ8gtwDA1qu9bqaQM0ifriIRlHpvF56/U5e7vI9wNhI6J5/m3E18EoSMFaElosDP5vGofNoa4dUmQMeapcVxXCxKsAoVJOXVW+xeQsAARllGz1Bt8DRTJ5Bs6jd2lzYut/4IqXe59SfYMAnzvyJOBNxI+MKS/wCbtPTCNHgodyfzCpgYg1M0sVELVtIZiBFbhtK5zkBZ5kGySzoDRJb1OEapNH/AuzPzjKPtRSekNUF2c3BhI5Fp/hbnBo8f+7mXgw6ChvtFXtr8Ruz40IO4GUTxcqS4p+zRFfB3n0nPDTBkA8VawK3R5QwYdGBFTfIZLOZn3uQmc1mmNmvjmcA0et7rPw58Xe8Eo2wnai5eCeOZY7vJ7sxsbsuc4sOuIEOIPDv1V4GBsFVh6P1h6RtkUZZX0fer+6IfIt0utmY7zJygDPKWsPr5oFBE1XhEZu1W3nk71+BegExTVmg61JFCf2/Sxnc/iu6oWAUygu48mH9q8yHy9HmlRvWXszfwJ6w3+ytEWPovT5/Ag0DwIWlcmHAsXDfxt3RnyNXetqRIWOCY6uPE0BBemIxivGXrR3yUwniLrV71l7Jd0mEsSEGEfH1IpwrGTy1bpkRi99WzqGFRsBGQskKg8aSTYD+CTmn5gAgYifH47a+EhZu6d2wnsHEj+cvNC8/fHTgrRGAousMG6O2BKLkWPNKD5/a9AWz/Q1gLwoCKOCWcBqNuIk8f6HmELVpTQtEi0bIzx0JHUi2EVDdEjy50qJ5d5NSzPODQ6Qo+hGiTTxCCZf5w4aKg7uU9p0FrDwIJKZrUaG8sPAj5LKhaJS0HNyzUGgYjKTbOLmpvW5n1ekUlpDkPcdWj47lC/+ICGS/Y01Cc+GI5LqkIPvCbA42Q3gejgHqq0VXokdCxzy5Z5I3eA8O3i8zpsFo7NHhjug/5VKhvgXKDtbOopPQOo6qtMX/XNtX/cX1PYItlxhMb5w0NbQv3iDzX5XoRK/AnhPtXLuyUgmxdZP61LAnIGEizC4T0qLFvGAomcBIWQegNUl3BUUudkr1P7kZtbQRFP/BaMTjEraXxzuV/Wzeauu7XAIzc0tSQsfQmDo8f5d9RdXudiikHJn+oiEAn9kSOiKk+LjAXSNiLPXMQkVK7kXQHiLmZvQMKsaj9Ehu8VTwP4tW6hwVA+eMm2VfZfel2mOR41DpZ5hEaWROKPirzavaIGAO5iyzUgKNZpi/D5NkFStQWgbh5hV7xOD+g0lKn0WMnHvSodBCPngMArwwEQ6BWGOwbFvMC19lcal3Nrmxbp+iTdmbAkfeKPVHUsDGKR4dE9igVXgc8D4rKQj+rSmgiw+3jyCVeVurKpEwgHRIel/aquvRIUdPMS611wqutL2voB30DqWKhP/J2uVkSGEve21fangjHTsmkxJ3l76K5QX8aWRAp2pL7XdlLsVP1wM0j9bG6TTtGUYrgv9buoygmBqgLxQVCUCC+D0WnPk5Ib/R5OdRzGlhhouCvxQx2iDN+PhNnBPyt+desHir7kXwS41Dpc5gGKJQllaEkYdAbfiX+rVWUgtn+93MtbV4KSD6i7wxU5AlOyi1c5IVAlEPlZoQPS4fRavB7RISx6uZub6tX1yuFugDclnwahL2XFj0lCSf0c887dN5b+unEFU9pUXbjWJENLIvEnkrvwQWkoqjYX4hAQWG+9V/EN0B4p1Cu2Yq76G6gu1DobpS4n566yMnU6OC8Sh4XYHn4t8WBYZQS8YwiIJqWXfHPMXwBUZkzJDAJKlvnmWG4NDmN4nUs84rbJ5l3fh/qXgPhXMGXrbGDazmuzetfSDWqRhD+6SrjKKhuz/rL1y6Bvb3u88Zu/o6rj6BvnsPPq51t+oDrR3OTQh48nv5+IpA62nFd3A9UCcVeCdI+Ss7653Jf18O4tNZP54WH8qsqR6gmreLnoCOCrkXqdnGlulZXZkKWDZuRnzPLNNd20qdr6qdB5GvZViKd81WBazmpraZtqQHx/DuJD0ee3LCt6yuXg5jtJ8im5cWtxf1lsTpL8vbOYm11lY9a97/sR0OAZ4SuPdiVeVFM/yjvUgywus/21t4zV1itjHAY02pv4+l2vS6q7KdUCGRwA1tWK53xV1r+SG4Xa+0yGby6Zx7+S/FVY5fi2OwoMmsXQJpfl86C65Fq6HPLszOmby33ON9/8p91Jk8O/DD2gUp+XBbzVIIN9V5+h2SN/i0UgXhHYtIJht602rV0313rnZx32//KWs38tv1uVlVnnLOHmWiThOW0tSeqPLgdXWWUlF1oSGolLz/7fV4bvbWtXl2naJY9CYsCWD9q+CxC3FuW9CMUlateB+LfbpuAYpDoHrHIabRdoyC0953Uwi3RYgSBg2Fv815hW8s+mDqm5gTxX8haLp4Md0hd91cyjWT5ngyhVRJk6fy1zDRjuW/75OMAfTf481Cc97vnQaLvcssKdkDxlIJj33h40/DaoxwqKSsUBB4hbV/uWsbf45pn+CoQsVM4nfO/7EG8Z29i4shgOduhOecKtxUvsOCLFHezgXVhRggnfLQLa1il8s5uDqlOJMXYyGIHD0gDCbNQpxQ+CHeID0QWgOK3+NlNKkhyqAfX2pvZ6S8136PKSEuAqst7etHR4a/M7Kt3gXwQ8vsHHFw2V/o+7mPxVjhKzjUfQrPcvMm/wA/cB1g4AxyPDUrStJ3UOIEMATYxVLbF6vdThrzHPAYP5AF0MkHJFcNJ7/HPf9xxvGXs7PCUYFIe37jhCNfF2kMU2KA7f3bjSrogk1Cv8Ax8bea2lXf09XYRwgfW2+3TstAaD5xK7I1P8AlMSyJ4WYPOK0WewwDyqU7pIpt5p+sLeo6Z/9DhSQ2GVKyXNQVDvgqGvu//EcRNEJTdLrlaZLlwYnyv/cdsZ6rab6SUc08mEFXpvca9UduItZRsbP6C1JaFxh2N4C2jJH/nWOM+r3/VAgxOon2P+OAC9lnYpRPGPOJocbOuf2o2mvrTmoElPGSdPhDfq1PDMTgfrDHcknwhPoTeImGjMwWGft8J0qy7u8Ooh41H5l/m7qnsqcxIHN9ciajgn6QDt7kyGgj1QE1oxwReWgdy8yP79Uo7o5YNA+WjyO8Hh1OvhKQYmTN28mQD+RPLbijO4PjDecrbRX2OaUm/T1gNUSaMv8cdSTSCaJ5nLR8YsycriHU0e7fYY+P6pOeE1KafsWz7itjM3alWm9yG3RZJ6bM+pqQ/8p/zhwucBn1UcXDTbfEMpRxZO9X6XhII6irlSR23i0RaV3qIyD7YDLodwwFVkmldlZdbk4RnjWqOLJZkKNy/kyr5xTdEToLqd3SWFBsSf7Wwb/YXaPbQL0aRn8X0cJHmWtXnL2U/o1OhIqYWsDL5Dn6xixU61cxGZtrOQ/FzyyVgJt7rKQpYBGh5Wn5/IIlnrcnBVWu6TqKFpCcjiedavekvZv9CtcyIQd4YTt3azYr/a/ZkL0UQgLYeAullStH6u5Sug+u1a++ZxN0ZsiZ89fWxqnrqvSqDh88Kz/gruWljJ/Bkikpxakjo7sHguM2eLp+gn6cMedCESl55+vSu+c+dhbe6n2di0VKAxp8NUWlvMfFAvKwKKsmgPk/D0Cc+3TEEi3XElO8tId1HyIV+l+SMgxD1DRJIzS9LIAYGPlT4GipU6Wg9px6FEIDiQOnRqiqtX42gmEAcBTBa87pvLNeq05Atl4lnOrg7GxMeq+qWe8BSm2t0C0J0ATfQLTzlKuDVVVrJghohknbPENE/LHfcr0eQAvBtsf+2tMP2drvtQDDoOnBr9ux+9I2l2yJNmAokKgK9WHHWauQVyJeg4Abb63OabQiT5QMsZOqUKli1JNIFYsC/50MZK85oqC7Nshkzc17gcpqxYEk854J3Plm5ZVfQbUL2O657wDbv70Z5EmxZzj3E0dTHuTgDectLlLePu0LGhyUMth4UQs6tceK4lOrUKlsts5wBHXHjSUWyypx3zsnRsTs7ImiX5zDXE/m8b7L+FqERR69j50Hd+2h7/8mPtVBrU8JBAbQUSV+LVO/011g8AWKGnSNx2ti4Ypc9VWcTTU90Mksv9dDeSzuLkM91xetpbwd08/hwtCpunvGtJUsknW3q1tyRNt4CsE4ru9Tq4L+js4iPxJ4V/7xaTLz1+XNsba95TOsxAdEhq883lvqjzjjXxzeP+PHJe+OnTZ7XxOWrpAHWZxTcHRDzjsDBrSjnMmebzElJlI2ud5dYj3V2JQ2F1R95ckrpKkJurLB/dXGv9nu6eCwzO7e2Mf/mbrVTz8zM1V3VbJ4DlyWioT3xI72i+4BnhnrazoqYnS+04ArrzrdGX2tqGG2ASf6ZL/q/8gIKBFOoX7uX3Dfwq1KvdjRtqgU1zTYs2z7c9ruu8A+m5R0T4eluPqEtCWF3G2t2HAMdC8Z16h+V2UJh1eITU2pX86vfejD+wR4dzzE/FgVaJCm39yccgSq97y02rQEjltBlyEUiRuPTs3vb4p3/Qk3h05xFQrXoZlw34/+YxZTevtD9SaoLue0yRuNT2aOfw1x57U11cypXQRyAASpO032kz0doS5sMaNywa7BTu+L4sjqh+vbs80VNyzPaJ74TCiR8455hIVRFzw0Vet4WGBAa9wQ7hS4++MvwP/FtS51Md2j5gq5exbtlYEiw1MRt1H54SiE93jW7lT4tvv6XRvsfF6LZaM5gEKkZSr/iWcDdDInM0uu27lkNHcVxIeBToHgXCQrIFo+IvBinDuYuVFRlTAQlFAsEZvl24b297vPGRzkTb4+2gb2n4ANlybN0A0rik5MelHLMpC9+Gwiw+u+vlkaZftuvXFvQTSApAGZXsCXLe6zR9SoP5jpQNy3EpZEMS7gX409J515zkU8G21A+dVeycKhuzSjnQhuSpUKiSH2Yo2CF866cHYv+7uzj5zDdfokPh89oPRzbNAfEvKN61ehbzOYDoH5TGYDDQGvc9dk4a7tYxRaCu6/2n+gEXEd9xVXAbqqzM4in0Klm3HJej5RTQbZNGwueSvwEj/nywn/S4K9hKEIzngsy1WCRlYSEuPc93pL6zNxK/85H2xJOP99DE4yqORbsSLgvwsWpg87Ki+z7pNn0JNAviGEs39C/BzsTTLV36Pkj3yvQUAf5lrCOwvuQYKNQkFKXBLuH2nQdjP+VzLI5L0bRUOTyOgFg3BtZbtwG4SVnWHFs6yEZjoekVKflnLNQn/oQ/kboP0ZF2LE4n9NaRphUgvoXFu3zVps9nKeZffko08Obg8uaXJc2XdS8mK73drU5g24esX6mfZb0/w4+oWI7tB+M7c205roR/I4BzIHV2ttw1j7vOXcxcVz/LXA/QVSDEMZbAYaKxqm1IUvocJ4wJg3aDpfv5Y6mXwYjPh46kWsOzxARiILzKGP6rRZ5zNC5lrY0e+w/ddvKZLFkO+e0Hdx+LNew4ILzRpsey1fselyWaGoDAktIXQMl1V/lcKdgl3JGvlmMyGmoBn/yODhCMMibYuTX+GvYGr9P8QQCrIWE+2HSfT8ezn7wv75Q0EZU+FiOXAIOTAD0QPDW6L9iDF9CbOKz8dgEIH4Kk5mQnte+3pZQp828s+QMoWZO1RBgUUiie/BfeEm9qfjA73shZE0idHdg0i3EGPlbyMihZcIV/rrnlkHs8BwG0iDLLhDob4F4AgvOgKAVxUaC+xlSEJKmCDZWRCBzuarYYlLUB1JwWTTIyIsbccSmG2RjACLohSN38kJiACNBOUDIbJHQUVJ/D4Sd5n0qQTbNNixtXFT3sLtItD8GlYegb238/6Ls7QrN2BF5WJ5QNTpAty61+/zLr/0ySi1UXy9G0mimHjZSEB8XTahMZ64FHHp41XDBwGuccaHMelVOmyQfiNVv/xD/f+hioLOYsuuEw6Au8MOzlz6Y69U7neiFTSvuTKS3doOtco3s8fdz13jL2by5hmqXWs8mv3n8w/lMtLUfjUqa00WPn3cXs2tazo9uA0Z+1ngJVmxJfS2QNNCsHvefv+eeecmBTDSn2srZt/vnme8aiRrPat0qtZ0fvDTGprmyKA7lw627rAnUWJ3/vqzA1gGVqL8wFFewUbv/+wfiPtZyQb/UypYFrSl4sNTHXgsLmLjbd7K81LRrsSj2NMprSKvJsuuJ3Ar4aU+m/bbQ/7i3lPpelROAXIsGaeuju1vj/2TOFhB1qyUncQ7cAJFLSq/XVZj8otQGEtnYl/+57b2onDmVn18uUNXrsvx5ze5gQIoHEfGDRbO4T1WZyioymjsGWdtU3mKCuGqiTgM0bbF/c4rH9BhKzIgdZKWkkLu3bsT/2l4+doSkt4zyulpxtajXJg2/WtCpQV9wWPCNs2flm7EGN5xxlgY0l+0DJ5QJ1KBjQUK/4Y/5o8m/CvQmJn2Lw1XShyQMCi3VOYL3llwC5TqezO66EXD9x/tig9/4/SqdaclAA5DJyrqUbcFZK5whE/qeHRp/bo1HjdNmBrcuYssaV9j2lHHPNJJ2AsrRaZWXW+lymz4BhhjxO+lZiiNJoDnqqfOBWJ9C41lS+uNy2dYvH8t/pziUXuYzl2unbfWz04zuOCIdeHM5JCdLFyDEejY/LbVrJlAXqHPtA4c3oQmXfgYYDB+OfBRUO8kdAp5J/q5BokOcZLrktWDcFNlh/CAnunLYNhor86dG/Dh1JPNzcnlurnnOBaEV6taqs0VO8x12kpLVU824SCBKhPvG34Z7ETv5Icl/EBNqmNsd/nuP3gLiSxFznMn+ivtpyl9vO+NIbljlsF1QIDST/ofngyHb+aO5KMc60EYgy57imZB8kkpnluDTjzeSPm5+Nfc1TJxwKvwTwGuR6zQeaVoEJl4B64taPBDZYdihDqZwLQ0EK9aW288eG/775zfzwnsj1B5ky71oO+6/dRaxP4zGzbFFSAIL8sdFfYCj5CN8tDcEK6O3rpDX+RWNv4p/DumC3+P0LzbcBWJcnwlAI9YsP7Do0/NUdR6iG0fFTIy8+zFQYsxyOfZCgb1qZMd+o0VBv6gH+pPAd9CaiqM2uD1SmKD5hRSAwg4CxrA2ss94LQm6GpIRB52byfWmkUL/4IN8+dHvz/vywHOMUrEBcdqBxsTLn+LW7iNHackyGlD7nqY1vF55GMvUc7RJe2XNeSqEciDCgbTkaO/vrAJxU/COIv5ItoXZTvXsW99H62aZNynoInTh3JK8IDYg/3XVk+G93vEVzuF51afLuY10tacvxIiRd829dCWnMJ5cOgjK/DhwY2QPQ5zGaGEVcOTaU8D36WRjFQpjBIAkJNjDgikq8s8jH/Yu5TwP0owApSvfH+WQtLkQK9Ym7+FNDX8k3yzFOwQnkIsuhdUIIddD0rgqjeOLGAIRbzwlvRmP0MAbFI6iQTqCYRPjfJWOYKw/UAAyCeixA2AaCYuB9+eqtAHoBVxw0agFQPObO6CphUe9kSgHU4Dy7ELOY5Z5SxqNkXqFYDgLTRAhV7r/MZAih/tR9uw7FmvJpznEx+f0JL4Gyz1Gfc8txNYz1iCR9MqFIRTAkCoKjEHEKZulUoC3ZBdA+gAwCkBtJKn2FCaB2gDi8TpT7a2zzQGkNGNRCwhJQWg2WUMV+TT0IK/swVAz1CPfwx+PfzZfVqsuRzw3sPbgcQONypqxxkS6rVdlivDGMlX08KGoy3g2oxUREYQHV20VQEPTujo58bc/xxMP5sM9xJbLq7j4V6tcCPrv9GncxW5ce+Rci7y03fc+pt5lfX1hIim/V0ZGbwkcSL0/llNxsUjBZzMOngJiUPEGI+IK3jPuwPPwo4J50piFF4tLzT3cM/cn2w6nQzwtEHCgkgcgowTJ90unQYOpHvhLTB2FhavM2J5XBOBKsqQd3HIjdxr8k9ebS8VANBSUQjGc6HKbCcSI84mKZVFUJsx4gnGFN8hCG9raeS/zt3fvizY+dpKm3CvDw7YJuVGMx0pYP+Wttv4WIskJ/n2mEBII3AqHhT4YHUl35lAMgUwrOglxISzsQ6RMjjjPJ/x4sZme57cza9K8MoeQGWRiD/Mnkt/a+NvyVh09LvS0F7gk9bRqSkuHQbrkxsMH2P5BQWeArPoWIqGQ83B/7M/QKh3Idx6EVBW1BLqTlPOAUxZPR88IvHA7OUmVT3N4LKQN7oSJbjf7Wk8l/3nUs9pm9J8SOn5/NdZG0Y1o2nqZ6EKS4VYE1RTwoWZSlnLEzDSUfZKhP/D1/Jv7ZcK/Yy+cg64jeTBsLciHyuDcxLJ2NSqn/6o7RM94KdjkIKZ+uHUKWUYQRiUsv7Y2O/t3j74z+02OdUrwlkuti6cO0bzD+RcC5OMj915X+vbecNEMEZ+ydqGTsvJGu4Blp285jg7861zeWfGM6MyMaigeAtwrEv8ZU7bJY76yfzd4OkCpj6HVVjOelP8yfFH4UGR19uPWw2NvWBxT4AtVVMSMEciFN14EgznL+hfZ7vBXMNyEpjuWGUN7PeM75SPCM+I/BntgvwEqi3ueN5BszTiAyHifgLQXxlzKl4My3+VdaPguQjcoAwhh+yaJIRWLS061HEg9FE8knWgUab+sCjc6QNEgXMtMbA/xOEE81CEzWNYF1liYQ8qeQlOXhmWRVxp3qhVCv+BO+PfV/ER/pCHYCLf0zy2JczIwXyDh+l7KmR/zLuFqkuJvrZps+4bYzDQDM6aCk6SaY8ViU/lCf+Fz4vPAE7NLj/OFkL/pA+L6ZLYxxDIFcAmUfpQNAqanU7zF/0VtivgPA0nSTKmSxSBeEW7UGe0Z/GDyRfAQdUjxcXnipjLKBIZBJ8BcBsI8pYvMqbgVgvqGuilzntpvqlIPPZJuTv9ZlrLGPHeEmAjQUOi+0hofpPgipF/iQEJF/Ic8r2mZoLuKrwRBIBjT5QBBRREPAWOf75nAf97mZm0BxPRhihzhhYZAD0VwYAw9Qek5JeHc09XioT9wLabQXQ0C4CODDhqW4WgyBqMS/FoRaQMl5EArWtHk+syTUxy7zVrDLPeV0odfBLQJD5kOi1SDENnHG7Xvjyy9m4jChS/zuvXHsY/9iGARnINFIa7dwLBrDscig+La7QnqbPymehihJcIydB8W36fQhpjmGQDSkqRZAGRj0Q4Iz/W17LBxK4QJDFoJifmCDqQbUNBeM4nFcDqBEsUkUHKD8oUp2EwJ54BNTEgQBvRBpD9hUJPCqGAHBKYCeQCftQE2SKimD4kqqIBLuhMRP893tbGIIRGfqHIBbFksSoKOgZOwAMyLPbSCkJdGr5L2isKUvGkzXS1E6EZBVSQpEMR6uWgICFsjFKbcGBgYGE+Tj6ouBQd5gCMTAYBIMgRgYTIIhEAODSTAEYmAwCYZADAwmwRCIgcEkGAIxMJgEQyAGBpNgCMTAYBL+XwAAAP//B0nrhDbvgQkAAAAASUVORK5CYII=;" vertex="1" parent="o_3mLYSUMHdXF__UBMAF-724">
          <mxGeometry x="134.85000000000002" y="20" width="30.71" height="30.71" as="geometry" />
        </mxCell>
        <mxCell id="o_3mLYSUMHdXF__UBMAF-740" style="edgeStyle=orthogonalEdgeStyle;rounded=0;orthogonalLoop=1;jettySize=auto;html=1;entryX=0.5;entryY=0;entryDx=0;entryDy=0;" parent="1" source="o_3mLYSUMHdXF__UBMAF-726" target="o_3mLYSUMHdXF__UBMAF-728" edge="1">
          <mxGeometry relative="1" as="geometry" />
        </mxCell>
        <mxCell id="o_3mLYSUMHdXF__UBMAF-726" value="" style="fillColor=#ffffff;strokeColor=#dddddd;shadow=1;strokeWidth=1;rounded=1;absoluteArcSize=1;arcSize=2;" parent="1" vertex="1">
          <mxGeometry x="390" y="140" width="170" height="60" as="geometry" />
        </mxCell>
        <mxCell id="o_3mLYSUMHdXF__UBMAF-727" value="Joining&amp;nbsp;&lt;div&gt;Tables&lt;/div&gt;" style="editableCssRules=.*;html=1;fontColor=#999999;shape=image;verticalLabelPosition=middle;verticalAlign=middle;labelPosition=right;align=left;spacingLeft=20;part=1;points=[];imageAspect=0;image=data:image/svg+xml,PHN2ZyB4bWxucz0iaHR0cDovL3d3dy53My5vcmcvMjAwMC9zdmciIHhtbG5zOnY9Imh0dHBzOi8vdmVjdGEuaW8vbmFubyIgd2lkdGg9IjI3MS44OTgxMDE4MDY2NDA2IiBoZWlnaHQ9IjQyMy4wMDQwMjgzMjAzMTI1IiB2aWV3Qm94PSIwLjAwMDQ2MTI3MDM2MzMwMjkwMTQgMCAyNzEuODk4MTAxODA2NjQwNiA0MjMuMDA0MDI4MzIwMzEyNSI+JiN4YTsJPHN0eWxlIHR5cGU9InRleHQvY3NzIj4mI3hhOwkuc3Qwe2ZpbGw6IzQyODVmNDtmaWxsLXJ1bGU6ZXZlbm9kZH0mI3hhOwk8L3N0eWxlPiYjeGE7CTxwYXRoIGNsYXNzPSJzdDAiIGQ9Ik0xOTcuMzc4IDE0NC43NzRhMy4xMSAzLjExIDAgMCAxIDMuMTA1IDIuOTM0bC4wMDUuMTc3djE3LjEwN2EzLjExIDMuMTEgMCAwIDEtMi45MzQgMy4xMDVsLS4xNzcuMDA1aC0xMi40NDF2MzAuNjQ5YzAgMS4yMjcuMjk3IDIuNDM1Ljg2MiAzLjUyMmwuMTYxLjI5MyA4My44OTUgMTQ0LjI2MmExNS4yNiAxNS4yNiAwIDAgMSAuMTgyIDE0LjkzNmwtLjE4Mi4zMjQtMzAuNDMxIDUzLjI4NmExNS4yNiAxNS4yNiAwIDAgMS0xMi44NjEgNy42MjZsLS4zNTUuMDA0SDQ1LjY5MmExNS4yNiAxNS4yNiAwIDAgMS0xMy4wMzUtNy4zMjRsLS4xODEtLjMwNS0zMC40MzEtNTMuMjg2YTE1LjI2IDE1LjI2IDAgMCAxLS4xODItMTQuOTM2bC4xODItLjMyNCA4My42NzQtMTQ0LjI2MmMuNjIxLTEuMDc3IDEuMTYtMi4yODkgMS4yMzQtMy41MjhsLjAwOS0uMjg3di0zMC42NDlINzQuNTJjLTEuNjU4IDAtMy4wMTQtMS4yOTktMy4xMDUtMi45MzRsLS4wMDUtLjE3NnYtMTcuMTA3YTMuMTEgMy4xMSAwIDAgMSAyLjkzNC0zLjEwNWwuMTc2LS4wMDV6bS0zNS43NjkgMjMuMzI3aC01MS4zMnYzNS40MDVjMCAyLjUzMS0uNjI4IDUuMDE4LTEuODI2IDcuMjQybC0uMjE3LjM5TDI4LjAzMyAzNTAuOWE3LjYzIDcuNjMgMCAwIDAtLjEzOSA3LjM3NWwuMTQxLjI1NSAyMC43NDEgMzUuOTIxYTcuNjMgNy42MyAwIDAgMCA2LjMyNyAzLjgxbC4yODEuMDA1aDI1LjU3MmwtMjIuNjA1LTM5LjE1M2MtMS4zMTQtMi4yNzYtMS4zNjEtNS4wNjItLjE0MS03LjM3NWwuMTQxLS4yNTUgMTkuNjc5LTM0LjA4NmgxNDYuNjA2TDIxMi45ODggMjk3LjFoLTU0LjI1OWwtOC44MjEtMTUuMjc4aDU0LjMxMmwtMTYuMzMzLTI4LjQ2aC01NC43OGwtOC44MjEtMTUuMjc4aDU0LjgzM2wtMTUuNDY1LTI2Ljk0NmExNS4yNyAxNS4yNyAwIDAgMS0yLjAzOS03LjE4NWwtLjAwNy0uNDQ2em03Mi44NDQgMTY2LjQwMWwtNTQuMTgxLjAwMSA4LjgyMSAxNS41NTJoNTQuMjg1ek0xMDQuOTIxIDc5Ljc5NWM4LjQyNyAwIDE1LjI1OSA2LjgzMyAxNS4yNTkgMTUuMjYxcy02LjgzMiAxNS4yNTktMTUuMjU5IDE1LjI1OS0xNS4yNTktNi44MzItMTUuMjU5LTE1LjI1OSA2LjgzMi0xNS4yNjEgMTUuMjU5LTE1LjI2MXptNTcuNTc1LTMyLjc0M2MxMi42NDIgMCAyMi44OSAxMC4yNDcgMjIuODkgMjIuODg5cy0xMC4yNDkgMjIuODg5LTIyLjg5IDIyLjg4OS0yMi44ODktMTAuMjQ5LTIyLjg4OS0yMi44ODkgMTAuMjQ3LTIyLjg4OSAyMi44ODktMjIuODg5ek0xMjcuODEgMGM4LjQyNyAwIDE1LjI2MSA2LjgzMyAxNS4yNjEgMTUuMjYxUzEzNi4yMzcgMzAuNTIgMTI3LjgxIDMwLjUycy0xNS4yNTktNi44MzItMTUuMjU5LTE1LjI1OVMxMTkuMzg0IDAgMTI3LjgxIDB6Ii8+JiN4YTs8L3N2Zz4=;" parent="o_3mLYSUMHdXF__UBMAF-726" vertex="1">
          <mxGeometry width="20" height="30" relative="1" as="geometry">
            <mxPoint x="20" y="15" as="offset" />
          </mxGeometry>
        </mxCell>
        <mxCell id="o_3mLYSUMHdXF__UBMAF-741" style="edgeStyle=orthogonalEdgeStyle;rounded=0;orthogonalLoop=1;jettySize=auto;html=1;entryX=0;entryY=0.5;entryDx=0;entryDy=0;" parent="1" source="o_3mLYSUMHdXF__UBMAF-728" target="o_3mLYSUMHdXF__UBMAF-730" edge="1">
          <mxGeometry relative="1" as="geometry" />
        </mxCell>
        <mxCell id="o_3mLYSUMHdXF__UBMAF-742" style="edgeStyle=orthogonalEdgeStyle;rounded=0;orthogonalLoop=1;jettySize=auto;html=1;entryX=0;entryY=0.5;entryDx=0;entryDy=0;" parent="1" source="o_3mLYSUMHdXF__UBMAF-728" target="o_3mLYSUMHdXF__UBMAF-732" edge="1">
          <mxGeometry relative="1" as="geometry" />
        </mxCell>
        <mxCell id="o_3mLYSUMHdXF__UBMAF-728" value="" style="fillColor=#ffffff;strokeColor=#dddddd;shadow=1;strokeWidth=1;rounded=1;absoluteArcSize=1;arcSize=2;" parent="1" vertex="1">
          <mxGeometry x="390" y="220" width="170" height="60" as="geometry" />
        </mxCell>
        <mxCell id="o_3mLYSUMHdXF__UBMAF-729" value="Preprocessing" style="editableCssRules=.*;html=1;fontColor=#999999;shape=image;verticalLabelPosition=middle;verticalAlign=middle;labelPosition=right;align=left;spacingLeft=20;part=1;points=[];imageAspect=0;image=data:image/svg+xml,PHN2ZyB4bWxucz0iaHR0cDovL3d3dy53My5vcmcvMjAwMC9zdmciIHhtbG5zOnY9Imh0dHBzOi8vdmVjdGEuaW8vbmFubyIgd2lkdGg9IjI3MS44OTgxMDE4MDY2NDA2IiBoZWlnaHQ9IjQyMy4wMDQwMjgzMjAzMTI1IiB2aWV3Qm94PSIwLjAwMDQ2MTI3MDM2MzMwMjkwMTQgMCAyNzEuODk4MTAxODA2NjQwNiA0MjMuMDA0MDI4MzIwMzEyNSI+JiN4YTsJPHN0eWxlIHR5cGU9InRleHQvY3NzIj4mI3hhOwkuc3Qwe2ZpbGw6IzQyODVmNDtmaWxsLXJ1bGU6ZXZlbm9kZH0mI3hhOwk8L3N0eWxlPiYjeGE7CTxwYXRoIGNsYXNzPSJzdDAiIGQ9Ik0xOTcuMzc4IDE0NC43NzRhMy4xMSAzLjExIDAgMCAxIDMuMTA1IDIuOTM0bC4wMDUuMTc3djE3LjEwN2EzLjExIDMuMTEgMCAwIDEtMi45MzQgMy4xMDVsLS4xNzcuMDA1aC0xMi40NDF2MzAuNjQ5YzAgMS4yMjcuMjk3IDIuNDM1Ljg2MiAzLjUyMmwuMTYxLjI5MyA4My44OTUgMTQ0LjI2MmExNS4yNiAxNS4yNiAwIDAgMSAuMTgyIDE0LjkzNmwtLjE4Mi4zMjQtMzAuNDMxIDUzLjI4NmExNS4yNiAxNS4yNiAwIDAgMS0xMi44NjEgNy42MjZsLS4zNTUuMDA0SDQ1LjY5MmExNS4yNiAxNS4yNiAwIDAgMS0xMy4wMzUtNy4zMjRsLS4xODEtLjMwNS0zMC40MzEtNTMuMjg2YTE1LjI2IDE1LjI2IDAgMCAxLS4xODItMTQuOTM2bC4xODItLjMyNCA4My42NzQtMTQ0LjI2MmMuNjIxLTEuMDc3IDEuMTYtMi4yODkgMS4yMzQtMy41MjhsLjAwOS0uMjg3di0zMC42NDlINzQuNTJjLTEuNjU4IDAtMy4wMTQtMS4yOTktMy4xMDUtMi45MzRsLS4wMDUtLjE3NnYtMTcuMTA3YTMuMTEgMy4xMSAwIDAgMSAyLjkzNC0zLjEwNWwuMTc2LS4wMDV6bS0zNS43NjkgMjMuMzI3aC01MS4zMnYzNS40MDVjMCAyLjUzMS0uNjI4IDUuMDE4LTEuODI2IDcuMjQybC0uMjE3LjM5TDI4LjAzMyAzNTAuOWE3LjYzIDcuNjMgMCAwIDAtLjEzOSA3LjM3NWwuMTQxLjI1NSAyMC43NDEgMzUuOTIxYTcuNjMgNy42MyAwIDAgMCA2LjMyNyAzLjgxbC4yODEuMDA1aDI1LjU3MmwtMjIuNjA1LTM5LjE1M2MtMS4zMTQtMi4yNzYtMS4zNjEtNS4wNjItLjE0MS03LjM3NWwuMTQxLS4yNTUgMTkuNjc5LTM0LjA4NmgxNDYuNjA2TDIxMi45ODggMjk3LjFoLTU0LjI1OWwtOC44MjEtMTUuMjc4aDU0LjMxMmwtMTYuMzMzLTI4LjQ2aC01NC43OGwtOC44MjEtMTUuMjc4aDU0LjgzM2wtMTUuNDY1LTI2Ljk0NmExNS4yNyAxNS4yNyAwIDAgMS0yLjAzOS03LjE4NWwtLjAwNy0uNDQ2em03Mi44NDQgMTY2LjQwMWwtNTQuMTgxLjAwMSA4LjgyMSAxNS41NTJoNTQuMjg1ek0xMDQuOTIxIDc5Ljc5NWM4LjQyNyAwIDE1LjI1OSA2LjgzMyAxNS4yNTkgMTUuMjYxcy02LjgzMiAxNS4yNTktMTUuMjU5IDE1LjI1OS0xNS4yNTktNi44MzItMTUuMjU5LTE1LjI1OSA2LjgzMi0xNS4yNjEgMTUuMjU5LTE1LjI2MXptNTcuNTc1LTMyLjc0M2MxMi42NDIgMCAyMi44OSAxMC4yNDcgMjIuODkgMjIuODg5cy0xMC4yNDkgMjIuODg5LTIyLjg5IDIyLjg4OS0yMi44ODktMTAuMjQ5LTIyLjg4OS0yMi44ODkgMTAuMjQ3LTIyLjg4OSAyMi44ODktMjIuODg5ek0xMjcuODEgMGM4LjQyNyAwIDE1LjI2MSA2LjgzMyAxNS4yNjEgMTUuMjYxUzEzNi4yMzcgMzAuNTIgMTI3LjgxIDMwLjUycy0xNS4yNTktNi44MzItMTUuMjU5LTE1LjI1OVMxMTkuMzg0IDAgMTI3LjgxIDB6Ii8+JiN4YTs8L3N2Zz4=;" parent="o_3mLYSUMHdXF__UBMAF-728" vertex="1">
          <mxGeometry width="20" height="30" relative="1" as="geometry">
            <mxPoint x="20" y="15" as="offset" />
          </mxGeometry>
        </mxCell>
        <mxCell id="o_3mLYSUMHdXF__UBMAF-745" style="edgeStyle=orthogonalEdgeStyle;rounded=0;orthogonalLoop=1;jettySize=auto;html=1;" parent="1" source="o_3mLYSUMHdXF__UBMAF-730" target="o_3mLYSUMHdXF__UBMAF-743" edge="1">
          <mxGeometry relative="1" as="geometry" />
        </mxCell>
        <mxCell id="o_3mLYSUMHdXF__UBMAF-730" value="" style="fillColor=#ffffff;strokeColor=#dddddd;shadow=1;strokeWidth=1;rounded=1;absoluteArcSize=1;arcSize=2;" parent="1" vertex="1">
          <mxGeometry x="600" y="183.13" width="210" height="60" as="geometry" />
        </mxCell>
        <mxCell id="o_3mLYSUMHdXF__UBMAF-731" value="Feature&amp;nbsp;&lt;div&gt;Engineering/Selection&lt;/div&gt;" style="editableCssRules=.*;html=1;fontColor=#999999;shape=image;verticalLabelPosition=middle;verticalAlign=middle;labelPosition=right;align=left;spacingLeft=20;part=1;points=[];imageAspect=0;image=data:image/svg+xml,PHN2ZyB4bWxucz0iaHR0cDovL3d3dy53My5vcmcvMjAwMC9zdmciIHhtbG5zOnY9Imh0dHBzOi8vdmVjdGEuaW8vbmFubyIgd2lkdGg9IjI3MS44OTgxMDE4MDY2NDA2IiBoZWlnaHQ9IjQyMy4wMDQwMjgzMjAzMTI1IiB2aWV3Qm94PSIwLjAwMDQ2MTI3MDM2MzMwMjkwMTQgMCAyNzEuODk4MTAxODA2NjQwNiA0MjMuMDA0MDI4MzIwMzEyNSI+JiN4YTsJPHN0eWxlIHR5cGU9InRleHQvY3NzIj4mI3hhOwkuc3Qwe2ZpbGw6IzQyODVmNDtmaWxsLXJ1bGU6ZXZlbm9kZH0mI3hhOwk8L3N0eWxlPiYjeGE7CTxwYXRoIGNsYXNzPSJzdDAiIGQ9Ik0xOTcuMzc4IDE0NC43NzRhMy4xMSAzLjExIDAgMCAxIDMuMTA1IDIuOTM0bC4wMDUuMTc3djE3LjEwN2EzLjExIDMuMTEgMCAwIDEtMi45MzQgMy4xMDVsLS4xNzcuMDA1aC0xMi40NDF2MzAuNjQ5YzAgMS4yMjcuMjk3IDIuNDM1Ljg2MiAzLjUyMmwuMTYxLjI5MyA4My44OTUgMTQ0LjI2MmExNS4yNiAxNS4yNiAwIDAgMSAuMTgyIDE0LjkzNmwtLjE4Mi4zMjQtMzAuNDMxIDUzLjI4NmExNS4yNiAxNS4yNiAwIDAgMS0xMi44NjEgNy42MjZsLS4zNTUuMDA0SDQ1LjY5MmExNS4yNiAxNS4yNiAwIDAgMS0xMy4wMzUtNy4zMjRsLS4xODEtLjMwNS0zMC40MzEtNTMuMjg2YTE1LjI2IDE1LjI2IDAgMCAxLS4xODItMTQuOTM2bC4xODItLjMyNCA4My42NzQtMTQ0LjI2MmMuNjIxLTEuMDc3IDEuMTYtMi4yODkgMS4yMzQtMy41MjhsLjAwOS0uMjg3di0zMC42NDlINzQuNTJjLTEuNjU4IDAtMy4wMTQtMS4yOTktMy4xMDUtMi45MzRsLS4wMDUtLjE3NnYtMTcuMTA3YTMuMTEgMy4xMSAwIDAgMSAyLjkzNC0zLjEwNWwuMTc2LS4wMDV6bS0zNS43NjkgMjMuMzI3aC01MS4zMnYzNS40MDVjMCAyLjUzMS0uNjI4IDUuMDE4LTEuODI2IDcuMjQybC0uMjE3LjM5TDI4LjAzMyAzNTAuOWE3LjYzIDcuNjMgMCAwIDAtLjEzOSA3LjM3NWwuMTQxLjI1NSAyMC43NDEgMzUuOTIxYTcuNjMgNy42MyAwIDAgMCA2LjMyNyAzLjgxbC4yODEuMDA1aDI1LjU3MmwtMjIuNjA1LTM5LjE1M2MtMS4zMTQtMi4yNzYtMS4zNjEtNS4wNjItLjE0MS03LjM3NWwuMTQxLS4yNTUgMTkuNjc5LTM0LjA4NmgxNDYuNjA2TDIxMi45ODggMjk3LjFoLTU0LjI1OWwtOC44MjEtMTUuMjc4aDU0LjMxMmwtMTYuMzMzLTI4LjQ2aC01NC43OGwtOC44MjEtMTUuMjc4aDU0LjgzM2wtMTUuNDY1LTI2Ljk0NmExNS4yNyAxNS4yNyAwIDAgMS0yLjAzOS03LjE4NWwtLjAwNy0uNDQ2em03Mi44NDQgMTY2LjQwMWwtNTQuMTgxLjAwMSA4LjgyMSAxNS41NTJoNTQuMjg1ek0xMDQuOTIxIDc5Ljc5NWM4LjQyNyAwIDE1LjI1OSA2LjgzMyAxNS4yNTkgMTUuMjYxcy02LjgzMiAxNS4yNTktMTUuMjU5IDE1LjI1OS0xNS4yNTktNi44MzItMTUuMjU5LTE1LjI1OSA2LjgzMi0xNS4yNjEgMTUuMjU5LTE1LjI2MXptNTcuNTc1LTMyLjc0M2MxMi42NDIgMCAyMi44OSAxMC4yNDcgMjIuODkgMjIuODg5cy0xMC4yNDkgMjIuODg5LTIyLjg5IDIyLjg4OS0yMi44ODktMTAuMjQ5LTIyLjg4OS0yMi44ODkgMTAuMjQ3LTIyLjg4OSAyMi44ODktMjIuODg5ek0xMjcuODEgMGM4LjQyNyAwIDE1LjI2MSA2LjgzMyAxNS4yNjEgMTUuMjYxUzEzNi4yMzcgMzAuNTIgMTI3LjgxIDMwLjUycy0xNS4yNTktNi44MzItMTUuMjU5LTE1LjI1OVMxMTkuMzg0IDAgMTI3LjgxIDB6Ii8+JiN4YTs8L3N2Zz4=;" parent="o_3mLYSUMHdXF__UBMAF-730" vertex="1">
          <mxGeometry width="20" height="30" relative="1" as="geometry">
            <mxPoint x="20" y="15" as="offset" />
          </mxGeometry>
        </mxCell>
        <mxCell id="o_3mLYSUMHdXF__UBMAF-746" style="edgeStyle=orthogonalEdgeStyle;rounded=0;orthogonalLoop=1;jettySize=auto;html=1;entryX=0;entryY=0.5;entryDx=0;entryDy=0;" parent="1" source="o_3mLYSUMHdXF__UBMAF-732" target="o_3mLYSUMHdXF__UBMAF-743" edge="1">
          <mxGeometry relative="1" as="geometry" />
        </mxCell>
        <mxCell id="o_3mLYSUMHdXF__UBMAF-732" value="" style="fillColor=#ffffff;strokeColor=#dddddd;shadow=1;strokeWidth=1;rounded=1;absoluteArcSize=1;arcSize=2;" parent="1" vertex="1">
          <mxGeometry x="600" y="256.88" width="210" height="60" as="geometry" />
        </mxCell>
        <mxCell id="o_3mLYSUMHdXF__UBMAF-733" value="Imputations" style="editableCssRules=.*;html=1;fontColor=#999999;shape=image;verticalLabelPosition=middle;verticalAlign=middle;labelPosition=right;align=left;spacingLeft=20;part=1;points=[];imageAspect=0;image=data:image/svg+xml,PHN2ZyB4bWxucz0iaHR0cDovL3d3dy53My5vcmcvMjAwMC9zdmciIHhtbG5zOnY9Imh0dHBzOi8vdmVjdGEuaW8vbmFubyIgd2lkdGg9IjI3MS44OTgxMDE4MDY2NDA2IiBoZWlnaHQ9IjQyMy4wMDQwMjgzMjAzMTI1IiB2aWV3Qm94PSIwLjAwMDQ2MTI3MDM2MzMwMjkwMTQgMCAyNzEuODk4MTAxODA2NjQwNiA0MjMuMDA0MDI4MzIwMzEyNSI+JiN4YTsJPHN0eWxlIHR5cGU9InRleHQvY3NzIj4mI3hhOwkuc3Qwe2ZpbGw6IzQyODVmNDtmaWxsLXJ1bGU6ZXZlbm9kZH0mI3hhOwk8L3N0eWxlPiYjeGE7CTxwYXRoIGNsYXNzPSJzdDAiIGQ9Ik0xOTcuMzc4IDE0NC43NzRhMy4xMSAzLjExIDAgMCAxIDMuMTA1IDIuOTM0bC4wMDUuMTc3djE3LjEwN2EzLjExIDMuMTEgMCAwIDEtMi45MzQgMy4xMDVsLS4xNzcuMDA1aC0xMi40NDF2MzAuNjQ5YzAgMS4yMjcuMjk3IDIuNDM1Ljg2MiAzLjUyMmwuMTYxLjI5MyA4My44OTUgMTQ0LjI2MmExNS4yNiAxNS4yNiAwIDAgMSAuMTgyIDE0LjkzNmwtLjE4Mi4zMjQtMzAuNDMxIDUzLjI4NmExNS4yNiAxNS4yNiAwIDAgMS0xMi44NjEgNy42MjZsLS4zNTUuMDA0SDQ1LjY5MmExNS4yNiAxNS4yNiAwIDAgMS0xMy4wMzUtNy4zMjRsLS4xODEtLjMwNS0zMC40MzEtNTMuMjg2YTE1LjI2IDE1LjI2IDAgMCAxLS4xODItMTQuOTM2bC4xODItLjMyNCA4My42NzQtMTQ0LjI2MmMuNjIxLTEuMDc3IDEuMTYtMi4yODkgMS4yMzQtMy41MjhsLjAwOS0uMjg3di0zMC42NDlINzQuNTJjLTEuNjU4IDAtMy4wMTQtMS4yOTktMy4xMDUtMi45MzRsLS4wMDUtLjE3NnYtMTcuMTA3YTMuMTEgMy4xMSAwIDAgMSAyLjkzNC0zLjEwNWwuMTc2LS4wMDV6bS0zNS43NjkgMjMuMzI3aC01MS4zMnYzNS40MDVjMCAyLjUzMS0uNjI4IDUuMDE4LTEuODI2IDcuMjQybC0uMjE3LjM5TDI4LjAzMyAzNTAuOWE3LjYzIDcuNjMgMCAwIDAtLjEzOSA3LjM3NWwuMTQxLjI1NSAyMC43NDEgMzUuOTIxYTcuNjMgNy42MyAwIDAgMCA2LjMyNyAzLjgxbC4yODEuMDA1aDI1LjU3MmwtMjIuNjA1LTM5LjE1M2MtMS4zMTQtMi4yNzYtMS4zNjEtNS4wNjItLjE0MS03LjM3NWwuMTQxLS4yNTUgMTkuNjc5LTM0LjA4NmgxNDYuNjA2TDIxMi45ODggMjk3LjFoLTU0LjI1OWwtOC44MjEtMTUuMjc4aDU0LjMxMmwtMTYuMzMzLTI4LjQ2aC01NC43OGwtOC44MjEtMTUuMjc4aDU0LjgzM2wtMTUuNDY1LTI2Ljk0NmExNS4yNyAxNS4yNyAwIDAgMS0yLjAzOS03LjE4NWwtLjAwNy0uNDQ2em03Mi44NDQgMTY2LjQwMWwtNTQuMTgxLjAwMSA4LjgyMSAxNS41NTJoNTQuMjg1ek0xMDQuOTIxIDc5Ljc5NWM4LjQyNyAwIDE1LjI1OSA2LjgzMyAxNS4yNTkgMTUuMjYxcy02LjgzMiAxNS4yNTktMTUuMjU5IDE1LjI1OS0xNS4yNTktNi44MzItMTUuMjU5LTE1LjI1OSA2LjgzMi0xNS4yNjEgMTUuMjU5LTE1LjI2MXptNTcuNTc1LTMyLjc0M2MxMi42NDIgMCAyMi44OSAxMC4yNDcgMjIuODkgMjIuODg5cy0xMC4yNDkgMjIuODg5LTIyLjg5IDIyLjg4OS0yMi44ODktMTAuMjQ5LTIyLjg4OS0yMi44ODkgMTAuMjQ3LTIyLjg4OSAyMi44ODktMjIuODg5ek0xMjcuODEgMGM4LjQyNyAwIDE1LjI2MSA2LjgzMyAxNS4yNjEgMTUuMjYxUzEzNi4yMzcgMzAuNTIgMTI3LjgxIDMwLjUycy0xNS4yNTktNi44MzItMTUuMjU5LTE1LjI1OVMxMTkuMzg0IDAgMTI3LjgxIDB6Ii8+JiN4YTs8L3N2Zz4=;" parent="o_3mLYSUMHdXF__UBMAF-732" vertex="1">
          <mxGeometry width="20" height="30" relative="1" as="geometry">
            <mxPoint x="20" y="15" as="offset" />
          </mxGeometry>
        </mxCell>
        <mxCell id="o_3mLYSUMHdXF__UBMAF-750" style="edgeStyle=orthogonalEdgeStyle;rounded=0;orthogonalLoop=1;jettySize=auto;html=1;entryX=1;entryY=0.5;entryDx=0;entryDy=0;" parent="1" source="o_3mLYSUMHdXF__UBMAF-743" target="o_3mLYSUMHdXF__UBMAF-747" edge="1">
          <mxGeometry relative="1" as="geometry">
            <Array as="points">
              <mxPoint x="960" y="366" />
              <mxPoint x="640" y="366" />
            </Array>
          </mxGeometry>
        </mxCell>
        <mxCell id="o_3mLYSUMHdXF__UBMAF-743" value="" style="fillColor=#ffffff;strokeColor=#dddddd;shadow=1;strokeWidth=1;rounded=1;absoluteArcSize=1;arcSize=2;" parent="1" vertex="1">
          <mxGeometry x="880" y="220" width="160" height="60" as="geometry" />
        </mxCell>
        <mxCell id="o_3mLYSUMHdXF__UBMAF-744" value="Train/Test&lt;div&gt;Valid Split&lt;/div&gt;" style="editableCssRules=.*;html=1;fontColor=#999999;shape=image;verticalLabelPosition=middle;verticalAlign=middle;labelPosition=right;align=left;spacingLeft=20;part=1;points=[];imageAspect=0;image=data:image/svg+xml,PHN2ZyB4bWxucz0iaHR0cDovL3d3dy53My5vcmcvMjAwMC9zdmciIHhtbG5zOnY9Imh0dHBzOi8vdmVjdGEuaW8vbmFubyIgd2lkdGg9IjI3MS44OTgxMDE4MDY2NDA2IiBoZWlnaHQ9IjQyMy4wMDQwMjgzMjAzMTI1IiB2aWV3Qm94PSIwLjAwMDQ2MTI3MDM2MzMwMjkwMTQgMCAyNzEuODk4MTAxODA2NjQwNiA0MjMuMDA0MDI4MzIwMzEyNSI+JiN4YTsJPHN0eWxlIHR5cGU9InRleHQvY3NzIj4mI3hhOwkuc3Qwe2ZpbGw6IzQyODVmNDtmaWxsLXJ1bGU6ZXZlbm9kZH0mI3hhOwk8L3N0eWxlPiYjeGE7CTxwYXRoIGNsYXNzPSJzdDAiIGQ9Ik0xOTcuMzc4IDE0NC43NzRhMy4xMSAzLjExIDAgMCAxIDMuMTA1IDIuOTM0bC4wMDUuMTc3djE3LjEwN2EzLjExIDMuMTEgMCAwIDEtMi45MzQgMy4xMDVsLS4xNzcuMDA1aC0xMi40NDF2MzAuNjQ5YzAgMS4yMjcuMjk3IDIuNDM1Ljg2MiAzLjUyMmwuMTYxLjI5MyA4My44OTUgMTQ0LjI2MmExNS4yNiAxNS4yNiAwIDAgMSAuMTgyIDE0LjkzNmwtLjE4Mi4zMjQtMzAuNDMxIDUzLjI4NmExNS4yNiAxNS4yNiAwIDAgMS0xMi44NjEgNy42MjZsLS4zNTUuMDA0SDQ1LjY5MmExNS4yNiAxNS4yNiAwIDAgMS0xMy4wMzUtNy4zMjRsLS4xODEtLjMwNS0zMC40MzEtNTMuMjg2YTE1LjI2IDE1LjI2IDAgMCAxLS4xODItMTQuOTM2bC4xODItLjMyNCA4My42NzQtMTQ0LjI2MmMuNjIxLTEuMDc3IDEuMTYtMi4yODkgMS4yMzQtMy41MjhsLjAwOS0uMjg3di0zMC42NDlINzQuNTJjLTEuNjU4IDAtMy4wMTQtMS4yOTktMy4xMDUtMi45MzRsLS4wMDUtLjE3NnYtMTcuMTA3YTMuMTEgMy4xMSAwIDAgMSAyLjkzNC0zLjEwNWwuMTc2LS4wMDV6bS0zNS43NjkgMjMuMzI3aC01MS4zMnYzNS40MDVjMCAyLjUzMS0uNjI4IDUuMDE4LTEuODI2IDcuMjQybC0uMjE3LjM5TDI4LjAzMyAzNTAuOWE3LjYzIDcuNjMgMCAwIDAtLjEzOSA3LjM3NWwuMTQxLjI1NSAyMC43NDEgMzUuOTIxYTcuNjMgNy42MyAwIDAgMCA2LjMyNyAzLjgxbC4yODEuMDA1aDI1LjU3MmwtMjIuNjA1LTM5LjE1M2MtMS4zMTQtMi4yNzYtMS4zNjEtNS4wNjItLjE0MS03LjM3NWwuMTQxLS4yNTUgMTkuNjc5LTM0LjA4NmgxNDYuNjA2TDIxMi45ODggMjk3LjFoLTU0LjI1OWwtOC44MjEtMTUuMjc4aDU0LjMxMmwtMTYuMzMzLTI4LjQ2aC01NC43OGwtOC44MjEtMTUuMjc4aDU0LjgzM2wtMTUuNDY1LTI2Ljk0NmExNS4yNyAxNS4yNyAwIDAgMS0yLjAzOS03LjE4NWwtLjAwNy0uNDQ2em03Mi44NDQgMTY2LjQwMWwtNTQuMTgxLjAwMSA4LjgyMSAxNS41NTJoNTQuMjg1ek0xMDQuOTIxIDc5Ljc5NWM4LjQyNyAwIDE1LjI1OSA2LjgzMyAxNS4yNTkgMTUuMjYxcy02LjgzMiAxNS4yNTktMTUuMjU5IDE1LjI1OS0xNS4yNTktNi44MzItMTUuMjU5LTE1LjI1OSA2LjgzMi0xNS4yNjEgMTUuMjU5LTE1LjI2MXptNTcuNTc1LTMyLjc0M2MxMi42NDIgMCAyMi44OSAxMC4yNDcgMjIuODkgMjIuODg5cy0xMC4yNDkgMjIuODg5LTIyLjg5IDIyLjg4OS0yMi44ODktMTAuMjQ5LTIyLjg4OS0yMi44ODkgMTAuMjQ3LTIyLjg4OSAyMi44ODktMjIuODg5ek0xMjcuODEgMGM4LjQyNyAwIDE1LjI2MSA2LjgzMyAxNS4yNjEgMTUuMjYxUzEzNi4yMzcgMzAuNTIgMTI3LjgxIDMwLjUycy0xNS4yNTktNi44MzItMTUuMjU5LTE1LjI1OVMxMTkuMzg0IDAgMTI3LjgxIDB6Ii8+JiN4YTs8L3N2Zz4=;" parent="o_3mLYSUMHdXF__UBMAF-743" vertex="1">
          <mxGeometry width="20" height="30" relative="1" as="geometry">
            <mxPoint x="20" y="15" as="offset" />
          </mxGeometry>
        </mxCell>
        <mxCell id="o_3mLYSUMHdXF__UBMAF-753" style="edgeStyle=orthogonalEdgeStyle;rounded=0;orthogonalLoop=1;jettySize=auto;html=1;entryX=0.5;entryY=0;entryDx=0;entryDy=0;" parent="1" source="o_3mLYSUMHdXF__UBMAF-747" target="o_3mLYSUMHdXF__UBMAF-751" edge="1">
          <mxGeometry relative="1" as="geometry" />
        </mxCell>
        <mxCell id="o_3mLYSUMHdXF__UBMAF-747" value="" style="fillColor=#ffffff;strokeColor=#dddddd;shadow=1;strokeWidth=1;rounded=1;absoluteArcSize=1;arcSize=2;" parent="1" vertex="1">
          <mxGeometry x="390" y="330" width="170" height="71" as="geometry" />
        </mxCell>
        <mxCell id="o_3mLYSUMHdXF__UBMAF-748" value="Hyperparameter&amp;nbsp;&lt;div&gt;Tuning&lt;/div&gt;" style="editableCssRules=.*;html=1;fontColor=#999999;shape=image;verticalLabelPosition=middle;verticalAlign=middle;labelPosition=right;align=left;spacingLeft=20;part=1;points=[];imageAspect=0;image=data:image/svg+xml,PHN2ZyB4bWxucz0iaHR0cDovL3d3dy53My5vcmcvMjAwMC9zdmciIHhtbG5zOnY9Imh0dHBzOi8vdmVjdGEuaW8vbmFubyIgd2lkdGg9IjIwIiBoZWlnaHQ9IjE3LjUiIGZpbGwtcnVsZT0iZXZlbm9kZCIgdmlld0JveD0iMCAwIDIwIDE3LjUiPiYjeGE7CTxzdHlsZSB0eXBlPSJ0ZXh0L2NzcyI+JiN4YTsJLnN0MHtmaWxsOiM0Mjg1ZjQ7fSYjeGE7CS5zdDF7ZmlsbDojNjY5ZGY2O30mI3hhOwk8L3N0eWxlPiYjeGE7CTxwYXRoIGNsYXNzPSJzdDAiIGQ9Ik0xOC45MSAxMC42M0wyMCA4Ljc1IDE3LjgyIDVoLTMuMDdsLTEuMDYtMS44NkgxMi41VjEuODhoMS45NGwxLjA2IDEuODdoMS41OUwxNC45IDBoLTQuMjd2NWgxLjczbC43MyAxLjI1aC0yLjQ2djIuNWgyLjI2bDEuMDUtMS44N2gyLjgxbC43MiAxLjI1aC0yLjhMMTMuNjIgMTBoLTIuOTl2NC4zOGgzLjRsLS43MiAxLjI1aC0yLjY4djEuODdoNC4yN2wzLjI4LTUuNjJoLTIuMDlsLS43MyAxLjI1SDEyLjV2LTEuMjVoMi4xNGwuNzQtMS4yNXoiLz4mI3hhOwk8cGF0aCBjbGFzcz0ic3QxIiBkPSJNMS4wOSAxMC42M0wwIDguNzUgMi4xOCA1aDMuMDdsMS4wNi0xLjg2SDcuNVYxLjg4SDUuNTZMNC41IDMuNzVIMi45MUw1LjEgMGg0LjI4djVINy42NGwtLjczIDEuMjVoMi40N3YyLjVINy4xMUw2LjA2IDYuODhIMy4yNWwtLjcyIDEuMjVoMi44TDYuMzggMTBoM3Y0LjM4SDUuOTdsLjcyIDEuMjVoMi42OXYxLjg3SDUuMWwtMy4yOC01LjYyaDIuMDlsLjczIDEuMjVINy41di0xLjI1SDUuMzZsLS43NC0xLjI1eiIvPiYjeGE7PC9zdmc+;" parent="o_3mLYSUMHdXF__UBMAF-747" vertex="1">
          <mxGeometry width="30" height="27" relative="1" as="geometry">
            <mxPoint x="15" y="16.5" as="offset" />
          </mxGeometry>
        </mxCell>
        <mxCell id="GmEKnKSyr8c-gKUxN58G-3" value="" style="shape=image;verticalLabelPosition=bottom;labelBackgroundColor=default;verticalAlign=top;aspect=fixed;imageAspect=0;image=data:image/png,iVBORw0KGgoAAAANSUhEUgAAARgAAAEYCAYAAACHjumMAACAAElEQVR4nOx9B3gU1fr+dzaQ3ivpoYSQAgQIEGpCVxCIShAFFUV/3gsqiNeGVwm2q6KCBfhbQCygEEtAek1AQocEkiUQID0hu2mbniDM/9nd2d0zZ87MzpYgYN7ngezMnJnznZk573m/75SRQSc60YlOdBA6CaYTnehEh6GTYDrRiU50GDoJphOd6ESHoZNgOtGJTnQYOgmmE53oRIehS0JCwt9tQyfuMGTkltkCgCsAOAGAIwDYA4At+w9vtG6y/9rYf83sv4ZQH9emMF8X5m8sRiduARDDdD7jfzIKFfVdChX1IYWKhtBCZX13AOgGAF2VqhaUW1Ljqd4uVNR7FykbfADAAwC8AcBO0sWpr5Z6J1L/vQEA9QBQCwxUJsQEKgFA4evmWBkV7HmdTaxyd7LNi+3uU+ruZJcf292nzZpl70THo5Ng/kFQqJpRRm5Z9/ScshG5JTXxGbllwwCgDwA48FMjIYawLgRJiHfsLwAoiAr2PBYd7HkqeUR4ZlSwZ1Z0iNdfHW9kJ8xFJ8HchVCoWux2nC7sV6isjwdAnlkFSu/MvIq+yvqW/gDInVtzkZZLABcXYNgHAiRASwfkOWa+Wwy5gYRIR+Xj6iCPCvE8lxgTVAEA1T6uDtlT4sJOh/m6NpuXeSesiU6CuUuQmpkfdPTitQk/ZlycoaxvGQ2AnDkiRIgIrAYzFY8pRMQjHtp+DZp9XB0OzEmM2DhtSI/9iTFBCtMN64Q10EkwdyCyCpROR/KuJezNLk6sa24bnJFT5gkA/fQsIkYmNB5ApIQR+63bxWDncQ4YMjLl3cKJUMp5DPFD+JR2H1eHrKgQz1pfV4dTwyP9D8wdG5Xu7mR3U7pxnTAXnQRzh6CkqqHL2v3yCWv3yZ8srW6cAoC0cRMhMuHtNyJhcC4xBWYJF4YgFAnXMaZ0SMIRT14RH9Ft3eJpA75LHhGeb5LpnTAJnQRzm6Kuqa3rhkOX4k9erpycVVgVn11Y1RcY8DJOKMaCI+LCxGqgxXMkvWqMNPUjdJy3W1zhsOqmLDrYc+eE2JAtSUN7lkqxshPS0EkwtxEUqmbZjtNFo9en5z2SkVM2CQBCqASAsApIdVPwtLQdDP961oRQJZecnpbGUsKRpGxuhvq6/DFlUNi2l+4ftLEzUGw5OgnmNkDKphOjVu86/6ayvmU8NQHi/RA4TjnQEQpFqlsjBUKBWyDjMgLpyPxphCJ0zLjt5fPv7fvSqw/GbQr2drlhNHUneOgkmL8BhYp6u0JFQ9z6gxfid5wpmqmsb4kTnLYhpC4QUGqelQhFTyDsxagBXcKVMTeGQwPtnTRGaIIKxgjRSLO37PGxkWuThvbYNryP/ylfN8fOSiMRnQRzC5FbUmO7dp/8oRXbspYAA304ZEBTKWLhFHPcGlPOMVelSE2vIS0Trs0IjIehXcMYqYjtN25PwdJZQ19KmTX0V4mW/6PRSTAdjLqmNsgqqOq3/uCFkWknri5SNbeHcxIgERZBxIZUfpBKJB0+NgaDpJ4iiaQj1KNEi/3QrkU7H98nrUqcXzpryMrEmKBTsd19zrk7SZs98U9DJ8F0IFIzL3df8HXGD8r6lhGcA3r3htxHbFhKKMbOt3ZwVwgmjWuhnGtOF7ZkshEiKulkExXs+f3ml+5dFB3iVWs89T8LnQRjZWQVKH3zK1T9X/r+yMIiZcO9nNiKULDWFKUiRE7GupxvFZmYArF3j3rISMxEkrtDXEOK6yStitQmD+/1/iMJEbuShvY8J+mMfwA6CcZKyC2p8Vqedubp79Lz3uRNHjSmWMQqP+1c6i4LArxivVCSQASapVdKkctJcYF0+8WISqx7mmIneS3TYzQ3fVwd0udP7vtByqz4PUZT3+XoJBgLkZp5OTQ18/KrqZmXHwAEvvoDoqRiTKWIKRyRdILXwxWOhHEztEFyYmAIO42+UiYSkBDhgESlIYUkeMQiEFSWbvvNIC/nPfMmRH2bMit+s6Qz7kJ0EoyZSM8p9UvZdOLZDHn5cwDgpj9gLrEYjcvo9kkdWCdF9ZgCa/ZDi1RySUFeCepGdOCdENHQFA0lISOQlo6/EmIC16fMGvomO+P7H4VOgjERClWLy7NfZ7ybevTyQwCEYtGNHeG1/mLEYoRUJBGKhWQiRdmYA4biOgmmFdhp6vgXGtFQu7KN5EG9Ls3dkkw0NQkxgT//sGjiG8HeLjWSzrgL0EkwElHX1Nb19Q1HZ244fOllVXN7P/0BQYIQ6Qkyl1TEXB1TA8PiuAkA1epKoakYkf617OpzjQCgAoC2xMiAVgC4zv5TW3WDDWh3BQAbZX2LbW5ZrRMbj1L/dZeX1nooG1rdAcAHALw0S22aEug1pnCM9SYZ6zHinWMkRmM6yahRuHBqbMqSGXE/+Lo53vUzujsJxggUqmZ4/7czM3dnFT8nL60ZqT9AVlpJxCJ0jpSuZoHzqOcYJRM1eZxPHtrjtI+L/cXEyIA6dr+aSEp8XO2vJkYGXDd2EUugqG9BGRcqvAEgDABC1VanXyi3U9a3RKZfqIhU1rcOAmBC9CcwFC9NanAXSA4RcoVA2H2ixmgo2xKrU5CXc+a8CdEpKbOG7pV2xp2JToIRQWrm5dBVO8+/lyEve4RzgKpAJCoWU9SKFFIRJ5NaH1f73KhAj/OJkQG5Yd4u8jAf58uxIV5ld8J6KOkXyl0LlQ2xhcqG3ukXygco61t7y8tqB2tiXiRhgFBch3LALFdISAGRaU1SMzceHxu5+MPHR6z2dXO8K5f+7CQYCtJzSnvM/WL/yiJFw1T+cH6SSCjEYgrhgAnnCZ/bEurtfHhIT9+zw8P9/owN9cpKjAy4q5cdSJeX+2UVVY9KO10YX6isH1ZU1TgYGI17Zl6AVxJ5YBtCxGOe23Rj4dTYhUtmxK2529ymToIh8MnWrOEvrj/8CyDkr98pFDOhVXY8yAsmBnpN6zVSRgV57Jo/PurLaQNCjwV7Of+jZ/seza90+PHP/Ae3nimcWlrdNIWN+whXdCGXRixOw1NNxLo1NDVDy0MYp3I+m50QHeJ11ywT0UkwLFIz82OeXnPwe1Vz+wD9TrE4i5irYyy2Ysz94Z9zw8fVPnNy/5D9U2JD9gzu4XMqzMelQ2Mkdzqyiqo8004V3pd2qnBidlH1VADG1ej4F5PdIRBXM2AW0TQnRAe+lbbkvg/dnezu+MrZSTAAkPzRznm/ZF7+CgDJDOoE6CQgpFrIdFQSErgm7TpalCdE+v+Q8sCglYmRAddMKFInMJRUN9qsTc+buuzX04sBmBHACCyNwVC6rKXGaMSCwGa4TVHBnj8ffOeBx3zdHO/ohuQfTTDrD1xIeOKLfWsBoZ6cA1IIwyS3CYRjK9z0qoRI/22JkQGbkgaFZsSGetebVqJOGENdU5tN2qnChOXbsufIS2umA4AnJ4FURUNzm6zc0+TmZHvh3dnDn14wud8RaWfcfvhHEkxJVUOX9387PW/1rpyPAbG+OrlsghR3yBJXyJD+ZlSgx+7ESP89r06N/SLYy/mu7E24HZFbWmO/9mDe/+0+VzJWXlo7kTOHTKoCoZGGUCyG3JZY9WYM7/XqJ0+O+iDY20XaCbcR/nEEk55T1n3mxzu/VKpaJwgShKmxFp6aERkEZzh2duGkmG+S4sJSEyMDlGYVphNWQ25pTcDybdkPfZdxcQn7eVxhMpCiZqzc0+Tj6rB/z7Kk2bHdfSolF+o2wD+GYAoV9U7L0848s3rX+aWAkKv+gFDXsznukJArxKYL9XbeM3d0xJ9h3s7b546OOGONcnXCuihUNthtP1s0ae/50nFbThUmA4C/UZWi3wcEIRHnUfdJr39uTrbnF00dsHLR1Nj1d8I4JvinEExJVaNs0H9+PqEZHUqOV0HEDinjWUwkliBPp7PzEvu8kPLAoAzrlKgTtwIl1Y029/xv+3vystrntdMawDhBSEpj0eA8tcv0fOrLkz83rTR/D+56gknZdHzO6l05LyrrW2I5B3iujhR3yEjPEJdcipKH9kgdHu6355Hhvfb5ujrc3Tf6Lka6vDwo7VTBY+szLj6iamqP5rtNtEWsjPRI8VSRSSTz1/ShPVZ+NX/sS75ujmaX61bgriaYBV+lJ63edf53DjHQCIFDJBLHswina4rv5bt6y+JJr/u6OtzRXYyd4CK3tMbhqa8ynj+WX/madrqCRKUiJQBsRvA3yMv5p9OfzHr8du7KvisJJqtA6bpo3eEvMnLLZgFCXfUHeORiRg+RQMzGx9VePjk25NNF98RsiQ31vqMCcZ0wDVmFVSFfH7iQsOFI/jJVU1t3caUC4i4TrZfJhDoZ6uuSsf65CQ8m9g2qtqBIHYa7jmCOXqzwnP7+9t3K+tY4zgEaoRhTLkI9S9w0rTOGdP/fJ7OHfRDs5dxmxaJ04jZHbmmN21NfZaQcu3RtAbtMhXSSEeplMs9lKjz4zgOjE2OCSswsSofhriKYlJ+P37d61/n/p6xvCRR0aaS6RUZVC1xceE/fT54eE/lHdJDHXb9SWW55XVdlQ6sTO8fHlv2nvhs27FowNwGgjf3X7ONi3xQd4P6PmB+VLi/vl/LLqWcz5GVPa3bQVAiNOESDv6YFft2cbPO/nj/ugeQR4TnmlKGjcFcQTF1TG/zfmgNvpmZeflPzwtPIw1gXtLGuZ8Nu1eOjI9788OGhX/m6OrR2QHFuGXLL62yUDa1BuRV1PdR/lY2twbnldd3U7r28os5X2dDqyY50ddP0ogA+GBF/b3Q3h9zH6Baoqg71claGeTlXuDvYVsYGe5YCQGli726FAFCUGNHtrhgHtGpPzpjXfz7xrqq5bZhmh6nBXSlKRxytC6f2n71yXsJvFhTDqrjjCUaharaNWbhxt7K+JdG0YC4YcZl45zfFh/u9vWXxpBW+rg7tHVci6yO3vM5JXlE3MPV0YcLRq8q40trmeADw0xykDEA2G7pXibwmQ0tA/GY0K+PlxffwOTIwxOtYYu9uB5PjwoqtaN0tw+LvMyet2JG9FgAChcfDgLCasawb+/rSWUMSU2bFZ1pUCCvhjiaY3JJqnwVfZaRk5JbNp5KLRfEW/fn1CZH+6XNHR3w4d3TEbT0nRNHQCvKKuv7KhlaP3PK67umXro3IuHRtIACKAASG/kyGJAFE20k/RBMu5HVN/tAabZSrBtcSendLjw5wzx4c5n0qzMu5zd3R9lRssGeL8Qz+XmQVVoUs+v7Ixxny8vHAgLtmpzHiECMZ0+qp8ov/S5y+YHK/o+aXwDq4Ywkmt7g6MGbRxpOakZaC5CGhR0hctRR+MXfk7AUTom+L1oCG3PI6293yshFr/8x/XF5RNwkAddMfJMstpDBuJcheE+oxjNX472drkIfT3mn9gzbOT4zcGh3gfluvnbJqT07ss+sOHwYGnLV7TAjuWqZk2pfOGjIqZVb8CctKYBnuSIJJzcyPfHr1wc9VzW3jxJWJCfEWLrlUTR8U9uu7MwcvjA7yvK16hnLL6zyVDa3R6ZeudU/LKh6XXVqTBIBc6aQhtPiVBFhCQrQwjWg6SkAUUVwr/vWqo/zdDk2ICtyVFBtyMczLOTvM27nOAss7BGknCyJf33R8ubykVvulT1HikKBqpFfZ8s0v3Tvp7wz83nEEs/lIfuxDH+9SK5cuomrFWC+Q8PHyg69PHZcYFZDXgcUwGZ/syx299s/8p+QVqgcBGEf+7G0JX3YUPY75QJZ+ZpZDDBSmEXvlOKEZ2nkMHrchjjONQZ5OW1+9p+/yBWMisywrhPWxYN3hh1bvyfkOGNB+KV807oITikVKpvbgOw/EJcYEXbXMevNwRxFMamb+yKdXH/xG1dwWIa5OzFAuCBoSIv1XrZo76t3oII/Gji6LMRRWNbqfLKrqv/186eDvjl55CgAi9AfJ+IkYHwjFWgTPIQMu5pANJZjL0OyQQjYM3zTye0uUd9jNoeux2UN6rJ0QFXhueC+fk74ut8dUjZRfTo5fn37x3SJlwxDNDjHysFLg183J9lzaa/dNSowJuuWLlt0xBLNo3aH7Pt2W/Yd2S6S3iDb+xUgXdf9Qr60rHx0+LzEqoKpjSyEORUOrzer0vHtSTxeqlcp4AMaZajOt3vOIBP8p0rVslgslxf9hwQvmEtFiBuj7hLIwutYKNX1lQu9uPy0Y02dNclz3S9IM7zhohlV8lfFS6rErbwPD2HEOik0vsEzJXDq74uFxsd19buli8HcEwcz/Kv3RNbvOf6UZiyHoFhnrcqYGgEs/njPs5Tkjw1N9XR3+toWeNp8qjPrlTOELqacL7wMANkhrZMkI/X5iQ08owHcLGZyQRVgFUSo5nszkV4ZQNIKkAyLfhKacwpCEJEI27DEfZ/sjyXFh37x6b7/vgz2d/tYlDzYfuzLwoRV7MgDA2WQlIxSzEYGPq0NuzuezY27lBMnbnmBSNh2PW7bpxA7N1wClBnR5MRf+MTcn2ysr5wx/cG5CRPatKQkfK/fLx399+NI8eUXddO1qamSvl4ArwyEJRKgUMh11QyRdB4AUToLKg+xBolyAoV1XKFaDxzMwEmIAfFzscyf3DVrzYfLg73xd7P82l3h9Rt6Al388+oOyvjValEg42+YHfh8fG/nK+ucnfGgN26XgtiaY+V+lz16z6/zX+qUMSYKhVUQxl4n9HR/u+8M3Tycsig7yvOXfCC6pber6/s7zi7dml0wrrWsazndnxEgFCOJkBOIqFKIRC6eQy4VaBRJaVp6SwX6SvUh6V8q4SjEcEwguc9MVJseF7U6OC3srOa57ubFSdQRKqhtt73lv20Z5ae2DkkhG6Le0qnwjeXivVza/PPljyy03jtuWYFIz86NnLt+1H5BuxKkEcgERt4ndfnx07399+Ej8l76uDreiGHoUVjU6LNp8YuGWrOLFgJAPtbdGcF1fkE48ApuGfRJJhHSTSDdLLE5iFGKfbqXsYEDAlRI5X4orwU1TnxDRbe36J0a+HubtcssH8tU1tXVJ+mjXqxny8reF5ySJTSswbe7S769NiUwa2rPDe0pvS4LZfCR/4kMf79oEwI6AFIy1IH58hRpv0fif8lenDViweHK/9FtTCi1yy+s8lv2R9XLq6cJHACCEah+PJIEI1NJiKkTNpwV9GZHYDe2cjoTYaya0/CTpTtFiN4LHBSohNR1nv0bRLJ0W+0J0gMctJ5oFaw89vXpP7mpgmC4cW6mKRSRuYwQ+rg75q55JHJU8IrxDlxa57QgmPae0W9L72/epmtujNTukBHV5MRduWh8XB/me16aMjg3zvmVrZhRWNTov35Pz6Or0vLcBwEvvrjEiqoSznwxcCKgVHrFIUDKCx4XkCjQBMBUAqCqhl69C3doDQAMAtLKzp3UB8i7ssgWO7KxrD3mFyk3Z2OqnGXENYFgL2RTCoblSHFWjrlgCgWGqghFzPfS/CueP6bPi3fsHfu7ueGs/gJaSevLeZb+c+hUYxoFnn85G65BM1qU1jw1wd7Kzluk83FYEs/KPsxNfWPfnNkDs2hqSyEVcuSy8t9+MlY8O//VW2K/G+szLUct35/xHXlH3BM8eoMSFQIhYBEhFTOnwrkfbpjJOaainU86QEK+sqG5ul2ID3bPdHWwvJ/bys/p3mepa2iGrrNazrrm9R1ZZbVRWWW2frLLaIUU1TYM0ilUsrgIUsuEpHfJzruR5IkQD1HhGU0JEt0/XPzHynVvpOmUVVvkmLtuyW9XUZljqlSQQoTiMCXW6f3fvb7JWPPK0tewmcdsQjELV3DVm4cbjyvoW7adbJY/SFQroAiREBryZ/sa0tzveei1S/siasuyPrN81rTiiBF9FFwvHiEWMVASvQ6YRTXDdx9nuUGIvv03JsSHpybEh+RKL2GEoqWtGxwqU/VKziqelZhVPAYDBvC8wCnZD01SNSIvOcZdoZETLh7lw8KV770+M8L9ofilNw6rd54c8u+7Pg8AwjgZbBOIuxpbvFMELU2Mf+mTe6M1WNF2P24JgckuqXUa89ovaLdKObjSxV4ijarS7ajc/P2FKcnzPDp9NqmhohdUHL8xYti37EwAIBjBChECqENp+CWpFUKVQFU1BQi+/PUkxQTtiA90PJ/byq5Vavr8T6fmVfmnnS2buzbuWKL+mmqxdk4aF0HeGgKyImLsnpo6oA9x45/0V5e/204anE96MDfEqtLiAEpBbUuM8+/N9W7MLq8YI2MTvwjY96Ks8+M4DgxNjgoqsavztQjAzl+9clnpUs1iUFnrikKhcuMealj4YNz5lRtyxjrY7t7zO6Z6VezaU1jVP59gipFp4x0nVYgoJ4dtk7ETz80aUn9vGefE9v5wTF3bU19n+jviOjhDS8yvdt+aU3r/iYN5/AaCH/oBRogHiuMgXAIB2nOpGXfr4oSEzF0+MuSVjqNLl5b3HLNuSCQzjpd95kzE8dkGiNCke85vi+6cftLLpfz/BJL7x2/KMnLL/0GMqQhWVTi5uTnbyIynTJ0UHeXbocOjCqkbHuev/fCfj4rUFgDRLR0okFyPukBCpgGQ1Uzm9b9A3sweGpSbHhvxtAwg7GoqGVqf39uZMTztXOr+opmmEdq8E4hCNzxipmJQlLPsHeaSunDX0ucQ+/h2+yLtC1WI35PVfDhcpGgZT7aENxDMxHrNwauzTK+eN/saadv+tBPPJ1rNDX/z2z2PGSYRS+Yhzgrycj/wwf2xyYlRAh66Pu/lUYdSzG4/9rGxs7WvInxEmC6pqkZCWc2383pBKBdXHh3ntnRTh//O8+J6/Brs7/v2S9Bbik4MX4raeL/2/jMuKBzS9dSAwVgTISkjpdZI6kparHOqXTot9LGX6wC0dV0ot0nPLej/6xf5fS6sbYyTFY8A0kvFxdThz+pNZY4K9XawW3P/bCGb9AfnwJz7fvw+Q7oPjBGmIKQKecrE9dCQlaXp0kGeHrQVSWNXoPHf94f9mXKp8TtMNKxQvEV0mQkcuFPUhVbEY9ldM7xv0fcqkvu/HBnrcdmug3GrkVtTZfn308v99mn5xAQD0ERzdSltoW1CtiFyDUA8JEd0+3/yvMc939ABORX2LU++FG46qmtr78myxjqv0x6U1jyVZ69O0fwvBpOeUBo5547eTAMifTx6m9RiF+rjsT1s8aVpsmHeHrGxW19zWdeU++Vz1P1Xr9eFcW/DRuAKD5XiqhSAXwUXGGW5sRZusNaGn74+Jvfwy548M3+TrbH9br+b2d0DR0AobTxfen3auZErG5cp51G5qAHq3tpjLBCK9TLqJlC72GR8mD/547ojwPzquhABpJ6/2mbvqwE+q5vZYUZfITJJZODX2mZXzRn9lDVtvOcEoVM32fnPXngAEfQ1W0NwhkSkAhkp59uAb00YnRgV0yGS1kpomeHTtoU8y8itf4BwgiUFw4iUjUh6gqRIKCWlJJsjdcdvH0wc+PzM2pMCaZbyb8cnBCwPe35u7StnYOoxDHoimQnR/KQoHJLghhn1NyXFhczf/e+wvHVEmHdJzy4LHLNtSzLdRJB4jnWSuFn/zRESwt4vFKwzYpKSkWHoNkzDitV82VNY1jxUM6gItwAu8ihrq7XIo7cVJkxKjAhs6ws71R/KHJn95cJO8om6msC1CdureYiHVQpaV2G+4N0z/QPe0V8dF/+eLB+PeGhLi9Y93hUzBsO4+154e1usn+642pYU1TaBqae9tCL1whjUYnhkiCF8HMk6GdK4uz4W3lZfXzUw7W+T3wMDQA052XTtkGZAwX9d6AJBnyMsTASEnuo1mX95j99niHrMTIrba23axSIHcUgWzase5uGe/zjhpPL5iNO5y5eAb04YmRgV0yND/lK1npy7bmpUKMmQYQ82zWcglYoggLXbcmGrB9vk42195dVzUjMWJfW67pR/vRCgaWtH7e3OfWJGe9xEwjIf+gFDXtWishhJIpvfo5B58+d6JiX38O2yWdkrqydnLUk/+SORrFVdp00v3jpw5ItyiL2ncMgWTeiS/96J1h/9ou37DXVyhiMdjQn1cjh1ZljR+SE9fq68+l1Vc7fb8T8c/WZ2et1TTKpAkgCjkgijkgoj0nFZPvBV0c7DN/nj6gKeWT4t9897IgFsymOufACe7LjApMuBsUt+g7/IU9VBU0xSn/UgfsPef5uYSLwASUAlCs+IR+KadLX6wm6tDemyIV4d0ZceGeecfy6+8XqRsGMNzrUkFQ2sYRZBfUdftgWE9NzrZdzXbvlumYIKfWre9tLppsmmuEc8VaTz4xrTBHbEgd0lNExr09tZ9ysbWsfz4ikAwV1TJAHENmnTl7o8P837nm4eGvhPdze22+pLB3YhPDl6458Xfz/wADOPNbdElqxNT0tZu/veY4cmDu3fY8gjRi3/6Vl5aO1d4fIx5KuaFabHJnzw52ux4kszcE03B3M/2/qe0unGyaCIhFWM4rtq8cMKgjiCXlXtzxw16e+t5PrmQP4TiLQx3H8duGrkgjpoJ9XT64/cnRw09unDiG53kcmuweEzkrrMvT+6bEO63FGTQwn/WRFwGiONiKpzfiHrMXHNwz6Kfjs3tqPJseH7CywCQR2/wREIQRrBia9b/yypQhpprV4e7SCk/H5vy6bbsbwCQjO4CiYzWNey/vuLR4UnzxkSetKZtdc1t8OLmk4+/sy17XfP1v0K4tgHd3SGP6RLgZUGY+4OAu48bnymfP7L3i6mPj1wSG+hZYs2ydcI4urk6NM4d2jMjNtDj1wP5laOb2/8yLG6GNyC8WBoiYnFiqwnq3ye341eUScr6lqop/YOt+h5ryuLu2JwYFZCadrLggbbrNz3p9lDif8bh2Hr9xtWkoT3N+oBbh7pIucXV7jELN6hZ1Y9wdQQemm6bSzpLH4ybnTIjbqO17UtcvnNtxqVrT3LsAiNqimYrUBSK4D6k63Zef/rFe571dbZvsna5OmEektcdfvyXs0XrNRumju41NocJ2/Zxsdt4emnS7GBPJ6uXYfPRy/EPrdhzVDh/ojzSqn9zzmezA6JDvFSm2tNhLpJC1SybvWL3Sv1H1nXQ102G2NYd51beqECPn+cmRPxmVdsaWjwTl+/8KOOijlwEgnekgXqiELAd3ylIOMzVhaMj/lWyNOmJTnK5vZD65KjvFib2WejjbHdFMA6IQ9Tt4Ln4eigb2h559Ov0/xVWNVidYSb2Cz7WP9TrW17DR9pMPSgIx9c3HF1sjj0dpmBmLt/xn9TMy8u5UlKXKwB1P3Ddp6ggj825Hz30kDXtUjS02A56a+uvpbXN99H9U9KFo9hMqjHBa3CDw1HdXLfvembM/cHujtetWaZOWBcltU1dQ978/Zx2ygFQBqsh8QAvNbCKpWG3fZztflF8NjvZ2vYrVC2yQa9sPlVa0zSAM+1BbKSycRpoY9KetzfVlg5RMFkFSr/UzMvPaDbEWnnebqySIqhc9eQoqwaIcstrXSZ+suc3DbnQ8uT8IMkFiNXmKGXgnKobhq7Z05rQy2fdhjnDZ3eSy+2PYA+n62dfmTw6IdzvO0DAEJFbYbWre+6cRkYgBoIAlI2tMxZtPPawte33dXO4+er9A98EABUnb7LjRAdpGsNuwZcHZ5lqS4comOjnftwkL62ZSY9VCMdatH81/7duXjRxcHJ8T6t9tDv9YoXHmOW7MgCgr2Bshaq2jAz7F1IuBrXT9kJCn8c/mT5wk7XK0olbh8RP976YcbnyI/qcJBBQLuS2eOwmOa774s3zx66wtu3zvzn07JrdOZ9T5yqJTX0QRmPOZ7MDo0O8JM+2trqCSTt+JVZeUjODu1ektadgelz3/1mTXHLLar2Svti/XUMuNHDcH7KFonRDS3GttD+LVkwfOLGTXO5cpC+c8PHSe/s9BQiqjSpXbqwNOy4eu0k9VfDJyj05o6xt+3sPD/3Sx83hOPWgYMxRFM7L0878yxQbrKpgFKpmNOSlTQeKlA2J9IpI/iWPa6aL/3JpxcOz3J3sbljDpvVH8vs+se7wTkAoUJ+nJOUilo7nzhkSsb/7B3p8s+dfY571dba/I8a1qFrbZTnXVP6q1uuhOddU4dVNbUF5yoZuasWtam33yLmmcme/FODMNkxdkHZdtb+Q2j8HaAx2d1SFuDvVMMBUeTnaXYvwdS0GBspGhnnnh3g4FoS4/72farUEaedKes79MXO3qvl6T8HZ1cZ6l8QWiWKY9vljI59c9ejwDda0Oz23LHDMsi1ngAFfQwxIoGdMAhe4Odmerdvwr4FS87cqwQx7ZfO7xy5eW0J1fYDiEhEV2MfV4eDp/824N9jL2SqVMj2vwn3M8p1yQMgfz4dKcNQ1WoCrbIAoE0ku2j83kmNDln7xYNy7vs4mx8RuCY4UKp2OFFYlXlTU3weAvLbISz0BoJ8M2A/CEdAVkcF70Nj9ZGqG+KtOw7JKC8PAkWnRgbUIoMrb0e7AzP7BOwcHe90xPWnp+ZV9x3y2dxswoB0zxTD0oC8Q7hG5n7qt+XvziznDhi0YF2XWmBMhpGw+8eCy1FO/GA1ES+SCF6bFTv/kydFbpaS1GsGkHb8Sef//tucAUrduxiYx0o+veGzE/Ysm90uzhj255bVOI97b/oeq9foY/U4hcuHZKc1e2vbjQ3rMXP9wfKo1ymAtFNc1uey7VBmfflUx/kRx9bCq5rY4BOCg5Udt5UCUAKCu6DwWoewzEAtjICSs04Qh0rLHbrjZd8keEeazPblf8L4BAR5HQz2cbusgeHr+Nd+krw9tUzW3DzZUWOzTtsbiLgD0RaLY67g52BakPTd+VGIf/zJr2VzX1AYj3vhtv7ykZqz4+B7J42Iu1G54pq8UL8NqBJP431+/yMgpW8CtxAJBXkrlTIgKXJ/+5rQnrGGLor6l66C3tu4trW1KEFZTIuQCeHe0kFtEBHMBbswfET5/1YzBVlmox1JsyS3ttTW37F+nSmt6ldW3JCBA7oglEtIL1JSCoagxjCwMMBwDEe7hrcmEpWfIHlN2DWsAqB0c5JnRzdU+69nh4WuGBHsprHArrI70/MreYz7b+zswEKXZoVMygOiKQArJYL+DPJzOnk6ZHu/r6tBuLZtTj17uM3PFnpPAMM6CrhxpiwiWzhryUMqseKOfOrEKwazacW7ws1+lH9F+MM3IrGi6y1Ry9v3k2Ngwb4s/Rq9oaEETP969LrukZq5wviAx7kK6QrSxPJoq9df8keGPrHpw8N+qXPIU9e5fZF56ct+lyqSq5rYRCEBGmq6mF/40L8T+ZdgtdvwOw2AyhoCOkBhGz1IM5hgx2BZ+iuGdZjgKBwjyYYBpD3J3PPjv+F4rZvYL2e/jZNch66qYi/T8ax5JX2ccUzVf781VMkgg7kIhGyHXiWGgf7Dnp1lv3b/ImjYnLd+ZsuXE1aV8OwRiRiJIiAnckv7Og0nG0llMMLnF1R4xz2/I0n93WXJA17D/hcn9HvvksRE/WGQIi2Hvbfv02BXF88KxH+CrEo5tlJnT4tMBmuePCE9eNWPwDmvYbyryFPVOP5wpfCz9imLaJWX9OAagq0zPlYjHmYB1HWqLwZILwwCSId7LxRE1DOWvQBxG+15p5/IwrPtAKhlDzJEhXCkENxktRd3UpqlKig7aMiTYc+2zw8M7/FtXUrH5bFH0Q+sO79DGZIwMvKPtA/HA8Bdzhs1YMC7Kal8lVahanPye+rYWgOkq3pUuiWTKi795IizY20XUpbV4suPqneemZOSUPS3sTlBiMFgFDfV1+W3na/e9bpERLOauPTRv+7mSd3n5Cg3pFnV5BOZMcc9rnz8yfPqqGYN3WcN+U5CnqPd7c8/5f7+47ezvp0trZlQ3t/WSAdjINLIFgUyGNPIFsWWRaYNjmr9q4pGx/9SHNelYZYNY2cP7DfhfjLiwtPhvme56bH7a28no88QFoIw9WUY8Gm1azfmOeYr6gfsuV87bcLZ4QFcZqurp5XzVvqvNrb7tHET7uysTw31/TTtfktx2/aar1niGMqBNJJYHxDZWN45cVkRMjQ353tfVwSpxKSf7rtfT5WUBRcqGOP5RMkxgFC5t128UTonrflYskUUKJre42jXm+Q15gMCfc/OoLT+1YrcVfD7HI8zH8m/+zlx9ICX1VOFSXr4cohMhEJrCEXSLNH+vfPvw0HvmDulx2VLbpaK4tsn2syP5c385X/J8Q9v1aMSqER2J6MhCt4Ww4C1OEPhtMLxPXPWGv2dC7xzDPZPb6GHvFecYGfhlGLjJqhvA3CZg1YuuX/umXggwcEOboOnePgEfpoyP/iTK17VD1mSWirTskvD7v844yvlsilmD7qgB1+Kzy5KGxoZ4XbOGrYWKetshS349qVQ19xO0DSTHYhrOrng4KLa7j+DAO4sG2j21ar/an/PnHTD2drJvdny433vWIJdVBy70Tz1d+BrVH9CD4ZIKwvbrpgCQhAKketFvX/94+oBZt5JcXt91bmy/lbuzvz119ctGDbkgsEGgVyNdkEGJ6NSK+pi6jbfRH9M+cM02exz0agYMf8GgREz5JwPsH0L662tsBO511fnYgM5+7aAaneqx0ZWDLZfu2rr9XbUqyGlnXvmywV/sK1647azRWEBHIql/cP7Syf24H5An3zNaxwdtm3MBDUK+ysgzaXCbGMJ8XdtfTRr4b04WtPddmpRxSTt+VXSdJ7MVTFaB0mPACz/V6G0R6jkSUC+hvi5/FH4+Z5pZmeN2FFcHDUjZcg4QeHDy58RYhJQUEHEXAbeKa3v9tw/Hj5k7pMcZS22XgjVHL9+zZNe5/ydDEKozQ1cxAVMsMl2oVkcQQFEpRA8S0NIAHmbR7mWAH/NlWF8dYWfQYjG80ASmXBhKzNMQj0HcQLBG6RjS38DUDKPthapcMiby+WeG9tzs42Rn2U03E4mf7l2akV+Zwgv6GusS5nW78dK0fTFn2IQF46IOW8tW97nfZKma2vqLKiwJ3JAQE7g9/Z0H7xM6braCeTf15DzDFoXtxGMX8NLU2KXm5o1j0U/H/00lF87gOYZiC7khQC7EiTNiQ9bfCnI5XKD0jvl4Z9qSXed22rDkoq7wXVjVYoOQXrHY6Fp5mY58QK8aOCoFDOpBxioFG0xt4P8MqsaggHR/dWrCRsbGcTAlxbkOGPLClYvOLq2NhF0ypFc1ehWGl5l9Fjo108Vgj9976Rc2DVuzf5dcUe/d0c+HhvSFE5ZF+btt4rvhREIGKA0ddpxkfwC7Z388+ktuWa27tWx9ZGTvj/kKHYh6YFzIZOSUBYsdN4tg0nNKvX7JvPwGxxAQr5gasIzo42q/b8HEGNHgkDHUNbdB4gc73sm4eG2JcN68uAn3AMc1EnjI+ugl3Ezo5fvS1zOHLLTEbmM4V1HnO/SLvd9OW3+ovLy+ZboNa7qNvoIjvWqxAV1F1LpCOm7UuRoyzEXiuCVYBcfdFxni/uO4QBSyQARh4QSiJSQuYeny5ueDOO6VDTK4WTaIPEdNKowhHUs8Nqyyu1bfOmnQ53uLkzdmvtqRz0kIGx4foX4/SvnvGu23CLEAT3H7vv7rqWetZed7Dw/90cfV/gA9T5pxgui3/oB8gNBBswhm1Y5zCwDAVdgIJLBbs7921ZOjnzYnXxx7cssTMy5eo/Q+IfoDQojLyiTxkCRJ/E7o5ftz+oLxH7k72FpquiA+z8yfNer/7T9ySdkwVwaoqwyrXEjX0gO31bcBbgwEEXEUwGIjusquUR5AxE/wdMBXNAhLTDuGMJUkQ1wRiRMJVbkQKkpPdljcxgYLYssAU2RgiB/ZsD1VNggctuVV/K/n8h0bMgqUMR32wCiIDfKs3Dxv1GRAoKB2IIg1eEB/93TYcrb4tdSTBfQJuybC3cmOWfXU6Oesca3tpwofEDpmFsGcvFypDaoJBqhYUNj58YSID5Lje1r0OY7cslqX/1v/5xf663IeJCPcQgAmTzl9ILqfdBXk42L358qkQVYLtJE4V1HnM2L1vtQ3d5/7SQaol05xaNUHMigVjjrAVANWQTnuBhjcFtzlMSgCxElj+EcoGprCAfJahOtDkA6pXAxuHOJ0hdsg/BrsfcBssuGoJjWpYGqGDQBrZmICQHl9yyOT1mUcXHZAPrOuxWqDYo0ieUDo+aX39tN+DZRUCMBTJlijxwgocD0cZ64+sL2wqsHDKnYO6yV3c7KT8z0QAW9AAL9kXn5IoaJ/xdhkglnw5cG5RYoGgyTi3RARaQjQkjIj7nNT88RRWNXgM+bDHbtVLdejBVUSfyf3J+0Bk0nZv6FeTidyXpkyMTbQw+pfkCyqbbJ776B8wZRvDx2XV9bP0MVTdC6PjEcitH2G8Syc3iJdpSTSc9QJaOM2epVEui40YtBt4+fht1Qg3sIhQF5ZkN7VAVy9EKrIRmZQPzpFZwNcN0pPSKDvmfJ+7+CFTePXHfojw4LV8U3FosQ+qQnhfusAxN45MsiBBNQ0Hk+E4JS0s1aZUqOxc3I/Q6iDCkksE56RUzacdsAkgsktrnZcvfP8SrodOkOEAqoAUcEem8J8XC36YPuHO89PVza0DeOzLnDzJXuFgKZ2cLeJ2sK0fTg1dq6vs73FXekkylTNMOPHzE3/O3jhi8a2v7qT8Qu9qtANkMPUBqfS6lwIoqJyKjgQKgav5OrfMr7q4AzGw20xDH4zEACZXkdwgLtuXDJBmCpCnBgO0rs9wOnKNqgdPB4D2H2xAcO5XfT3Qvs755rqvnHrDp1/64Dc6uuu0ODuaHv9h8eGz/Nxtj9ueA8ZemOHBEIKeDrs73d/5r+ZW1brbA0750/q+xsglMvPE3FtNIKjFyt60/abRDDsYjNu3DgG8Gs31b+EpncfGvqhKfmRSD1ZMGjNwQtvaTaoPWjEk6ARihi4xHTjiwfj7psZG3rBEptp+ONCecLINQcOX1TWT++CuyRE/EJbcRhOD5Bu8Jyh0iL96FxO3ENfHMP1gYiL6HuYgAhPSRn3AvwAsEHxICxvxA1/Ye4RYu+1DIBDRnjMCTDlBIhLjDIi7qQlWoYbw8H+dgFw+Twzf9NbB+QWD4+QgmAPJ1gyKQYLNktwPUhVTVPkCNwW/JD5tjVs9HVzgKUz4lby8jcRP6ZffIy23ySCOZlfqX0wDFB8SiH3RIv43n6fJw3ublFlnbnmwBYA5M9THTxXh+LL8tKJRPY1QV2/rxeM7L3PEntpeHln9r2P/HTsj6rmtpE2WO+JDe7u6IKaRI8Qwo6Tw/upXcAyblexrguY7EbmBWMxYkJENzStKxrJBFwpjORkRHBXhnWt44Ffri3cAXr6sgEZB2L0ykVPTKDr1kb67nj1v4a2v/yXHZD/vvLIJcGxG9bEojGR6T4udnsM7x7DVSw85UwB4jeQGRevPVdS02QmHXAxKTYkFUD38TmBimMk3qqsbxmTnlPajdwvmWBSj+T3l5fUDAGeDUIG6X5qfvz1v4eHfi81LxoWbTz2DAAEGk2I3yREUTJ0+7BzNXGXg+sfGfqKJfaSqGtpR5PWZXy0+ujlbQgYly5Yq8tphQEnFeD0CNHSc1UPVulJ9Y3tx10khCkhXFno7JBhfxFGHPiIXVqgmHR9EBHcNbhDXFcJIW5eOpVlQygWBAQRceIw6vTaoXq6rnF94FzrMsn+s/PcprFrM95TNrVZpZKKYfOTo/8FgBTcCsz+1Stx/D1E/AaQ/9Pm0a/SP7WGfcN6d1MlRAeu5eVBdp4YAW1Ur2SCWbzu8H8BwIFnBBVcY3zc7PcnRgWarV5yy2pdPt2b+z7/IeBqRCBoS9olpGwwovlw6oBlYZ7Okhc2loKZPx39OLOw+kV1fbCh9eaw5ZARPUb6eIeeNBCvgiEy5oFXVtqgN7WSkSFObIPjTpExEZpbZPQfEdMhbcPyBKI3Cicpfu8UcBUd0aVtw8Zd9N3W2NQDG246x4wC5WvP/XH2BWs+ZxoSw/0KkgeE/EZ9+RAQNxfbT0uLq5i8a89tPnE1yho2zp8Us57IiJ+5ESrOKlCOIfd1kZL5+gPyQaXVjfT5HjyfEXi+5pKkQR9IyUcIr/966iMA4I9iFH0YBAEBw0/Ik30IkmNDlkyM6HbIEntxZFfUuT/xy8mvLyrqZ9hgPRwIG9Ohs8IGMdh4F8IForyLujLwPEa2QumLyBgqPn4P8GPYLdBfz9CRr0lQ5mLXpSjcx/UKAqgaGKRZDKoRAJoAQNMHzACjfp8cAcDldEmNJwATUNtyPeBKdUNPBCiEFUOGOQe6cY4I6acDcB8X4qXVkjCjGYEv04zER5qlJoC9lzcZ3X3TDtOXIQZuMNrubM1JSKtq1NdTq8jUnNIPFWszQn6eFb/Y18muw9YMXjq535I9eRUjVc3tMQDYe0muzEWCvBfAfTgbj11ZMnNIjzmW2jexX/BpN0e746qmtqHc/BHl+050ZOSUTVCommW+bo76+yiJYLIKqqbo0/LcDZJZuUzn4+qwb25CxEEp+dCQerIgeMvZ4pkcMhHzBymkwf2IOd6vCpzf/QM9vts8d+T/zLWVhLKpreukdYfS69uu98fHrdhgA9pkbN42uGvEGob3pAAexNW1/JzZ1HxXCDBVAsAtvh4ybnq1O+ts1+Vcbx/XowODvbJ6eDpnuTva5g0K8jJtxvIw7uZFRb1jSV3TgOyymn6XFPXDT5XWxDMIeiF27pGW6JB+nhJiVxRH+udpWBH4JhiIB7GVT715kyUPzdvNIM22jCUVnGQYneRnNErHJqNAufChn49d//2RYS911EDKaH/32kVjIl9atuPcTgOpMFwCAQMJ8sdrsUBgWNQKAWw5U3RPblmtW3Sgh8mfdcXh7mQHcxP77Pp0R/ZQcr0ffb66ncJE45eRUzYseUT4Ef1pUiY7+j729RllfcsATkbk24rICqw9sHnRxAeSh/X83ZxCK+pbbP0WbrwIAGHUwBgvP4brvwrZyCuD5o62H3x2XO/EXn5F5thKIqNA2X3SukPHZQh8bNgxGQjwwW5ayQ7YkH89uVDiEDoikgHiFE+9n6HEXQBzQ4DgXVzhsNsXx4b7/zAuvNu6cb39K6xRfqnYnFU46MvM/P/WtrTdxzDQhTvXzkA+N0H3bjP6eXj6SZDkREkG4Ab796Z+0SotyQA7QfIvRrt68A2G0fxWX7+Pr+t3uc9PnNuR5R328a7fjxUok6jLNegnSAosTCWwKFSQu+PmkhUPW/wF1FW7zw9/9ptDRyyZAPnxEyNnLcY+02M0BrNqR/YIPbloQPETqYJCY4giKtjD7J6YlzeffFZLLpSDtOaY7FXS/Gb4+xjyOGqdPzL8GWuRS66i3n/mxqM7EGjJRR9fQYagqT74iPecAEYu2PB+fBuIWAientMFrFsak+gWZseZtPT2cT08rne3d9+c1G/osUWT+7w3ZcC7t5pc1JgZG3Z6//wJ939w36Be06KD/tPL23kvQqBCwA34yoCI3WBuJDf4i1h3yXCeTD94UfvgEdIRPsPGaLTXzFPUP74yMz+hI8s7Z3D3NQCoDXQqCuiDykXdfiJBaW3TjPV/XupvqW1TBoQe93F1yOflLaWni8XWkwUc7WpUwaCkz9RyZzgnM56SoKuLGfG9Pkh9YaLZk858n9+QrWxo7UdTRhrIhJQMcNUJQrQmXJ8uoZffV+nPjn/GXDtxZBQo/cevzThpg1Cgdtg6ow84yrBeDsS+8JxeE16FwseQGFwdGdkzROkpMjwahN+OVj9n+58Wjo5cOq63f4k1ytsRuFLV4PHsr8ffr6hvncewHqJezbALhHPUDatQbmJrPd1kW/gbQBxnGM0+fLkH3TarZFo2z4oflhwTlN1R5Yt+54/v5dfqHuWtVQFCyzkIqBjsd0Kfbj+mvzrlUUttW/zdn/NWbMv+hr/WhmQVU8ikPd9dtyGqYNKOX4nikgvwiUQQ6MaUgSEbjSQSxIIfMudqyEWfMUEelFCLgB3af4KtBGqeO6SHVb68WNfS7vDghszf1eTShW2h8NnPeAusi6vgLTNOLkDEThDeDQt8cuESlS4/bZoAN4cL43p3W7FmxtA+W58a++TtTC5q9PR2qd35zPhn3rq3f3QfX9etCFhFA4awha5sQHR9I8491JE6w1GECPBFrQzd9mxszGHmz8d2ZlXUeXVU+d6dGvuZWjUb9ghKdMNv/ftLURNIsy7SAEV9i8VriM4bG7XZ8E1rY3WcirC041eCdBuiBJNVUHU/dw8lQ6qLgiDIy2nf3IQ+58yxcPOJq91WH7jwJfeaYmdQCAgowVwAwq1CEB/m/ebcIT0OmGMniQc2Hl3e2PbXUN2L3oWYpMcJ4uKyHwnEYPBZxoQqIbt0AScwQ/fy5UcGdk/6dtbw6PemDFw8MMjLKi7grcK0mOCLmx4fPf372SNCPZ3sTiNelzl/RjZndC+HvLUnythua8DmfSFsagFoK4X/xG8Pf91R5UrqH3wqvrv3Ls67SfEAjLsmhp2qluvR72/LtniEcnSwZ0NUkOd20XyN8E5WQZXeTTKmYCKMXxQLlmKYNybyJ3EzhJF5WfEYABgJ5xOkIgWEm+Tm0PX4lqdGW2Ww0qyfjy08XKjULEVoA9zRrEC6O2QQl3BzcOIhYysy4qVDYFA2uiJ6ONiVJfTyW/nD7JEjFiZEbvFwtDNv2cLbBP0CPFQb5owc/lBs6DOu9l0L8BgM4EpG5xLq2xCEKRdWNbL79c9FN0Nb78pqz1Q2td2f+E3GGx1VpoHBnsKqGes5w3YSafi7fzx6+bW65raulto2oV+QnF/fpTT0WhQq6vXxIEGCySpQumYXVM2k5UEH5x1uT4wO2GncFD4U9S1d1v+Z/xQnP9KtwWMo1MFzxgcFqc9Luafvx77O9hZ/b+eJX08++ktO6UoZIFkXjFhk5AAyIEbm4mpEiHiA6xIgzjB6RJLPX/dFB77w82Ojenw4ddALvX1cb8sPl5mDADfH9iUT+n61+fHRkUNCvN9BCG4KETY5udIQECeWnsBWxtOqTHwhK4CMQuVbK4/kj+iI8qyaOeTnUE/nfXq/T+idJV8GEG5UlQ2tg1fuyZ1qqW1hvq7Yp2EIYpHQVKXnlOrDKoIE89WeHLV7RF/cFNHUg8GQqCCP3YlRgWa93M/+kPmKqrk9XDBPPMiEKyfB+Awl+IsAfJztDz8yKOwXc2zEseLIpaTvzxattsF8ed2yloCtU2LI2uAmcT6ChrlJnEmCAkqGU2EQgkFBnp+/N2VA3zcn9l/p4Wh36xY/ucUIcHNs+2bWsDden9B3DAIoQYRawe8X4DPHsbWMDS6m9j2ywaYt2GAjm9XnvJeR98PR4mrPjijL3Pien2lNR4beTg4oqkFIWbC/0/MqZltq1yMjex9Rt/XUg6TrRkGRomFASZV2dRNBgtlxujCJf2URYIcn9A3aIp6YjvS8Cu/Uk4WvcOIl1HyM+aaUrmkCSyZEv+HrbG+R65BVUef2waGLHyIAZ6SbXMfWfBlgLz4yxFM4QVp9i0t2vdIUDD+kxLbeigf7hzyzJjn++XG9/fMsKc+dhIcGhB16+97YGRqSIV1KQtUA0X1teOkNEyP1yhCwgLDWVer+2p7z73dEGRYl9tnBeaLUbmiBgW28hlS7nVVcTV02wRT4ujm0RQV5/i5IZpRB8QTcj1281gOECOZoXoV7kaJhInldygYl/oJuPD0+ylyCUbOvC//6QMkT30b837hjTpwXH+a9f1FCnwxzbNShRNUMc1JPfK9sagu30QcOGc4LbIMNqpMRg+E44zoQ0dWMjXEhYzeGtVIQeDranf7psVEDXx4bc1t8D/tWY3rf4BM/zBkZOzjEawvnHpEzrzGXVAO8R043lECvgQyKRlfnMwqqHlt17PIQa9vv7mh7w8fZjv1SAGV9aP07LO4x4PtVze0x1pifNG9c5AZezystZCEMzdKeVIIprW5MYOeUUCDe6Ls52mZHB3lWSTKBQNqZoniqnympJ4k9Ti4lQW4igEl9Aj4yxz4c7x+6+OIFRf00/QJMnOUJDD0VQFMh2NgULh8inkoBIM5hT4oL8lz/+QNDEnt4uZRZWpY7Gf0DPGpeHhf9lKej7X5E1ksAjoIEfAY6fowSK0NgWAcYAdi9vjf3o45YdvORuO4b6HJECMbT7ThX8qClds0ZFXEEEFRbYIemk4ZKMKlH8vsJXo9W2bGaEBvmbdYLn55XEZRdXG3kA1pIuBtPf5w0ivs7qptbWso9fS361Gv6VWXvNcevvAyUYC7SEwvixFkQQSIyTNLL8BGqWG8Roi13ANCe3D/kXyn39H+i99/8RcPbBX183ao2PT56Ui8f590cokbc/gAO0euWgADgjA7WLU1hg7izvVWt10dtyC62eDg+iadH9NqkmTBKrU+0SmzEq0cIdmSXzLDULl83h5tRQZ65fA9FGlKP5GuWVuERTF1TG6RmXpYwO5OeaZiPS6bJ1gDA+j8vPQKA7CVkIeWgIQkhB14aG7ncHPt0ULdic387uRIB+BpaOu6LqpfciLvmCnemNM6Rhq5VvFSGqQH6udGNTw/rPfnlsTFf+rk4WFKMuw7dXBxu/G/KwNmejrbH+Y+dG/vS70fa0cAy8vlpyIXhqh0E8PXJAquvhBft714X5e8mPKSDdb2x3gA6AWE/lQ2t/VKt4Cb5uDnU8/mMnicJhaqF7iKlHb8yAgB6cy8iXb4lDe6eKjGxHrlltbbf/Zn/IjdP3W9cseDHGf5x2vmcG4Jy5w7paRYB6rD+bNGDRXXN9wK29gjwuqIRpmS4rhMCPPCo22Y4SoXrOmmv5eFou3vDnJEhTw8L32+J/Xcz+vi5VWc8Nyk+0M1hB+J9ScFA4nj8SzuiWuc+MfrnibBZ78D+zb6memTmT0epS0NaglUzB/8XgPDvcCBEj9FwE3G2csvqBltqV2yo9z4zxIsGGbllmu59HsGcyK8UWRRZJLahRWnS4O5XTDVGXlY7Qa3KhEmCBUPJnByLRHsA7O8XEiNSTLWNxHvpeS/KcNLAW0nihso48QADEXK6nfE5z9gkRZ08Z4/kfzQtbk5vX9daS+3/J+CdybHPIQT6ofi6Ln0bgtxlGInrSEi3coIMO1eGiYbU86XLcyvrrbqmQ2J4t0oAxB2PRXX1sX341AHeO49g7aGLkyy1K9zf7bz+umRDbpx4eihUzTIewWw8dHGK4CnUixp2JkQFbDBuNh+r9pMrvQsQGY80kADrI56rGurplPFJ0iCLxr1Ef7r7U2Vzm2YYNP7S6dbWZVhSsNEP+Wc46kVGqBkAbvezjFM0bSVwse+a++OcUbH9AjzMCpz/EzE4xPvqy2Oj7tXHUIh7ytmPdLRieAY2mHLUzX5nDETlm5pT8m9r2xzq6bSDegAZ+dQsbcEqBFBa0zQjq7ja1RKbRkR0OwYAfwmHfURZpqu8pCaYRzCqpvZBRq9DUxoIwbS4sD3GzeZCUd8iy7h47QkAiqtDg3RvjeOjTo4O/MFU23CkX1WGyxUNzxsujxEJtjYtwohG39WJBXAZ4L7k+OA5wEacsumvPzww7KkIX8s+9fJPxKNxPdMB4AzClaSORAivGxETRxlAHBcJP0e9lZpTJvipVHMxOTrwsN4issEUUjOksuCGFroeya+0qGs9truP+r2jTBuQBoWqxZ+zol36+VJn/rq7Rq5uGHSjmjOqd7qpRmw8emUqzz3S5y8gDyk/Dd+coaufl8dGWrTo+PozhbN1l7MBbtem9qVksEAh0psk4/pRXAIB7qAlQ1IErvZdSj+aFjdsULBXqSV2WxOVDS2ycxW1gysbWyKuVjdENrb/FdTU9le3q9UN7oDAjh2j1urr4lDn52J/zc/Z/oqfi0N+D0+XE/38PfKd7SyeJmMS0uYljnz0xyOn69uuR2qCtox2NTyGNRTYpTVljGG9J03DwKqCG+yT1UyQZJBmCQgGAcgV9XNSz5d+kNw3yGqftJnYx3/rmsOXsA4ICWNAqQFYw2p5e3PKJi0YF2XRlzGSh/Xan5p5md+rLAHykpoQDsGcuaqYKO1UfiX3cbWX+7o6mLym6dcZeVMEr00FuYis8fOCPJz2hXk6XzfVNh1KVM0+350tXABY16XM0NZx5hJpyYPBJiXiC0JhI3yxcS34CFQ2j5v39An87+1ALoevVg4tqmvsuTuvbEpVU9s9gEA7bB5fVpG49YqGFlA0tsB53Q5tmqujuvutGdXdL6ePr9tuHwtHUUtBL2+Xlkfjur+96siljdoHoyUWDfGrCQQZVqdEbAQGsWr0JksyMmxJWt1vBsBm8Y6slOS+QVbrth7ew+cSABSpvSXD3CRs6UzEUNYnFkfm5cphltoV5OV8jPOcyaU8xe3x5RDM2n2mfpDK8GZFBXmaJePlZXXTJEkwnFR4LzVNOho2Xx0f9Zo5tulwz7eHVwKANy5GZEQcBhEKBChhIt42EfBlyeXG+Aj/p14ZF/OdJTZbgnPlNQHbLpQ+eaaselZT21/RnEKSEHp25DNioMfhgsrlh69Wqreu9fX3WL9gRJ/loR7ONdYvgQHT+wanrTly6eJNBBGGKWwIGDXZYHVENx0Iry82xDrbgNWn0vrWmelXlUsSe/iY3KlBg6+LPSSE+6Zm5Ff+R7surwQiQZQFwbGDyobWuNyyWsfoQA+zXexhvf2OrxDMV9zGrAKlnz4GU6iot5WX1Ah/jMp4FNlkuZhbVusKAH4cw+nXxvZTZp2KnBfq6XRwwcjep0y1TYe03LIoubL+EcC+NIhY3wafrEgueEQjFYOJxELb2K0dFOy5+v37Bq43115z0dh23eHH01eeeHnbqa9f2XG68HBB5dsacgFsvVjyZWIox8iaSJ9H0+18Re2rz/xytPylP059m1mo6NNR5Qp0c2z5aPqgZASg0n/BAX+VET4GyfCgDAF3bVe2DeW1Sy9Q8OOVFiB5QGgq9SUWCh9Q7y0nsZ28rHakJTYlRAWqVZVZHQx1TW3d9ARzIr8yEgD4q3jp7BWZ7Kn+mxgVcN5UA9ZmXLyHeyH82ohyCBk5zk87OSrA7FX11NhzpXI8vm1DDJbjd1lzB3XJMHtx5YJbiZHS5VfGxlj1g29S8Pv5ovCnNh/ZseHs1XXnr9U+BQx05bEiotxrcj/ZsiEiLXFNBGB3/lrt3GV7ss9+efQi76Nd1sKkPgHnB4d4fQ/4tADgj4vRkwtlwLj+HOz5peaUWnXg3bS+QSf0mVJBUepC2+zvkpomN0ts8nXThGQvc5iZzFTYA/HQv//ykpqBgsYCpbnFwWhG8OaYYrgau3NKZ1BfXBJGpoeL6bSZA0L/MNUuHRSNrTYbs0ue1t1EvJFGiFuP8BG5nCVq8G8fYQ8J8ToLUPuXM+On9/R2sfqH9oVw+Gplz7f2Zq386tilXFXr9UTNTnINVqAoFYZQKKRcxv8iPC3DS8PeO/vfzhdv/c8fp9YU1Tb6dURZp8cE/ar7TbqquvdLBtzvVBkUKnucGBMjV9RPyq2st6grGEewhxNoPuGqWw8XiKkvZlSDY1cUFo/oTYgObJUa98FRqKh31xNMek4pt+uNNmlQd4BHPkhNMJdMyTy3rLarvKxuKi9P0ZtobN46b/Z0c2Ivv0pT7MLxfsbFe1Ut2g9l6UjEBs8VH37OcF0iwGQ2Q7pLuFvF7o8L9lw7KNhLbq6tpmKbvGTQe/vPXThaqFwIAF05BAEiagUIMtGBHwJg/yDuDSBVkeFe2pyvqP3XazvO/FpU2+hstYKyGN3T708EUEG6SDSlogv66qZ8YKfoVQz7x3vtqQKLF3gicMnwEkkIwlDuJ47UEwXWWTALEX+Nsp1mXRg3PcFkFSjj+EnE/CIOSmPDvE3y005eVQ4FBMTcIxGjOQXEH7LwQ+gf6GG2elHjx6yit3QPDuEDrnStG0kcnLuD9P8buqYR9e652He98mJi1H8tsVUq6lra4eOMnPdWZeZl6ImF5tIARYGQ+4FOGPh1GIbSIJFKBzte1dQ6YtGWk0ezy2u6W1xYDJ6OdjdmDQhbApz4GNEwgOFh4mNi+KO2DU/3x6yip61pZ0K4HxtqEGptiUaUvJdkWoD4QmWDpYuBV/Hyk7DmEgA46wlG1dQeKWCgFOS4O9EXvxPCCTWhMRLcH6E1MDj76N+cTuobtNskozAoGluRsqltAGAEgi/LaMgdGV5WZBixy5lLpE/MUJdsuLdP4AcRvm4d2psCWnLp8tzvx7/dl1/xGgA4cdwcREotgljEGlRdeqHjQsFe7LiOiNUk3tR2PeaDAzmr61raRdeMNhVPxff6AQDVAt5OUTwPG4oSxaZtcKaDKJvaRqdfVfI/a2wmfJztWE+AsIpC3txnJVCPELgUVjUGWGiWgmeHDuIiyxG/V+6EYUZgSJAc39Pk+EtmfuVQCQZK66oj7GFv9o3EXn5mrQusxsbs4vF45E/XhclbvAhXKQxhFqaw8BYTuPK8+v5+wWnm2ikV58prnF/feWZXVVPrXKorRMZVcHCCTwQZkfEWEkKqiKKC9EoPaZTMPa9uP73W0nLj6ObqcGNIsNdmRNiF2Mz5XoZ2bAzDjm3SxmS0KWTc06OtZWO0v/tFrmEESCWp/01RFOzvrOLqCEtsig3zLudd1GhcVAMtwaSfL/UwPVtD6Xxc7XNNPTu7uGagIIlxXjyy1hobwcja5Gx3MDHc75qpdumQJi9/QPfQdC8kL5YC3METCCc74vtGxCE9xkf4Px/h66Y0104pyCxU9Hhlx+kzV6sbxukLRAZocZDKhqZeaDIdRJSO2LOmPk+AK9UNc7PLa3pKK6U0jA3vth1fskHj9pLDCBDeKGCLU7ED8RBRudILFL7Wsi820OMy9yURCe5yyITdoDzPupZ2i+6hu5MdP/xBcW8psNPcuzNXFUNFkyEaaxl+J0YFmrMWLHftUJ7bY6QlNYI5g7tb1D2dUaBMwiU0r3cBsFYNtEsucMkHOHEaICbdqX94Otju+XDqIIvsNAZlY6vtZ39e+AUYCDcYoC+IFkK9P0Bsi7k6JCnRzgUKoTB88akfgIgA3t57bp15Jaejj5+WzMlnBYC7s9wFqxiCbGR4HwhCkF6gHG4t+9wdbQs0P2jvOqkaBImcIMALFT0sNItPMJIEDHTVEMyxi9f6SsuHofuCAMXSzteC+gU6iTeLksDwG9O4w8K8RZb7E0dablkvtaIG4A5mQsTLCJz6gjgWaesaw61bhCyfOSCsQ0frXqlu8H4u7fgWVWv7AMIww2/8efJ9BMMxGtnT5LpQWrFzgE92urupam0f/dlhufAAUBPhYtflPAJoI/frXzXiGSGC/RClcHUt1yXWH+OIDfSoBYBGw/0gPt9Kb+NFoHlpLYrBuDvaqqQyCgHtcg1HL16j9CBRQL6cWlyP7+1XbkquGXkVBslGJyzKfpEC0g+ZvbBU1rW6RPLauKeAWPLQLxKlqw7sW6qvqwhRzdNtDwr2+tNcG6VgU9bVl1Wt7fdQMwfiHgsRPJ0EKvv5e6wd1cNv6agefu95O9lvAwRtguQEAgQmkJ6rAgH+kJf+PynllYI+fm5NAHAeb7sQTv4McBYAB+yLnLjZhsYGQXZFnVmTAWlwd9QsNVOoNwYZWcFOOLirh7K+xd8Sm2LDvBvJawpmxoVMMxeptLqRPlSbVzOoBawN9jJt2EJuWR09KEaT1mL20KA973LygFCz109Jv6ocxL+kzk3ijqJjMFdJu8FQu6MNp2h/eTrY/hoX7GWS8jMFmYWKmMNXFf/iGCBWucltfsyltm83j/QJvQPeHRzsfdrdgbvm0pXqBs+0nKL/7LtUMQcQBBsdJwMCAV9sH8ZvgdcaWty6uTiopJTdGAaHeMlPFFXF4YXjSCc275uYoeStI+Yt+WWV1znHBrhba41kdYMdI/rCk6pG1yN7k+EeBwbk5XU+Ftpj7lymmzKFqlltnvhcENGeHMbkVdbkZbUx/L0CcysY0Y5+zunavwgSevmdNNUmAhH4ZRFFSHEbZsocFyw92Yir/3t1fMxSC20UhLKxFX12+MIPmk/AiJEyLfZCKhbty1u6ZGy/oR/eF/fAhN4BPHJRo6eXS82LCTFLvn94VB83e9tM/flAuYmIKgk5RKOJfSDQ9+7suVhu8QptmK1yjtIEhhNn0c01A+B/agYIdcraK6trbe9lLfuSB4ZeE29NkbCypyl/BrwtNAn7UD99SIgAbsrkJTV+Rr8DLXpBZHKromhoMf4waBKQETEGqxhhnk4mz4vCUddyvQtpC2IzQQzFNycCNXwq5NrsYtf13ISIAJN73qTiWJFylqq1PZaqSsigK36Mkj7E3enIB1MGjRzVwy9fSt4+zvbNC0dGLgYE1zg9VUKxFzJvhozDaDeuVNdbvPSADp6OtsVC9dKwgy73qB1vCCC9QBlkLfuAYbAxUZTuZ25iKbstmo+kWdUOsPpnpK3Hz5PVNbUJjJg07tup0T/Uy2T5lJF3LYJ6MYE6Sz1OkxUsYoPczZ49DZrFnet6ktnggVqkd46ARzUG/xxxFAvesIzp5WfRCGMxVDa0uK/OzFup30FXJIZtsnJj8HOxP/DBlLhx/QI8i0yxYViY7/ElY/uN1cyrEXLFyJoq0EOoHQqAILu81mofPovwdS3mmIPFyrjPkivxEOdLD2SBINRa9gFALZDXZ7huj0lA4JR64qol6whfx00RVE98tMiyCqr4k8ukyGoWpo7gZRFKvZgoaP4HZhS2PzbQ0+w5PUeLq1y1PUh4zrTWDGEtLBI2DfhNXoCbo9njc4xh7Yn8ZwGBL89c2jgWsjeJ+y9/2aQBj7g72PJ6XKRgVA+/CyEeTsd4NpB5kdvAfdS6e9zU/leYOXbQ4GrftRow8ucA4dSB9F3mtFi3wZUCyFXUWxrnwDNoIndQMjZ2De5fy1SMoGDn5cdFi0yzXOUtRKGyQW2KN9Ug3lPEb6wQGZFBLWgK83QyqVcLR6lK477JeHxGeemBOAacess9jvcwBrg6WBojEsThgsqn9Bs0lSBEKsTx2QN6LA31cDZ7oiho12I5So3rkG4T6T4xxGPV/rbacHz1OyLcGBjUCs82IJ41dkzZ2GbGYFUhG+Av44l0L6QRsjHYKPClVkmQcZ4Xn7yEqmeLTKFq5isYQWFhUoCHisKqRrVC6EKNp5AGk44uFTxlcz7My9lEDWnA0eLq7vilGU5ji79dfNVChjYEjjWP7OF71lz7xHChss5Low7xF0HMKCAquuHY5UkRgb9bak8PT5dj1PxoioWmbgBbEF39zlgP1w0Zk78IYC2MwTTKeQisNwMcGSEYjHXF03BgiYtk/N7Tb2CDTF5SY0LLYCG7aIExqUgAyzg7csGmSejlKykYKYRSVQuPcA0CymAIw3CbXbIHnxFuWU57OtpZ/yPHAHDgcsUsagAVBO4xQwk8AMD48ICffZztWy21p1+AR4XgQSFlQOxn2PuOOD0Z1gJXrfCbDIaqSBmi25o9x96KholP8jSvGlpC0HacfCU23/27e6vUBTFN2on15EiDlmBwF4jTwiIiL2KDWjhD1M3X2d4igtG4bwJA+EvIWTGKjMtQ/Hv2lAkR/icstE8Q2y6UPsqPKVAkLe/xcZ/DkGDv7VYy6QY1vkNmTVNcjOGesScprGQTGCoM4otkoqEw9huDNRUWFtgkfUyJ4Bt5wwJ7uO6VtImO4O5kpyEY04I/losY7bcrhGQ7b/FikzMuMdcwFnSpy+k5YB86T6qSzS/QtjtkUakr1fUuwECczlbSVMH4C2kogpsBbo7Z1rGpgR9rIxUVGYcRUFx+Lg4F1rCJhbNWlVKeF0P3LAEzi+5VmsMCgnDk56r7ifg2S4OEuA4dhcoGR2qmxvOuUxOM1Zb8kwgt09NcILKuclpcaXcyeUBIk4X28QlQCDyZIpIMtC/HhAj/DiGYq9WNsZqlTIRqBakehAOtVT29rLNs59XqhuG8fHT3jGxgSCVDqNf+/h5HrGGTGhcVKu3QeYktMdc15sRdcDPN/iwOBZ5C+YvZZgRmP9NCZQNd1Ru5fe5OdmWyjJwyab4jp8WxiKyFT+ZFRSkyxyphIFGwjjkSdAf1t0DibSCSdcjSDJWNLdqudVqgXERk8faR4QULoGhsHUoPKjP8AC/NHv1+BL19Xa3mWja0/qWNszEM5XYYIi68UC65cgL3ZGuupYyFLYwoFiGS5EssS6YxuBCZCuXBQWx3nxqZZmUzEkIBQUqCDHm5qZ/raxe4KHtpSubGKoh1YXhRcOXEaOem6O8pokW8aKN4DcnYwHBdB9gMmpeSNIlWuWlqhrvP60o1KYlNR1Fto925itr+PDtwG4VImhcrYmBIiI9FXyjEUVbf3EuKJmCwJVJ1Bxhh+rXKPCk1Us8WB3CsQUSrIVld63EjoY9/g7n21DW1EUNZjIQCDKiQ6V0CSaBeydSXsV3UKFoMhjbJ0rhd5qKeagfmDiHSFoYbj2GI44j725JgmxhsBIlFrMHgKwhZmaqZMlfMNKw8LH8egF0mgNZAkIFfMi7ECW6g4m4uDlZzQcpVLdr1Udj3ivu86IrBWBsX5etqzYbDD4ASp9JBKEiPg3tOva+rg9nGZBVWeVPtMAIfV4dKGRgWyhcyDgO1xPxvKYmDz6T4ZQUJRKx0Js2PMIZKjk3srFqtqscyYUlF50UxiDAfW8eDwfiKMdYFaS4YaOBFIKnxD4FYF5Zm+4WSxywx5fecovF5laoP9XmTz5e0E4Rltvq+PTqox7OW2EPiZEn1QP3FMdMY2vtHRHGFvDlfJzvhLnkTUNfcrr5oT87FxV5uhhFolDmnmr02Egt/zjUlIjrEs4hOMGLgyW7GpG5uHxd7PsHoWn9ea4r7emKls3wAoA7JfYNK9XlSKwBDbHM3qC0dwxkn42IdS7lwc7Ct5JmDKC4JUNQDgXMVtY9eqKwza/KesrHVaVNWwcscW8QqLu2GYX/dHbqevici0Gpzty5XNaib8t6CoSiGUKECjEIWy8fJ3ioEk1VWq3Z1Ma+A8pA476WE7yUBWLqgvB89f9FW/aaPq8M1kdZUoiRAyCU9t0yymxQd5HFdE4egyTzeyyYl+ELRsJbhMjUP9vo3aTFI7KWkmsH9zGeHfFgs1MPpIueNp8VjkEDsg/zNgOvKw/J3G9uum6S2rlQ3BD+XdvyQquX6BKq7Q5IdGZAmbFH/vC8q+HUfZ+uNYattbu+nG9XKEO8c2YYw7ILfNI7h3kYGon1dCq1kImXSpEigSmhYB7Y7oY+/peRnapxVjcLoEC/NXCTj/eNGKq+yvtXUtTAKzSYEKZxjAaK0M20b8Cy49Zb12zkVgf8Wcl5A7NiVqoZw61utGZZfzBljQyoWMX1PQXFd02OvbD+1+Vx5TaCxvOta2tVu0bRXtp9KU7W2D6Re25g7RIm9ONl2kT86qKfZn56hoVzV7C/UAjNEo2F4rmQDoguo6RV2W5iH01Vr2JeeX9mLb5uYRBE4xt1t0diwQmWDLd7ISvEWooI9zwA7JPmmUQtpLQ2GkppGUxcVtnQwXIch2s9NfT8EXxbyJdOHCfHbxfOiDN2hV6obKd+fshzOdl1hVA+/n3jPhxZAxY+R6TBcrW588JXtp4/+eObKRKF8z1XU+r+1J+uHr45d2tLU9tdAKmmRcR4hYiPsuz8mZLFQvuZia27JKCAFHu2e4d+hYcj59Iy20ujibAiKwjyczJp1TkLR2BpuMEIMNFedf1iNqAB3i+pbkbIh2NQYRPT/Z+874Ksotv/PBknPTb0J6YWaAgmd0JLQpAlRCCgWQJ48BQui8hSfEvRv+YEoPsGuYEGRgAJSFBASaSEkECAJJiEhDUjuTSG9QO78P7fs3tnZ2b0lN4CY70fJ7szs7Nm9u98958yZMwFumqWM7gGT5njQjGkEqXkVvWCa8b0kDA3OSzpNCcykjnZQhumA9KhaFjHB8pqUy0rubCoEoNItG4t0XzakYxGEtFP6udAOhv8+MYjvSkovqRraOVIDPDwoZNPRyxVvAggdtxzIF11qCFnb1n9LRuHve3LKUsO8nP8McXfS5P+pqG+5J09ZG1ZS0zgNGGyuitg5AetbTA7spRgT7PVBfESARbWX6qZW5q+KOk0CcZYbcI8Lp3XqWIfhvr6Ip92QymBkD5cOJTjDkXOtto9h9wBhRxrQ5D1ldibl88GRnH3FiXPyiolDKQvzc9O4Gu6hBggxuiMQ6UCiv9GlVQ2mLrBNX8eaRhrk3CSBKi3iqewYBPeENJX40+DwpItC4DU1zW3R6gfdzd7G4gZeoKvjFd0KDwGC55PmVKVoLYI63d/alrYRJ4uVI04WKYVaEfm7kA89xfwRnB9r72xrnfXE8D7/UWtllsSenLLR9a03+iDihNT3BbG6qYqXmxc4EtJrpb09HDMtJWPKpQoT3yWcbOg/ZpiPi9nmm7KuOdKceVbhAe6acBSrmAhfYUY68iskYrOyRan5FSbFTSQMC6akKzDsrBKWC5/O5PwKszJg4QhytddGjeo+c7TRX81XjXsIEXCD2AjxfC/8r6LmwXQ6WqCI6qiMYnh4UEii4OUHTHADg3HUbTFyIstooN88oY9IB2e77ukrJwyYLne0tWToPdS13ICvUwu4PMgCnQCTB9dnWENYxfsNseMZgGl9vM9YUFRhQnwx01L03vN+SNSnh3OuucIknSwYLS2EKDRak5VRGcMZwQZ5nnBFXbPRaoSfmwM9Hy21BynPEj6MrW2nbGjt0BINoCEYh9Nc99gpVMSZEeU7yEZ/kl9Jdld93NW65hEdlVEM00P9vwGAC9zpxXwvNLNJSqMBiSFvsbbGPBF8s6p56cjQBQO8Xc1W6cWQq6jrU93UOh4R30uEXw6Dl+nVLkRlVv1jF+Rqb6nVBEAQWc+b/ET8OKL3l1dRGhXgXmeuMCfzK4YYPp8A7X7ujpoJs1aSY+SCrw52gfyT2eeU1Yjk9hUiupdXE/UcNE3J0NQB4qYrGlr6GCuHGOJDfY+REce8B1Hn5GNVZQDcptfuM0hIQCxJXa1tNDgyYy5c7KxVK8cPeAKQSMS02IcIN2OovjAJDYhmFon1DyLmFQO5i0f0GTsmxKtTkqGnl1aNwOXiLgfxTQxEfFBUuug79vdV6X57husLtbnYWlvEB5N0tpg+wki14aR60leG+bj8aa48RYo6q7Kqhhh+tyIPB784O7qft8bpbcVPMEyVkfolJu29zCKlqaMjhokNDJEbMTkEAaTkV3R4lCbKx6XW2bb7Kfbc+IiBQNvHYly4DzFCAr7EL+lwfkVMR2WUwpgQr1MT+nivEJgxNJ8JJiPBonziwPsSIyFDGhCp9ej6crC+J+fTWdET748I7FCydjFUN7XClozCpZwIRNwSz+GrK9DoLcQHD+kc/pxGwwDIHWx+j/JxMXnpHhqSzpZM586H22A4DFkoBNHH9vM+aq48Rcr6Ppr8SMb8plibmAhfzidlFRvhR1+gTEodYoQNjueWDzRObC3CfF3ScdOGCrxeNBGVAIMU9R1PfjYvMuAXdqiSb9HiNjjCgrH4qjPCDkDE5dS33hj9bXqhxVYDpOGFmIgP+/dw3SAgGarGiEHMIQsEQdE0ISnyEenT2bb74S8TRoUHujp2WujCplMFT9a33BiG8A8Bvs0IzSXyNuH7DNbHy2P7bbSUnElni2drt2jDbjiMt1Vi+3mbTX7JOVfNMuVjI/y4D4WVaPoAg6zFb6CsazHJ+93by5me1IiqDiK+F44mh77KLqe81t8UWWiY1MvrN3wCEcLVZuCvB4fYrxqu5RAaDyL6+eV8yYsdldEQ/h3d940AF4edotnMDDl8Sc2FPI7UhMTIjNYfQM2YEK8P35oy6H7aQm6WwtXaJrdv0wtX0fiVe3SwHcQOSRNkhNjYF06L0aDi3t49DltCzsyyalcAGMqTUvQd5Aku3Ob/DvQRWyOQnH1lsFAQQ7IBBHk66TUYALDUEhomOVejAtxPCUtF5hQZsf4u3kVyfgV9aVoTEB/ue5FL+aiDijgR4inPQDh4idQNuGqNNBG9j54uqbLYaoA09HR3Un42e+T9/b1d1/AqSC2DNF2ktmlmDhKJgaGVaVGwZGS/CSvHD1jW011mtgPSGOzOKhvPW4aGR/p8U0kjJmL0vyPSx8Lw1qDX/R8T7PFLuJfMIqNdOy+UjdWE5Iu9uLxyijZPV3qUCcNCzM9OyLAjWjTrQZRh2odiK6taxUb4SixNQVUnqC0ziytNmsQX28/7NDWK2JCNiTfCL1bvdYPrzW2mxuVQEeYp24qfUYXPvkVaQlERy3NhLfQPMmEmsdvppVWDLSGnIbw+MfL1MSFeyxys7ymnCKoFzVFLgvIhE/h1pAgHIC86UP7ejw/HhN8X5m/JoV0qqptaHbdkFL6ouf+4Ex4JL4PVWlQE/ZAaTzt2YHyo7wFLyZpZVh0jEAoHz+9IaUApCvRwpHzEjUeRol6mP6dEQ6xOLrM7HR7gzvkorHSBWSIw0tZDCGob2waczCs3WteNDfXWz50xRCqI8kSQciLdX0YzI9UiL27i+LDXcG2a4UwkRhPZizBnICLUa07NxrgQYdei/vens0XPW0JOQ3C06X5z5fgBH74+MTLSw8HmZ00hLUYGiH2poDmyDzFtRbvdHuDi8OG3D43p+/rEqJfMXczNVDz/S/q7da03NStCCrgTIb2pi3DNRj8tQPM7Y5on+5uz/UR5u1gs/emuC1emUCto5qYk9A2nDvAzewTpZF65c7Gy3uR4rdgI3134vlWQp6wSgFxJTgdDLza/rPuZosqxpggT06/HLtH+kJitR5QjnAK0T0lKfoVJDmcxJPT3vxzo6nCI7ZfVYjT2uO78KkJcXAXXvHMMX9HCH/Tqptbhbx28kGAJWY3BAG83xXfzxs6Kjwh4OMTNKVlTKOXUBYk62igUse/pZHu+fw/X75ePDR/82eyRyyw5K9oQchW13ueu1jzJai9amfShAuwjw/rPcL1FMzUE/zAg4q8mPYP14Shv8wPYcCjqW6wAob7655iFxBdA7H3EyoeFyI+ZK9Pv50qn8lK5iD4ffEFiInwL8H01wSAuMIsEQ7G5JBj149+zHjH2AtRYOj7sM2pnhuxQ/IfgTCPeHQhNOltskaVGE8eF/Y/UQlSI1Wa0T5yKDcbSqdjcw8sOdSL9l4/VYtiHdVtm8Xd/VdRabFlUY/Dv6L4/bHxgRNzK8QOCJ/T2eR0YoC/1IritxEMs1GzUFkTmhN7eq1eOHxCx8f4RkWumD3l0Yh8fi6xSYCzqW24w/9qauhVhLwgCvlZJWnKcdslLjaqtUekujPXJAIKbG+8b9G9LOac/Ppo3yShzgZcRy4DNgqA0flBgqtky/Z71FNmlAdtNA09n+yx8XzPHYESfHpmpeeUmDEkhbLap/oJzrtTcp6hr7uYpszMqLWTCsJBS2Hj4BjB4vgnaUy0tCn9Ug4uNGaxJC9FBDPVzS9Wk0URIhrA1ilW6U6kYpHuKteHkVli9GlZYqA4blMnua4PxkM2XqZcefW/m4Dc7KqupGBPiVTQmxOvNF2LC3zxaqJkDE/5rTmnYhWs104GB/oDARvBM8c0fhbNt9+MDvN2OjQn2KnW2654+wNvNksuLmIU3DpxfUd96YyxO6nw/mF6rUbFUwppMjD6OScX9joy+HhgI83L6OaG/HyVvkHn4KrXgOW5H0iQi7FB87gKvCQMjenl+52LmfLfk7Ct+yvrmUTw5uAeX9Mfwdi4njOp9ES/QEIy/h+P5VNpgltS7Tv+6ue07Wxy5IKaf0Q48Z3vrtNrmtlH6/owgFyOaJJ0tCUgYSMndYyLCvWSVCRF+bydll73LyqjSEYd2hrWWdNoRgnt08vMngOvXAUTYtuYh1jU6kHt1RXpJ0OYhAe63LY3FmBCvHADIGROiyYe1urimoXttc5sXMOBZUd8iq2hoVn+u2wd4uzboElyXDfB2s2SIvEWQXlLpklpUuQSziqgmKk46WsVASyII8c1eveNXp70CgoQIP7M1AxLJ+RXeZTWNE6mVAgtJwtlKENMj0T3NXp44OefqOEBYalf8ZuIFhEkWE+ErCOrTdJIwqneGaSKIh+/vPVsywZSe5kX33EXtCCR8QDSWJ8qSzhY/aoocUlg3LfIDub1NNoDeD6OPiWD9MQz3Fwlsd33yXtKW18Hxxd0Z31hKXksg0NXxxgAfNzWJnJnYxyf5kUE9DzwyqOcfA7zdTg3wdvvrjiSX0irX/+47d6S+9UYAb0kSQpMhocLMXuDHuXDmkkrfW01ssPxbS8m88WjuXPp6ViLvAa0eBK9k+6BAjxPmyqSoa+4peh4JxEb4CVZ+0BCMXGZ3nnqEVOCUoK22sbJOp1oZiUnhvr9K+bIEFYbq9Ri481xpx1UYtYbnbN+2ZETP94E3YqTLE8OdHXHkw7ZTCTgQ8XO+Yr6Y6qbWuE+P58VZQt5/Kj47kfdeeX1zFCI++IjQZPTzioA3HYCde8Rwvy22rTsmIdxvdWywvKNJtDkczC3HnPyGXmbM1iaB+Uic7a1To3t5XjVXpn1nS4aYc1xshK9g1EpDMLH9/eix9QLHDsXmI9SmnNLqHqYIFT846C8/N4djQqet8LTCAqGXES8/kHtthimySCEhwn8vP5Um0phIWt8LRhpAn4ekIjUXSiqHT07k/fLT2SKTCLoLWqzYnfHU6ZIqzSADbuogQpNR4Q5dnWaCa5r4R0Gli3thfycPB5sz66YO2GApmRX1LVa1zW3Svk/eg4T7XwQNOMwbHrLDXJlO5pV7Fivr40S6FhNOjVOxEX6CWfB4Umf6nCQeaBOvGN65lPUtkZlFlfT1nUWwaGyfTVwfUtqSmKbDs0/1ms6+7Csm5NmTRriXrCIhwm85SyDtOllVxLCm/muH9A8sEqrpiCzXjjQ5b04reL+6qbVzlja5S/HZibz4g3nX1C++NS/qlhheVrFl+O+i+0CwgZOAaS/ctu7FnjfAP8nf2d5i61rty7kyVu/roKhYZDlgZZRNdnsSEYtiCj7Ye/4xQEi4iBIZNkLItGRy/620/rgHOTLYg772LyJ6FTCnQNuw2ZySO8fwpegR28/7N96Kj3jXojPUEL+egz5Rc3F1472adWYshG0PRX8ZEyz/iD1lO8LjYRBnMvG+oMT8JcSLp9HP1GYv5Upt07C4jQdzchW1PhYT/C7GO4ey5n96Im8rQhq/OzFTGunvOU7w+O/CKeWIM4Nw85dtJ7PtfnnZyN4fWFL2xP0XXuWENRaiqwhoywM9HI/HDwoyK4NdkbLOPim14DVqJRkvRegasf39smiHcQTT29vFuCRQjFiF/iIPXiile8VFEBvqc1XuaJtiyjFs1K7+3CA0mRDAgb+uWXTW8pLhPb9nz6Ri+A8qwqJ92W1+AB7ivqJA8ij/NH1f2XPWYrN071ZsO1t0/7bMos0IgQ1PMwQgZrEjUbOUIyEGuCA79sh2bHrIQ5EBay2V2Bu0gxABxVUN47gCnhYuBZF1VHTvQpC7k9nJuvaeLVHLI+N3LNyk7NeP6NsjmdYnRzCjQr3pQ2+kokJqMJS3I6esZmZ2WbVM6mJIrLwv6iNxG4hWLDYnA/GE+vho3r9NkcMQ5vT3T4sJ8vgEcSaSzlzSPYzt2IPbjggbH/R+AFzTQYTart6+VFkfH7fxwG+5ilpnS8p/t2BLxuVJ7/6R9T3N7CTvJa6x8Pax30qF2Bgn7e/WDvrfN8xTdvTtCeGfWFL+pLMlicCAlSShkLaeTj5hvb54weheH5sr0+lLimiDI1aUkd3IYI/t/h5O1OWPOIKJCpbTR5JYMESvojdGc9F2OWU14yT7IzAvuudvogvDIzHiYSiyMDyWT7lUMau0ptGiPo3E8WH/BYAqpDOTgJ23QqjfekciYHW6BdUx1Zy8Ona/uqnt3lf2nP3UkrLfDfg+vXDguiPZOxECe9KMRjTNENH8XbjGAsD51jTb2pAD9red2MtrrSVTSijqW6ySMkvihKRBCWQTWBCSQWCXpw7wN3t4et/ZkjGCQgQi75ke8cN7CoanWXAvns4DTLWjaFqKoAFRv/FAlknzkjxldjfmj+79lZhrR1DGM4nESE9T4PXCLxn/MUUWQ4gN8axeNS7sKTYc5qZGc0Gc3d/OBWjhDl9s3ou6PWZW4V9eXKtR1xRUNTw495s/k6qbWo1ePfNuxqrfzr30fvLF0yoEdirMl0WOGql0hSrMVafiaTiIu8ftSDcrXnfv20GvZY4Nlr/1/tRIiy1dq8aKXWeeAED06SE0i4G3Lf5irJo5cKmnzM6gkUXD5uS/IpV1zWN4XdLfJ9Id0bhgXOhOsX55X/YRfXrsN0c4PrRsl5Jzdb6irtmk0aShwfI0AYtI3i6GcsMJFQ5p1FGLL+CVOD4sKSZYvoE3rMmZS0iXykFPLioeyZD+AL6Dkftfpf37l6Ju9kPfHv2yoLL+H+v4Laysd/jPr2eW/5pVugYB4q2nzgtoxKxkLhgSJ3F8gir+e+nMW8QfObq+4b6Bb1nyOkprGrvty7n6NF+9wi5Ef1XEX5A0VeROtpcWje1r9vu792zJY4JChjgXRXsK83c7G+QpE104gEcwj8T2+1lcBLEbQTbj6tze/uXMA+INhXg4uucOjRbFdUHJosNjcYocCPfDcPDYnFpg8aVCdj4c/aLc3kaTHvAmRhLtSJ8smnMaskPanE+Gn9oBiHgMPcloy8vrWx6atSnl5MHcq5GWvo47HRmlVS4Lt55IOZh7dR1vVIgy9K8i8r5o32EkuN8qRDsGOJJBADdeHxc2N9xTJlw3rAN491D2k8qGFuEyP4Y0dloZpkmE+bic9HdzMEum7LJq++2pBY/p3zFE/7hT/C9yZzu61aMDj2ASRvUyMkENEVHIV5k44XamX37SuP60cLG3ad/w6MiF3GqTYlMFWM1FSnUkkoEn7j+faIosRslrZ31j24MjHpHZdj+PMA1Gr5WwQ9GYfwYxPJNIRar3lKAv7GUKeOnXMyef33l6TUFlvYelr+dOQ33LDWbVb+dee+Knk5fqWm4Mxu+TChu9U+FOXUE90puqhNO9nZvWgbQfCN0x6u35AwOXrBoXZrGEUmoUVTVYJ50t+TfP98K9O0KHrRZGTfy9sWxS+Fpz5UpKLZjNT+6Nvzvke8XfXTAudJNU3zyC8XS2R6LrRtN8HjQBMAGLlfXRSakFg6QEILF0fFh6mI/LTuG5RQoMWZw6+YqrG2e+f/iiWSHQUogNked+Fj94LgJoacdiW9oBeNMH8NgYPMYCiJeDHyimn/Wr/2qD3ZH8ipdmb0o5cjD3al9LX8+dgvNXaxwe33oi6des0jcAwF2g3WGOWw142goxgsQRCuI5d4EIkmzXOXYZgJyvZw390tLXtOaPnAeUDS39WXn1IFNSYu8Z7wEA/TbW3s/V4af4QUFmL52yOimdGGlFepmoTmXu/OcWjAtLk+pbMLoSGexhWhJj6vn1NyA55+p4k/oDgCdicVuSQmYIeMuFUOspGtW7B7MsOtTIYk6E31+vjwt7Qq15tYPelmdNJQR8QmEdvaRjEicVfaAe4vsQ9G0jVuw+k/be4exnCyrrTfJ13ckorKx3XHck+5nlu9IzCyrrZyFsHpAK97EQZhF7H9sxxzov0BHLr6vCSIZd56hdV+Zs2/3MoUUxFosAZ5F97brdDxlFK6mVuEVP+j3IbfwY7T+V3y2Oed1cudbvOx8HACOF/SMhwfHODbDqweHvGOpfQDDxw3tKLzgu5v4QuD20+x8fyF6mqGs2aZh43oiePwCCIqodyPVNrHgnqsnoK5QNrUO2nS3uaYosxiJxXNj3Y4Plr7APezvwNRIAfnk7OT8JIcE0A6q/gU8ysu8zLn+YsDml4GDuVYvkIb6dOJR7dUDCN3+e3XKm6H/Vja29EP5YsUP+FFLGNRsG+G443NfSjhEPR95Ib8Kq6z+LH/xgbLC8w3mESKzef+GF2uYb/bELAp6pxG2KmUoEdBca06/H2dh+3mbn4PnicM7z3HlB5D3mgau8smhC2E+G+qcQTMjvvLB9QyfiMS9NjUM+Hx/INinTnafM7ua2JePmADCt3EnIfhFJdsTUAW6b4bV7+/esNabIYgp+mRf9YWQPlx3sFIKb7IQ53QiFSscYvHlLwNdkSBNKRXmJOP+N/gvuueLXM+mzN6Uc/vRE3uTqpluS8tYiqG+5YfX5ibzZCZtTfl+x5+xphFAvblSNSr6E7wpho3Dqe61iTVJ9Fjp8Phjeh3Z4Wvf7AMBjAwMTZ0f40bP7dQBFVQ1OyZcqnqCa9qJ+RgK0519tovf1/tBcubLLqh1yymruFZxIkEVB+M7FRPie9vcwnOdfQDBRwfJqP3dHupkkYF6sQlTTUGsxWf8yKAmBhGHBp8N8XFL155UAm6hKMm+otpNzV2oeeP/wxU5ZWdHFzhr9vnDMI/4yu+NsOk1E5Idpx+ItQBdByk3CI//qCAkRLxsC6r7dpcr6uM9P5O1/+LujKQdzr9KXIb2DsCWjsNeirSe2f3YyP6mgsn4SIGSNX6uUpoII7YThInPZETvQ/9VpK5xWifjajLrMx8l28/9NHrC6M67zpV1nFysbWgNEtQPSPAKxduTHE44vGRe611y5/vVZ8jOAwFrynCR0Mob5u+0x5hxU02XRhLBtRklIFUhYqKxrHpWUWiC08wwgYWiwgcllYoElmCgULebdg1nvXG9q65QZy3IHm5bTSyfcK7PpfogNwGtnh7EBe6gR4plD7YCPclBGl4DvixCaV/o21+paxq749Uz2g9/+efDdP7KWp5dWmbRmVWci+VJ5yMu/nnl73rdHT7yffDH3UmX9/SrcAY6ZREiFaTKk01ZnA+GEoQL+NIx23TPRTolxQZrfRLsf0UO2L33phJfkDjYWv97Msmrf7ZklK3mmD+3Fwb8agChlBBiAbUvGPeYpE058NgbJOVd6peZXvKI9DxLKIsaE2uJrK+4fbBRHUF+y8AB309asEbMZ9YJbJW4//bBJfQJAYvygXWE+Ll9znYuoifptTBBEyqFnHmVDa3Ti/vMLTJXHWMgdbBr/WBQzY2ywfHM74KMU+hnXN7FseCpOu+GbS+0YyajImA18ZIos0x7XPVdRN+GnM0XrFv90smD25pRfPzuRNy+jtMqls65bDOmlVX7rjmQvnfjJwbQXdmXkHci79spfitpohJAVz6GN+ZuEpiESaC2c2YTFFbH1bE4FfCIqa6a2Y74wN3vr3756YGiC3MHGiHQlpmN98l/3AyA3XiH+HAtIR/BQg/BYBIHujocShgabNWtajcTt6f/hT2wEuiVCEWHJlP5vBHnK6o05D0NLIaiG52NfnFLWNQ+jH4UNX3F/ARvaIup1mz8tmzRwzoiemcYIxqK0uhEGJ+68qKxv6cc7F9YvXwb6uQVyMtB85NmJQbG9vRSmyGMqxn2V8uGxospnuwHAPQyjMZi6MQx008nRTSealeZ/7Zo8VmyZTm4r7FLULTTbusth27CXaYVdL0PcEv1EeKaup7vjrvj+/t/283Q+Odjfnb5sjZnIKK3yTimouHffxSsPXW9qG89m98efNRXVHaGfl6VC7PNOBCQS2h2wo0vEBEWtA5cIfsQmMqrLXe2tD59eMn6SnwVzvOBIOlscMmfTsYtq04//caQ4cmnD0NQyzbbqp6fi+s4ZFmJW4vHSqobuAUu/axO4PMRkAJ5Zlod2Pmt0eMQ9YhVThwTt/ObwRTrBsCdkKH/JxN2sicJoRpSemzOi50JjhVPD380Bpg7w/+mb4/mr+OfX96sdUWL0MuAyApY3gS+b3eZTBc/F9vZ61RR5TMXP86KXz/rhZM2xosqX2wHZdMMSH3VTP/BqstG8NNqbqBWR4ZKKM7o6TtVktF9yKzY5kq4N6I5T6W4Fg0+i1N0bxPIsQrKCyvpH1x3JeRQAmhmGOT/Yzy1nsL97NgNwebC/O54SUk0+zTqlS3202o6w0/2F+tYbVrmKOq9rdc198pR1A3IVdZEAEAwA3VhCABBTPhGXsV8YN4m49ggfoqaYjjwNiDUZgTCLNMF02v7V5X3lToe/TRg2t7PIpaiqQbY06fQWAITNkuQ9kCJKC/Fik9sAEBngtslcclHjhe9OrJbWVMQdRTERviYtQSOqwSRnlQXE/fdn8dwS0tqBiIYDUPH5AitTJ2Qp6pqtvJ774S8A6C16XoNaDPW45m2PjwlPGBjY6UttrD6cM+edIxd/VHNHN2A0KxCopdBrMkijwVgxWprpholuxWCai+5StFoNw+N0RlcGNCUPME2H0T9DDM03rjsfUcSD8PkUqtckqQBuqBIEAjipYBYvOytdRZSRaRcQLwudPm0GSzI3Mb+Lm731wbQl46f6OdtTUwxYAon7z89dvf/CVoNaAVnOZ1lKewRHVkwdGtvPO90cubalFgycu/7AGTrjkyOxwroNi2PHL506wOhYOVFHZ2yEX4mzg7XERVB0XFo1cTM/PpA9y1jhWHjK7FQfPDRcP15PY1+EcDcL3T+DeL+e+j+7pdtOb88sq+70sPtV48K2LY3uuVSFoLJdF5qOuBdBn3C6nR3Kxnwq+sAwxBtxwp27gpgZ3D/Dm4qgdZ7ipohKoAGw/iGEycD/X+8HQdywsP5Y4DtnebOeKb4jwsek/x8RuV2AODfutNUNTSNhoONNLA5GZtv9+L4FYxI6k1yS8yu81if/RQS/kaTC/sVfZnwKDo2tEcT07bE5KsDNLHJRY8WWk3pLABEviYHPvtzZLu3hmL7UxFJikBxJmTe2r/gQGO8eEDeP3MEuZPX29HdLqxqMmmCBY9mkCLUs/LBkUvuSimpGQM1roWxoGfT5iUvPmSqPOVg3NerT7+cOH+Bhb5Ol9wVgL4RuTSU2fqMdyyWjwkLjeS8hPt8G+EO89BcUjx3hTwLkpfUk2quAsq0ipzLwZyojLGoZsPb4t0AQRAhCXwvu3FUB/xr0944lO0av1WDOXLXm4i2z25+17N6JUd4utZ31GyvqW6ziPjq0u7a5LUwwwsndGRpomQEE7XO+eyL2cRd780a7ssuqZcXK+pnS5hGtTLvz8gND/u3iYKMy5ZySBNPHx8W8JT8RSUBYOaCeL3x30qz0CduWjJvjbG9dou9LxFblaSwiLI398J8czfv3xqO5FlnP2hASIvyubZw5cE4/T9nedoAbXKAXwkeO9EOs3AgT9lXGR1QA6XOf4CNPtJeYzDmLaz0qQlPByUH48utkYJM0qYTaDhJMMtQTHyLIT4WTGUaunBYCoE8OxfOzaIXRkw+jzyTIaS6MmlxUY4I8vk5dMn66p4ONRWdHk/gh4/IDADBM+PxTNH6e9iKm4ei3V80YuNrfzcGAniGOV7em6acqCMw0oKn9eH3F8pkDTRqgAUMEs2Bc2E418Un2QL1ZZCUfSacK1hQp602eW54wNLg4cebAxQJPPIj8MEDKBiI/NMif3nb6RHJ+RS9TZTIHM0J9L559ZuL0lbGhC24iqFG/BO28KF59RjUVluaBbdOOlanwMgFZECYH8AlEJRjqJTQXlV5TUelIRP1XI4dK11aFeFoTaSLhpKHiEZBQm+JigNhjVYg3GqTCI6OxbRU+BK3rix2KdrC5p/y/caGxBxfFLPI08etrKpLOFoc+//OZL4SmBxJmAOCqEQiWIaF8POWONruWTQpPMle2xO2n792Vfvklei3d2sAxf1yoWUsbd0tMFM9iYGt9D8jsuhcfyCyZR20g6jylOF+B51FkrtQ0ts8Z0fOIqQKHyJ0Kj+VXeJbVNA4VcdxKO50Blxnhbe45XVLVa0aE34/OFkyPKIWxwfILE3t5bSVL5a4AADArSURBVD5ZWt2rsqm1n0YizJGLMG8so1sXm3S+8ifiMtRyQZQzZZ4o4BHHEoo8DrI9bt4A7SNMxkLyJnniJKW9UtzfxFuFgTdhkcEicvnmpo+T3YH106MefnJ4T7N9FsZCUd/Sffi639MBkKfg4mk3nHToAmVbB7mTzbmMxPgZXjI7s+aAKOqamSe//HN7XXObN3duGsQ+0giuHEiM/5eDbfcbpp7bYDTrI7H99jo7WF8UF0jiURRYKPqd7acKn0tKLfAzTVyNwxftenbCM8521ikgdnpS/QOKZsX7cmh/7JxrtVMf/e7Ep9eb2kz2EZmL4QHuFYf/FTNrSj+fF5FOc1Fh/hH8q410y6O0A187QZgZQWom7ZjmwpvTQxyrAsRzEAPhLOY7j6XaIp42Q/pzeE5jwIMMsblawJ9PxGsLpP9Fn6L0JgLWJIL+XrJvTy4ZP3lWhJ+0Bm4hzNl09C0A8BM+c9jbSjPrgWxPbCPN5N9P/N0c6syV7e1fzswvq2qIZPvTnwOElgCl0fxxoR97OtubFStlkGA8ne1h3ti+0gs5CRhP4huobyNb/t2JX0ySlpVJZtf++fxRTwNC+hgGqk0JGJmIEA+BlPyKxeuT/5pvjlzmwsXOWpU0L3rd5jnDhvaVy7a1YyYP6VTFh2TbsVSPKsIcQbw0B7i5guj5aWimDUY+KiJ5uYrigBaaZHzzSAVE7hvKaBFHqFhYPz6HiDWX8DLEhv1rh6NbFw8LefTU0gnz5Q42ZvsrTMGSpLTHUi4pXuT7LdhTM/wPrehf+uion6vDzyunRX5trmzqj/iH+y+s4Z2LOIc4tDItGBdq1nsKxhAMaJ29olnDRR1Z+JRMkrF1u2XVjUM2p+SGGy0thjnDQrIShgYv1mSupfwwgm0pdZRg8tX7z7+/+VRBP3Pk6ghmRfilH/pXzGP/GtZzqQqgrJ19KTG1v53VbHSytgM2I5vnd0FYsnHETw9B0WxwTYX0eajERpYwImmnOIxpmgpHHirEnxaAyYU4hzUSaD/aGdCI087akd435ediv+f7ucNDP7xv4Pe36jdLzq/w+CG96A2NcSuqHdCIh/Lh447V7jvbW2f9tnzSY54yO5NNExYbD2S9A4DkAu2JtD5EZAnzd9sWG+FHt2CMgGigHQ5FbRMzePnW5LKqBvpKAab4Ygj/iNzZ9s+Mt2fH+LublzMp4ePDr21X/8BSQX/kvpSPSFcud7S5nLFiah9/V4dOi5eQwkVFndc7Ry7O/yW77FUrhpFZgT7oDnR/rXTCWnFia6ciWBHBdgDEbdAF7bGwYvQWI2kbMnhUHgWiNbSwJM43w3CLmyEitgtf5xthEbwqnfmDx9+w6utNgPx3Jw9YNS8y4Ge5g80ty1WRnF/RK+6jQ3vV32DekDQQLzLt5RbVqvU3bsMj0bOWjguVyJMtjcTt6XGrt6cfBEDdhDKQGj9ZrpFDUfLlwgh/DyeluTIYpcF4OtujRRPCVmA+NgoQZZNSRvhClHUtY9/ddfZpU4TGsXbO0I8BUKlBhhZMX8B+aO5roy9XNrQGD167f3dmWfVtWS4k1FNW8e3c4Wv2LRw7yM/Z7mA7Jfz9JvtVV2GpILEE5CrCfELEPB1Wa2mnmEoID2wD0qQR+ldwzQaP8cF9MyrAR430o2RcaD+7GgMrkwphfiTgzKx2zmxiWnrJZZ+lPjV+wnMje/94K8lFUd/CLNhy8nOOXHBobhgj9EEC7bmkaNVIMx3gl4dHhJhNLtll1bbr95//CPAVGEQsCTHSmT8u9KOOkAsYq8GwiHr+h4PnLldOoPckpg2IaRQ8LaLuyGszImPDfMzKJJZZUiWftO73VGVDSwivbyDmR4lOJyDl1X/OA90dMtJemDLS08nWcotcm4GLijr5h8fylmzJLH6uGwOujE67sMIuwYq7DH05gH7ekkaHZ6cdEJcKAi2HAMPQPxyYKUxanHhgqtDlgPiaDGCjR1yMi57YAPRD0gigflSQx0df3D9kTaCrQ6cFzYkhOb8iKO6jQwc0U1dI3wlS8YPmEIhrNkDeHO12mI/L8eMrp8W42NuYNU/qemMrjErcuS+nrGaKQEUkzwkiBINQ49kPHuoTFSy/ao4MLEzKiTKyn/c+yQac0GKDMKJkJlu66egbpsiCIyrAXflIdM8XgYu9IpmaCMGm+mN4qiGH4qrGwYPX7t+hqG/pZq58lkCop0z56QNDVv/xRGxobw/ZF+3AtHNBZbo2rHMYuHgQ9nJZByujXdVAoGnwTRXSSctNYwAkcPiqgHDeIr4Tl1s+F3faYrlxcL+LVivTkwsX2wP6cH83e5vfv50zfOiBx2NevR3kAtp5Rm9z5AKgD3mQHGgQ8QcKX4mWxJkDnzSXXNRYv//CeC25YIUMKRO7TyM+BCP69ni3o+QCpmowRYo66+DFmy9o1EJqbyDUUgTaBN3nod7+4NGRs5ZNHWC+zbnzzOTVuzN3AwPd9efHTi6luQja8/cD3R2T016YPMHTybZTZt+aiouKOutfssri302++P+sGKY3Q5ngaMX7SXSTJQUaC57WAfHUGjbyBhGfDHafrUW8OTS4RsPoF54HrAmr72ARvoBZrGyEbrue6+vnRQX+37yBgV/FBMvLO+N+GoPMshr/SR//8auyoTWSTxq4mc0QHzFDvg5++Qdzh41dNiniqNkyFlV6DXxlezYgcOfLRZOHXh4od0xJWzs31tO5494BkzSYIE9Z2/P3Rb1i0hnE7D4Kvjhy8UGT+iaQGD/otxE95Z8KbFq6YJR6cqhQv19c1RA7eO3+rbdbk2ER6ilrWzkubFvBf6b3fTK615R2hPLY0SU84bh25EnnD1EhXgIm1jhh/R/64XGGNyJFjhzxYmgQg2k8jK4fxC3bAphWxKWpxHMWc7IyvJEtXUzLzfhwv5cPPRHb47MHhrx1O8lFjWU/p7+nIReEKNoHRrvUZ07iwdf15+dqv6cj5KLG54cv3g+Ak4sEaBqVNoJ/jyXIBUzVYFgELd50slhRP4LeoxG+GDGtgWEgJtRnTfLrMzq0lnT8R4dW7cosSRT0T8oBtFQO7D4S1jMMBLo5nMhcMTXWxd7a7KHDzoJaq9mccfmh5ALF7Fxl3SQGGGuGdsvx/3XXh/B9viKjef7J28hqG1zUMY+v+Rn+AfOjIJ1mxK0FTWgyCKCifw+X3S+N7ft1XE/PVEsuOm8usq9ddxv14YFfaptujBWYO6QWQDqieP4Xcc0l0t/tqwPL7/2XuSkwQTtqNHH1jvQ92jy7IloLbTgaq5fLbDPT1s4drlYmzBYEg1kEk7Bm3/LtJy6tE+/VwJC1gfINC0dPXDopQjz2xgAUdc0wePWuzWXXm+ZzbwDQTDgAwdC1oXYAENPb66fvHh251N/VocpcGTsbRy8rPb9MK3z6al1TWHpZ9RgARhPC3g2w6Qg64ISDBH5uvsnDYNSBdI0ZNi6HId4lXQEDDH/4mXtHtRvtAAUPhPulezjY/P7CmD5bfZ3tO3VCoinIvlYbMPnTwxvKapruE/rvjDGNxI4BvL6oYv1DoZ4yuxZz5UzOueob9+buiwDgJHAc085NJ5r6bS9OGZMwqrd5k5wpMItgihR1NsGLN+cBQAC9VxDxeUhoMVi5s7310bwPHorzlNmZ7e9Q1DVbTXr/903nSqsf485ByiOQhSAVnv+GT4RyJ9s/DiwZNy/Kz61TU25aAsU1jfYH8suHHClQTEwrqRpZ2dQ6nAFwYDDiZcBwzAuDbSGRdgwWy0DTanQ+lmZn2+5p43p6/XFvnx5HpvXzPu5iZ236g9jJSM6v8InbcOgUIPAzqLmAMX4WoebgbGedv/Pp8bGx/bzNdqiqP6iT3t7z/bniqoeN8bFQQzkQwMxhwR/sfGW6WZkOxGAWwaiRuDU1fvXWNPEQ4o44WBkGwvxcf967YupjQXIns/PFXm9q7Ra7Zv/uc6XVU0XPLZCR1FzECBLUD0fBW9OjFi8d08e01TBvM4prGq2PF1VGllxvjAYA16NFlfb1LTd6ny+v7QuAAhgAR9wBTIfeAawv0ZVpR3xuAsDlUE9ZYYi7Y05ED+daALgW6OJwdlKfHhnyTp7Z3FEs2HJyxTenClcCgLOmgDe6aCK58EiF1676yEtThsf28zY7/WWRst52wadHNqbkXH2cL6cRMvLbK4+8+cDI2Ag/s2WhwWyC0Rwc/79aYWZyttIIX4yEGaJut2rWkITE2UO2my2glt27D35j9+6ymsbJoucmy6TiZYBPMgCMasno3vM3zhl2y8LTOxPKxlarY0XKIAag1y/ZV/wBwNcKwAMA3H/OLnNgAOwBgRViGBUAahsV6NEgd7StRQBKhFDp/RF+JQyCAl9nu4Jh/u53xIibKVDUt3Qb/N7+dWU1TfokZKLkAmImD/0FBz7hrJoxMD5x5kDpeX4GkLg9fdbqHenbeeehaEqGyHH2yF4vJb005b2OyEJDhwgm8cfU+NU/pSWJJg+X8sWAYS3G2d668IsnYmYlmLgSAQk1yUx6//cd50qr7xM/H9A1LcA9nyCi6TA3E6ICPlw5KeKNKD9Xs2e9duH2Ijm/ImjBDyc3FVc1xmpLyPgVjFkEPhfQx1kBI/6Ca8tvLInr99TGR0Z+1RF5Nx7IGvnqtrQttY1tQTxSE3HgipFLmL/rhb3/nTEiyFPW1BF5aOgQwagR/sz3P+SUVj9E792QtmJAU9DulmetnRMe7udW3RE5FXXN3Qa/seu7suvNelnx83LaCTKsbQnqtPtyR5v0rFemD/N0sr3j/AldkMb7Ry6OfmHnmR2AwJMrpJoWFHIh24r5YHRlMX17rEheMXVtR+RV1DXf4/Xvb6o1Tl2gkhgIyoGI3dHVP39f1NT3Hx+7vyPyiKHDqxu+9Ui0+OqLAvYU+cGk2/dY+vWxtzsqp6fMrj3j9ZkPR/q5vk+VQyVlTwM/RJWTDfvBENIsrj9s3W9pifvPT+uovF24NUi+VOER/2XKpy/sPPMrRy74b43/9po6EXIh23F1vHaqJXH9nt759PgOmSLXG1vvmfTOnu08cqGdUMw0wopmDgtZ01nkAoYy2hmDfn5uV786mN27rrltALWBMSNKBnwxxZX1QwDgdGyYT4cWJnew6Q5PxvY7kHO1xjbnWu1o/floMoAwEplWRshb23LDJ+WSYp6yoTVrWriv2dPcu9D52JZZ3HP6Z8kpuYq6iYDAVlMo0Dpws4goAsJswlVcwcus0VzeSXpq3Lu23UWXIzMKj35yeOWRrKtPkeJR/zJkOU8w1Z9vzZroYNu90zIGWGR95oz3H1wqusQJro6BiHYg5TjT/V29I/2b5JyrFlljecMj0a/Nj+75bwBo4amMtB9J8EVC4rENmB3+8dG8n8Lf3nM4Ob8ixBIyd8FySL5U4Tln09FNczcdSwcEPYVaiq6h4HemPBvkX6A9I6h9SVy/Z3c+Pf61jsqeuD39vu2phS/oZZGIHEYiz7C2+uaSyREJns72ZsfeGIMOazBqONh2b+3hal+261Qhff1pgQ+DwUdhJByrvDb23/yZGx8/JGh7Dxd7o9bFFZXXprsqflBgBiC4lJJXPlMXfyY+TE3KBBKOXz2slI2twd+kFS5SNrS2jQqWp9p2vyNmGfyjkfjb+fsWbkn9I6e8NprTWgQfQAn/iqANqbkIPkg354/stfCLBaO/tO1+T4d8c8u+PX7///2auQMA7AVykw5cqTMhgJhw37eTVkz9uCPyGIMOO3lx+C/6+puyqobHxM9mYDVIKUeqblsus01TfLZguKVkPlmgcJq54Y9DyvqWYUK5JOJlaKYV9Xjun2s/LRwzbc7AgLOWkr0LxmPjsbzop7ef/lUzCVCKPEjikCQXbFsk1uWpuH6LP35k5BcdlT8ptaDPnP8dTAOExeWAMRYBUa79U4F+eaZHR2UyBhbRYFjcOzDg8JY/c6e33mj3ojYQjY0BYQwK2Ua33dR60zf54lW32DCf4y4ONh2eL+Hv5tA2NNgj5XRRZYiyviWEWwZa4GeRGGoXi6nhX4fT9syS+Jzy2vbectnVHjK725Jq4J+GnRdKR8zadPTNb04VvqcNo8cqJQPQJEaK2IOoPhntH2e77lUvT+m/YO2cYd919Bo2p+QOeOTjw4cAgYdAbtEhaRHBEKrc8ETs/cN6e5V2VC5jYFENRo1tx/Mnzl27/wD9bCDi8AV+ABsYdgbHhPl8lfzajH9ZUvbYtfvXpOSWv0R3/IoMYQtkQ/wheNo1AVQ+H9fvhZcnhH/XNaTdOcguv+4x+dMj28pqmuK4QtqICrWMfFEpIzIgpj1o9utXzYiakDhzUFpHr6O0qsFx8Ks70pS1zaE8WcAIgqEMl6+aO+zBxAeH/9RRuYyFRTUYNXzdHUu3HsuLq21sM22eEpDxKLQ4Ff2xxcr6vsBAUVSge5atdce88iziBwYcqm+5UZhXXjei9Ua7E13jImxuUuMS02b412ufWlR5f1JmyQBfZ7tqX2f7Ctvu3e642dl/N1xvboPU4soB61NyF83/PvXHupYb2pdSTAuhmkcMv0xA/+TLzW/vbNf9zG/LJk1cMLrPhY5eT2ZRZa8xb+zap6xt7s+TmaahaDYZSZJ0drD+a+sLk5dY6n0xBhbXYNRIzirrEfffn3PFpxGIzVMCjFyMiLJlAGYPD3ku6blJ/7Oo/LnX/OLW/nZYk7VMQDKEDIYIRXBd5PGahbXSNsweunDOwMAcS17HPwkniyo9Zn6Z8pWyoWUGzTLQbhvytwDdLBL1yfD783O13//bskkJ4b6uZs+fY6Goa+4WsWJbirK2eZSo/Ib8Lvw2bT+9ODlyzqjef3VUNlNgcQ0GtImpGnJKqm7mlFZPoIzFGHDoisXH0MuvVDcOHNHb67cgeceSE/Pk93Cqi48K+OFofkW4sqElUDsVQmI2NrXMCL+Mrqiprd13e2bJEznlte6NbTcbfZztSx1sbt1X5u+KouoGj4O55SMe/u74y28fzP62qfWmdgkcUY0F2+BpHxL+FgqR8Ha0f25G+rtuOfbytDnBHk4d9gsq6prdJ72z9+NCRd191OsQk48UUt8GLZnS/4kV9w82OwWKuegUDYZF7H93rE3JuvIi/cwgPXok6gehvtR125ZNjEkY3rE5SzRsPp4/cuGmYzuAgR7EOSmaCW2Im+abQXRnt/6Qspn9/T5/a1rUR+HeztctfU1/dyRllvTbeCzvyZRLikcBwE3UZ8Jt40dTYpiAMIkYXYYsBjODxAmnbdWMqDmJMzo2aZFFZlGl+6R39+1Q1jXFSPh4hNcpMXoUE+G7NvnNB1ZYQj5T0akEo6htshm8fOuRsqqGaOGZsQ0xfwwYOfKkLS/bsHDUw0snRvxp6es4WaCQvX8w+5Xt6UUviw5D4+4Zo7QZkDSbdOVtYT2c9yZEBXy2KLrX7/4ut2UFlTsCyZcqgj4+lr84+VLFWGVDi9ZsMMUUMtiGfEkN1WtyAu3e+PCIVxKGBFvEtC2tarAZ/OqOM8q65jBJbcoEE8nPzfH7jHVzH/d0tr8tPr5OJRg1ko7nh89Zu/8oALjSJTDGVDKWZEC57dmJsQkjelrcl3G9qRXWH8qZvv5Qznu1zW196cPpSDx5FdkOGHGiASFJyR1tL0wN89k6Ldx3S0JUQLGlr+9OROaVGqfNaYWPHswtn5ZTXnsvbwExkNBMQIxcELHCBAEDkxSxsvYwH5dv9j474YUgDyeLaJiZRZV+k97d+7OyrmWouLYkFfFO1WquZP1v3vBwf/crlpDRHHQ6wYA2OdXE1VvT9nMRszwJQEKLkaoT1XCKNywY/ejSSeEdSp4shuyrNfI5nya/kXPt+pOimomY+UNz9pLlYv1g5XJHm2OxvbwuhHm7/JQ4uX+KBS7rjoCioQW+Ty8anlpUOfdkUWW/sutNsQCgTVIrZvKQ5Qz5YpIjPbRJfyIvMV6vL7u+JK7fwxsfjpZewscEJJ0qkC/ddOyUsq4lWHK43DSnbv1PL06OmTOq920N7LwlBKNG7Ks71qdkX3mOLoXUSymirZB1/Be5attzE8clDO953qIXgSFx99mE1b9mrgWAQKrTV4wYQeRawASiweqc7awvRPm6/hk/wG9vlK9ramwvr5oOXdgtRuaVGs+dF8omJ1+qiEu5pIjT3E/B8CuprbBlRvhZAEuvQOuHDKunzj3Tbkb6u+1Z/+Cwx2P7eltsQGFzSu7ghZ8l/wIA/kbFtBiSWVe3ZEr/ORsXxyZZSk5zccsIprSy/p7Jq3f9mFNaPVsoBfC/7GLRvFRHqqgmc23DglFPLJ0UsbcTLkeD7Ks1stW7M5clZWh8M3b86wEKiRjhBAZxzcWYOrmjzeHYXl7qF+B8QlTA7hFBHll3iu8mKbNEnl1eOyqnvHaSoqFFnnJJ0Q8AhQEwVlTNAUQIQayOSixkOWXkxaA/BuqWxPV7edWMqC89ncxfiJ7ExoPZ/Z/edOxPAHAxSnNhy2hEhG3HhPv+v+Q3H+jwxEpL4JYRjBqZl5XOA5//UW0POtClMSY+RkrDEWgyTb8sv7d//JDgQgtfCg87zxb3XvzdiQ3K+pZJBrUZKYevgGiIRgKNR4Js9GW1gW4O54PcHLOjfF1zXOysC2N7eV5ysbMuivJ1tfhaztnltVbKhhbf7PLaYGVDa8+c8tpeecq6sHNXrkcAQC/CjqEQiEjHYsPNgn1G3EkLFDODbIMw+ZBGQ/zzi/kjn0sYEmzREcqNB7PHPb352A+AwMskzcVAXaDcKT3z/YeGu9whOY9vKcGosflwTtjC/x1KAdDNq+BJA+JmEJhLQHAzJtTnreTXZlg+4IdAcu41jwWbjn1bXNUwhU40YALZIIq5JNYnW2YE4fDasr890wiAqgGgytnOui7KV5P2swkA2kCbvBvpUnvcAwDWAGBfVN3oWFzdqP5QyLUOfCTjn5DmRKXIQX38WKIwxgTCi0VMK8YEYkHa4elAN8dDL02OeGVpXCg9DYmZ0KRvfWfvunMlVc8ItREwxrfCvz9YG7nM7sSBVTOnRgXL75h5brecYEA7sjRoztr9GXSJwDjHrol1SyaGPbJx4ZgtFrsICSzfljb+g4M52wGQi3A2NmDXJ+bwZbfFfS+SZEOSEfV4Wh0joULQOkKUbSO7MEZTobUjJxxyRMSIOGhBOBJD6xuLeB0RIv9g1zPjX/Z0Mn8RNBoUdc3M4Fd3JJVVNc7iBECEnMZoLvR2RSWfL4jw9zB/FY7OwG0hGDUW/O/g498cvkhPeizQZIwcyibLCJKRy2z/yFv34FRLzMI2hOtNbbDlVGHsqzszPqxtahtAzyVDMAuVKPBjKKCRiRiJiPVB7ZNWaMSzYuzjRE+CJF5gkhlEqxPTWrjqGzF9e2zevHD0s0EeThZPwrTxYPZQTYLuprbeJmsuPKuSklcXoHLT0+MnLBgXZrEF0yyF20YwasxZs++VpBOX6Pl2DWkyUmYUiGsycpltUsZbsx7yd3e8JUtqKOpbrJ7+IXVxUnrROmBA723Frw9RzDwchswjUjuS2OXXGUk4HQXSkalRpAIUYsE0JSnCELSXcArzSahw3Zxhs5dPCu+UId2NB7Ojnt587CCXbkHKoSsoM7jkSMO2FyePTBjVu8OTKzsDt5Vg1Ih6/ocN5y5XLqVWipEM7YWTGnki6uTOdkVr5o2YvmBs32yLXYgBqDWaxF8z5314KPtlYBj97FiSKJEIOQra405hSgMx0iEtGzHgxCdiCRkNsh9BpXCTKzDWb0PTCMi2RJtAD8f9a2cPeSVhSHCnffkXfHpkyTdH8zZSZTLFoUvXcG48Ny0yYf2isRaZptAZuO0Eo6htspr59p4fUnPL5woqpXwtQHH60o6h9qH5p2bDwtFTlk4MP2WpazEWibvPPvrV8fy5ZTVNkwCgO09OUlbaPpC+GATCUSgkovVQ6vB6RJQhkTqxY2hyIlIucpeQWaw9CVF/jWRUryrM22X/otF91iyfFG7xaSUssstqPCf/3953yqobHxdqIoYIRKo9V9j+/H1RD7y/cMzuzroGS+C2EwxoScZ6UuLOrecuV94vqBT4Y0wwiYBCQvx+GhJGhLz6+aKxG10cbG75KoQ7z5YMXv9HzuMpeeWP8FJbiJKNiAkFNALBj6UQilg/YOAYKkgWMkAMZCEiz0tvRjWPGAkzCAAfHWoN83HZ9cTYPhuXTeg8YgGtSTTm1W1pn9Q2tYUbRS5S2hc95gXNj+v31OZnJn7WmddhCdwRBAPatV6s49/Z82NK1pUHqA0M+V3ENBmgmFZEXWSg+75X4wf+J2F4zyzLXI1pSM4tlyfnlT+YlF40Kufa9ancejekmSN432ll4kqK/t6QagpQDpAgJdFHRswWwgmH7FMiQTXPNJPyyxAvIebvcbazPrRsQtjhKH+3nfEDAzt1GZnknKu+63+7sHJXRtESnpymkAtCQocu0e65aZFL1i8a+0lnXoulcMcQDGg1GfvBy7ceKKtqGEVt0AHnrn5brIy5sWHh6LilE8OPd/hCOoDk3HLPV37J+E9qoXKBJhUBiPhTDJYRELTHyEBggkk6TaQYDOuCdNwwBvwtYuUmaCugfzHljrZHXp4y4Knlk8JzxYW0HLadKugz93+HMgDAkUoeQJKLSHSxqJmnbZAwstfSbS9O+VuQC9xpBAM6kpmzdv83KVlXxKcUiH3ZDaZJMEhQ1xNGhHy2csbAdVFBHhabb2IOiiobXDafvPRAUVVDv29OXFJrdT31shIbUqaOsVaOaDspR4wECRn7WJFmj6DeGF+M5p/2QHfHvQtG9joT5O64f8Go3h3Oh2sMFHXN96z48dTyb/7MXalWmIxy2NJ8R2R8j7Ct6rlpkUvXLxr7aadcSCfhjiMY0PlkBi/f+ktZVcNUQSVJHFIOUUaiXkLTkcvs0rY9O2FKbJhPh9bDthQU9S3w7v7zE79PLXxK2dAyTRdNS/hYQNxkMlhnJEgLCgyZTBQInLuUOqBoQKJOXqYuzNv508QZUR8kDAkuN0GSDmPbqYLQuR/9sQ0QitDKg8vFbgNBjhImE6uhCftpTxjZa/62F6fckkBRS+KOJBjQksw9c9bu/ygl68qTgkoquRBTB3hDvgbWLhLUa/65smRi2NtvzRn2uYuDTactrWkqsq9e75FfUdf34MWrEccvKSacK6ueRh2JYsEwfDIQNuBvSikrOKT6NKiVkERijIOXewPrw3xcj0wM9d4dPzDggtzJ9my4j+stTaaUWVzpt+z7k//NLKpMqG1qczNg1tDLwJBDl/un5bnpkfPXPz52WyddTqfijiUY0JIMDF6+dU1ZVcNLgkoBcRhaAM2A+SRoo90O83P95bf/TJ3t7+54R0weI5GcW+66+1zJpO9TCx9XNrTE6rUbWmsJMjEEaqCckeoL1aVD0V7Ej2+XO9nuemREyM5Fo/tsC/dxsfgkTWPx/v7zke/uzvxBk3UOCK2FMaDFSPlcBNMdNP/Ur1swesryGQNvq1+wI7ijCYbFgv8dfPqbwxfXCxJWSWknYLSmwm9DISK5zDZ/alTA12vmjXjXU2bZ+SmWRPbV69bK+pYhyvoWx70XyqKS88pHF1c1DAYAH66RJKFgrEP6ZsnBJgFpkCoN7bmSMHf03VQGujtkDguWnxzZU54e5e+uAICs2L49Gky4FRbHzvSi3ok/Z7x9rlgTStFNXGuhlVGcvaSpKGyv3PT0hJkLxoWe7KxruhX4WxAMaLPi3bd6axo9qMgkbUWKkChlgPtmbDNXzhz0wrIp/Q936GJuMZJzyz2zr16PzFfUDcgsre6bWVodrkn7CeAuaCwgIBqb0NQfEzQSTT1qAYYpiPRzy4/yd8sI8nC8ENunx/kwH5fLnk62Zl1nZyCzuNJl2XcnX0q5eO1FAKTVDklSJbUWKWeuyNAzvi+X2V1e89ioexeMC823+AXdYvxtCAa0s7D956zdf1ibVwQDjTzEUlUCZTSJ2l6SaHZlvDVrob+7498qexwNivoWJiW3XK3h9ErKKFLf10BFfUtISl65LwB46UjIlfPzGIZa06hU/y93tC2N7dujHAAuh/m45Id7u1xUE0i4j0unTzbtKLLLamz/9WXKi6n5FW9yhWJaCxjjb6H4lyj1cpnd3oz35sb7ezjdMX6/juBvRTCgXdSt75w1+zcr65pHCCoNza7GN4wdhRLrg4GCVQ8MfidheMjucD+32zqk3dm43tQGmaXVNgBgq8uR202XH0b98LTr/m8KcndsDvK4NZNIOwuZxVV+x/PKh7+adHpNbWNbiHB4XCpdJaUMaORDXTrlRpi/2569r943L8hTZvHZ3LcLfzuCYRH73x3vpmRd+Y+gwqC5BATJSGgzAs1IZxrwfTeVSyaEP71x4ehbtt5vFzoHiT9nTF79c8bPAMiOTwBgpNZihD9GhKCWTO4/b+Pi2B8tdzV3Bv62BHO9sdV28cY/Xks6cWkhAHjzKg05f8EAEYGIA1jMScwAhPm67nlpeuQn8YOD9rs42Pw9b+o/ENllNR6nCxUjVvx46jllXcsE4VC5GeYQ9Vg6+TjbW1+eFBWw9u8UnWsK/rYEw2Lb8fywuWv3pwny/FK1E4lVIsl6kGgnQVZyJ9uUl2cMfHb51AGdtqJBFzqO0qoGZvmW1AXb0wrXaNK3iuX8pWkkZDuxUSKQqNeiOuvDeSHh/u53TIpLS+NvTzCgzfMbtWLz8Y+Vdc2UFSQNEIQhH42gPbYh7ihGMWE+ny6dGLZjaIjnn0Fyp9uyql4XhMgsrvTd/GfelB9OXHpBWd/STxhpSyEEssyQr0WyjfafMH+3w2/NG7EkfnjPWzJX6nbhriAY0AXlvb09fdGHv2a+z0t9AMbEy4Aw9sNsbYZowEBpwvCQT1bOHPhJVKBH1zrTtwGKumb44cSliW/vOrtcWd8yHgB1F/pYQNocItsaTHAl2lfdc9Mjn1v/+NjNHbuqvwfuGoJhcTL32qCZb+15W1nXfC+vwijSMGKoWnAMpR1JVNo/tTGh3j/OGBS0cfnUAbclLcQ/DUmnCnsnnSp8KimtcDoA9BaO3oB+R0AGQCENI7UWIP003BD00V2vTJsf3df7cseu7O+Du45gQOsAvif+7T1vpGRfeZEXv2GIZATbYm2ATkZkO7Kt7k+gh9OBBWP7frFscsQeFwebu2ZI8k6ATluZsv63C4uKKxu02ftFUzx0hFiMbadtGBPu+97mZya8fjcNQRuDu5JgWCRnlQ2M++/PvwKAL1co6kMxIsLXWLOJPF68z/yE4T3PxIR6f7Z0YvgRY6+rC3wo6pq7fX88f8LuM8UPply8NhYAQiQTjIvWGeFDIdsa9sdc2/BEzLylUwYkm3ZVdwfuaoIB7WqS8mVf/vlaSvaVZ3gVtCkEgIzQZsSyyJmi0YBAq3G2tz7/8MjeXycMD9kbG+ZzyYRL/EfiemMr7MwoGr35aF58ZnFVfG1TW0/DqxYY0FjAkA9FrJxOLnKZ3aHPn4pbFj+85y1LLn+n4a4nGBYb952f8PTnyW8CgD4C2JhoXiC0FCknMNkWPxG1LbGh/XPDz80hJbq3V+GIXl7fPzK693FPmd0dOZP7VuNkfoX198fzFyjrWuKS0goHAkBfTYVZxCJyjLEaC61ffbv6JZP7P71xcey3xl7b3Yp/DMGAdqSJmbN2/7spWVeeAwAbTSE1oM6o0SH9htRxhvqllfObXJ05OGjHxP5+v43q43UsKtCjTvwK7y7otJTo04XK6L2ZJdOLKxtG6KYqaGGIWEwlC0GZkUF1WFmg3OnA5mcmPBYb4Vdh4PL+EfhHEQwLRW2T/eKPD7+w61ThywAii6HhMHa+EjLgizFGq6Gej7d3w9nB5tykCN+UMD+3tNhQ70OxoXdG5r2OILusxvV0oWLgvszS6Lzy2mHnSqpGczmJgWLKCHbFHLliDlpsp0Nmk7bA2cHm2M7/TJ0bG+F3Vfwq/3n4RxIMi437zsc8/XnyVgDowRV2hGRo7Qy1FzuGM8ckjtNC3So/Jsxnz6BAj1MzBgcejA31ueNneSdfvOp0pqhyZGq+YqRuGDmSl++HzMWLwxhzh1ZnNPEY0GaI/Zhw3/e2vThlhaez3T/3ZRLBP5pgWKz/9ey05786uo6z6cFMogFjnMEgPsRN60/qWLE+tGh0drC5GBXonhfk4VQYJHe6HOThWBQkd1J/YctiQ306LYFT8sWrMgDwziyuCrje1OaXWVwZfL2prXfKxWv9ACBYkxwbhyRBUAqkHlkpbUXsPFIaioTWEhPu+3Hi3GGrYiP8KiUk+keji2B0KK2sZx5df+ADnX9GC7EhaKOIR6Rc7BhDI1MUEUwgG742oO1XbVYVyZ1sr8WG+pQDQBUwUAUI6uQy29rYUJ8WAGhVm2RYJ90BwDYprdAOkCZaWqaZxwPgkZRWqNYCAwDAn1vXSQAD5IA1oxZ0hFgYWrlE31JxLwAFz98X9cT7C8d0hRYYQBfBEFDUNnWfs3b/KylZV17SrHEDpsa6AN1pLOVzIfuitjN0vMTBUscZBKNdqA0R/bH71Fy9RoJ6mLEkJOVXMdCPIP+tgWNYP4u9TeZbD49Y9fDYvntcHGy6RvaMQBfBiGDb8Xz/D3affS81t3wqMLrFtGjkYYhkeGWU43lteOPglGOxAkNkhX+1RU9ofLXJQFi/oo+YkWQCIk5eapEhYhE7ljLkzHDHXE0Y2ev7VXOHrQ73d28yUuIudBGMYSRnlQUu/Sx5ZU5p9UMa1d+UgDusqTixSI0mUQ8w3ZwSA00Wi4Fw0pr6mEkRCklaxjp5BV2KmUfcPy3z40ITX4of+OndnFKhM9FFMEYiOavMJznrysLNh3PiihX14zWFUsRhzFQBRHEK04a6pY7H94UHWI4zaOezxKMjRiRixYaeV9pIEC6rpCak+Ucll9mlLJnSf0fCyF4/hPu73/EjcncyugjGRChqm5jVW9Pmf7z//BoAkEtrJ0aaUDSyEeuP1q8hYhKcnLYe9S2AFJnw2pBlJpIKmKjp6MsVq+YOi0+cO/xvvVTInYQugjET2SVVzkknLiUkZ5WNScm6MgsYNqOeiaaQQbJhy40gBDEfjuB8txGGHjdjnkeamSPWt+GJjU2RQR474oeHHF4QF7o9yFN2W9dfutvQRTAWQHJWmcej6w+sLqtsWKSZgmCq6USWk0OqpoxGgYRGJNaOVm7UCSgw5XFCyLRRKJqmQj2n7uKlyaU9zN9tS+LcYS8njOx9zQSpu2ACugjGgsi8rOyx81RBTNLxS/E5pdWzgYF7tDVipGCkViOoIwuQacRjyrnMeTwQ4i/Mb1YfYOSoEUg7kol+nO2tjybOHb4+KtjjdGyEX6kZknXBBHQRTCdh2/H8oA92n12amlv+DDBgY9CvYuxwt6CeLEDG+XCkIObQZYwdfjYDRmsnRIXokDS/Ui6z2/3yA0NWLp8R9Y9NnXA70EUwnYzMy0qP/KvXI7f8mRuzK63wUQAmyDAJGJoIKRIrQzWpaI0o5titgCEnr+SjKGH20Pu+HhPuuyV+WMjBqGCPs7ERfiVmydyFDqGLYG4hihR13U7nVwzZm1E065sjF+MBmN68BjR/DTIw4sNpOUYPI5lAKmS/NAYj643wz9A0IlpDYx5N/vNbFebvdjghutfWBeNC9wR5yu74JWrvdnQRzG1EdklV998zS+Le3ZG+RFnXPA2A0fpsJAnASF+L4Y4kjtOBxi1ix5kdI2NgFEjQVNDor9nRvb5ePmPg19F9e1QZe9Yu3Bp0EcwdgszLSvedpwqnJ2ddiQWAoJTssmAAJpBrYCgmxgQFRt9fZ9hHeIAbroGZoJVwXQkaq5ztbdKjgj2qgjydjseG++1cMC60y6dyB6OLYO5QKGqbrFKyrgzauP/C1JTsskc4c8qg9sJgk/nM5BByWJx8RmjD4OzcJ7NHjEDs4Ho/d8fkRRPCtoT7ux1MGNn7b59c65+ELoL5myA5qyw4OevKkJzS6mGKuuYIZW2zXU5pdYAuv4rxRIJrFQadwmaA5pLB68QZqEVt7sSE+14HgKpwf7fUob280mMjfI8Hecq6Vsb8m6KLYP7mSDqeH3Qyt3xoWVXDmKQTlwYAwHAAsLUcaTAUkmC1mA49O0o/d8dT0X17nE4Y2euPEX28M/w9HP9Rawb9E9BFMHcZihR13YoUdf6Zlyt7Xm9s7ZOcfSUQAPwAwBsArEDr73GobWrzAgB3AHaKQ4ehAoAatfbhbG9THRXswZLFTQAoCfKUFQV5OhUEyWWXgzyd8qKC5VUuDjYWOnUX7lQwq1atut0ydOE2IvNyZffrTa2uOqJxBAC7642t9ucuV3YH0EQiW2HNkbODdWtUsLxNZ9I0A0AtADQEyZ3qgjxl7bfxUrrQhS50oQv/JFjdbgG60IUu3L3oIpgudKELnYYugulCF7rQaegimC50oQudhi6C6UIXutBp+P8BAAD//0fCHf0oqSMjAAAAAElFTkSuQmCC;" vertex="1" parent="o_3mLYSUMHdXF__UBMAF-747">
          <mxGeometry x="134.85" y="36" width="30" height="30" as="geometry" />
        </mxCell>
        <mxCell id="o_3mLYSUMHdXF__UBMAF-772" style="edgeStyle=orthogonalEdgeStyle;rounded=0;orthogonalLoop=1;jettySize=auto;html=1;entryX=0;entryY=0.5;entryDx=0;entryDy=0;" parent="1" source="o_3mLYSUMHdXF__UBMAF-751" target="o_3mLYSUMHdXF__UBMAF-770" edge="1">
          <mxGeometry relative="1" as="geometry" />
        </mxCell>
        <mxCell id="o_3mLYSUMHdXF__UBMAF-751" value="" style="fillColor=#ffffff;strokeColor=#dddddd;shadow=1;strokeWidth=1;rounded=1;absoluteArcSize=1;arcSize=2;" parent="1" vertex="1">
          <mxGeometry x="390" y="414" width="170" height="66" as="geometry" />
        </mxCell>
        <mxCell id="o_3mLYSUMHdXF__UBMAF-752" value="Training (Best&lt;div&gt;Parameters),&amp;nbsp;&lt;/div&gt;&lt;div&gt;Light&lt;span style=&quot;background-color: transparent; color: light-dark(rgb(153, 153, 153), rgb(106, 106, 106));&quot;&gt;GBM&lt;/span&gt;&lt;/div&gt;" style="editableCssRules=.*;html=1;fontColor=#999999;shape=image;verticalLabelPosition=middle;verticalAlign=middle;labelPosition=right;align=left;spacingLeft=20;part=1;points=[];imageAspect=0;image=data:image/svg+xml,PHN2ZyB4bWxucz0iaHR0cDovL3d3dy53My5vcmcvMjAwMC9zdmciIHhtbG5zOnY9Imh0dHBzOi8vdmVjdGEuaW8vbmFubyIgd2lkdGg9IjIwIiBoZWlnaHQ9IjE3LjUiIGZpbGwtcnVsZT0iZXZlbm9kZCIgdmlld0JveD0iMCAwIDIwIDE3LjUiPiYjeGE7CTxzdHlsZSB0eXBlPSJ0ZXh0L2NzcyI+JiN4YTsJLnN0MHtmaWxsOiM0Mjg1ZjQ7fSYjeGE7CS5zdDF7ZmlsbDojNjY5ZGY2O30mI3hhOwk8L3N0eWxlPiYjeGE7CTxwYXRoIGNsYXNzPSJzdDAiIGQ9Ik0xOC45MSAxMC42M0wyMCA4Ljc1IDE3LjgyIDVoLTMuMDdsLTEuMDYtMS44NkgxMi41VjEuODhoMS45NGwxLjA2IDEuODdoMS41OUwxNC45IDBoLTQuMjd2NWgxLjczbC43MyAxLjI1aC0yLjQ2djIuNWgyLjI2bDEuMDUtMS44N2gyLjgxbC43MiAxLjI1aC0yLjhMMTMuNjIgMTBoLTIuOTl2NC4zOGgzLjRsLS43MiAxLjI1aC0yLjY4djEuODdoNC4yN2wzLjI4LTUuNjJoLTIuMDlsLS43MyAxLjI1SDEyLjV2LTEuMjVoMi4xNGwuNzQtMS4yNXoiLz4mI3hhOwk8cGF0aCBjbGFzcz0ic3QxIiBkPSJNMS4wOSAxMC42M0wwIDguNzUgMi4xOCA1aDMuMDdsMS4wNi0xLjg2SDcuNVYxLjg4SDUuNTZMNC41IDMuNzVIMi45MUw1LjEgMGg0LjI4djVINy42NGwtLjczIDEuMjVoMi40N3YyLjVINy4xMUw2LjA2IDYuODhIMy4yNWwtLjcyIDEuMjVoMi44TDYuMzggMTBoM3Y0LjM4SDUuOTdsLjcyIDEuMjVoMi42OXYxLjg3SDUuMWwtMy4yOC01LjYyaDIuMDlsLjczIDEuMjVINy41di0xLjI1SDUuMzZsLS43NC0xLjI1eiIvPiYjeGE7PC9zdmc+;" parent="o_3mLYSUMHdXF__UBMAF-751" vertex="1">
          <mxGeometry width="30" height="27" relative="1" as="geometry">
            <mxPoint x="15" y="16.5" as="offset" />
          </mxGeometry>
        </mxCell>
        <mxCell id="o_3mLYSUMHdXF__UBMAF-780" style="edgeStyle=orthogonalEdgeStyle;rounded=0;orthogonalLoop=1;jettySize=auto;html=1;" parent="1" source="o_3mLYSUMHdXF__UBMAF-762" target="o_3mLYSUMHdXF__UBMAF-778" edge="1">
          <mxGeometry relative="1" as="geometry" />
        </mxCell>
        <mxCell id="o_3mLYSUMHdXF__UBMAF-762" value="" style="fillColor=#ffffff;strokeColor=#dddddd;shadow=1;strokeWidth=1;rounded=1;absoluteArcSize=1;arcSize=2;" parent="1" vertex="1">
          <mxGeometry x="390" y="560" width="170" height="60" as="geometry" />
        </mxCell>
        <mxCell id="o_3mLYSUMHdXF__UBMAF-763" value="API via&amp;nbsp;&lt;div&gt;Flask&lt;/div&gt;" style="editableCssRules=.*;html=1;fontColor=#999999;shape=image;verticalLabelPosition=middle;verticalAlign=middle;labelPosition=right;align=left;spacingLeft=20;part=1;points=[];imageAspect=0;image=data:image/svg+xml,PHN2ZyB4bWxucz0iaHR0cDovL3d3dy53My5vcmcvMjAwMC9zdmciIHhtbG5zOnY9Imh0dHBzOi8vdmVjdGEuaW8vbmFubyIgd2lkdGg9IjIwLjAxMDAwMDIyODg4MTgzNiIgaGVpZ2h0PSI5LjQ5NDcyOTA0MjA1MzIyMyIgdmlld0JveD0iMC4wMDAyMDYzODQ1NjA0NDI1Mjk2MiAwIDIwLjAxMDAwMDIyODg4MTgzNiA5LjQ5NDcyOTA0MjA1MzIyMyI+JiN4YTsJPHN0eWxlIHR5cGU9InRleHQvY3NzIj4mI3hhOwkuc3Qwe2ZpbGw6IzQyODVmNDt9JiN4YTsJLnN0MXtmaWxsOiM2NjlkZjY7fSYjeGE7CS5zdDJ7ZmlsbDojYWVjYmZhO30mI3hhOwk8L3N0eWxlPiYjeGE7CTxwYXRoIGNsYXNzPSJzdDAiIGQ9Ik0xLjQ3NiA4LjQzYTQuMzEgNC4zMSAwIDEgMSA2LjA3LS40IDMuNjggMy42OCAwIDAgMS0uMzkuNCA0LjMyIDQuMzIgMCAwIDEtNS42OCAwem01LjItNS4yYTMuMDcgMy4wNyAwIDEgMC0uNCA0LjMzIDMgMyAwIDAgMCAuNC0uNCAzLjA3IDMuMDcgMCAwIDAgMC0zLjkzem02LjE5IDUuMmE0LjMxIDQuMzEgMCAxIDEgNi4wNy0uNCAzLjc4IDMuNzggMCAwIDEtLjQuNCA0LjMxIDQuMzEgMCAwIDEtNS42NyAwem01LjItNS4yYTMuMDcgMy4wNyAwIDEgMC0uNCA0LjMzIDMgMyAwIDAgMCAuNC0uNCAzLjA4IDMuMDggMCAwIDAgMC0zLjkzeiIvPiYjeGE7CTxnIGNsYXNzPSJzdDEiPiYjeGE7CQk8Y2lyY2xlIGN4PSI0LjMxNiIgY3k9IjUuMTkiIHI9IjEuNjkiLz4mI3hhOwkJPGNpcmNsZSBjeD0iMTUuNjk2IiBjeT0iNS4xOSIgcj0iMS42OSIvPiYjeGE7CTwvZz4mI3hhOwk8cGF0aCBjbGFzcz0ic3QyIiBkPSJNMTIuMzk2LjU2YS4zMS4zMSAwIDAgMC0uMTgtLjU2aC00LjQyYS4zMS4zMSAwIDAgMC0uMTguNTYgNS43MyA1LjczIDAgMCAxIDIuMTMgMi45Mi4yOC4yOCAwIDAgMCAuMzYuMTYuMjkuMjkgMCAwIDAgLjE3LS4xNyA1LjY3IDUuNjcgMCAwIDEgMi4xMi0yLjkxeiIvPiYjeGE7PC9zdmc+;" parent="o_3mLYSUMHdXF__UBMAF-762" vertex="1">
          <mxGeometry width="30" height="14" relative="1" as="geometry">
            <mxPoint x="15" y="23" as="offset" />
          </mxGeometry>
        </mxCell>
        <mxCell id="GmEKnKSyr8c-gKUxN58G-8" value="" style="shape=image;verticalLabelPosition=bottom;labelBackgroundColor=default;verticalAlign=top;aspect=fixed;imageAspect=0;image=data:image/png,iVBORw0KGgoAAAANSUhEUgAAAOEAAADhCAMAAAAJbSJIAAAAhFBMVEX///8AAAABAQH8/Pzr6+v4+Pjj4+Py8vLU1NT29vbu7u7n5+fExMSQkJCamprw8PBZWVmzs7N7e3tpaWm/v79GRka7u7txcXHW1tY8PDypqakoKCjd3d2NjY2Hh4eqqqo0NDRQUFAaGhojIyMQEBBgYGA3NzeYmJhSUlJ3d3cXFxcmJiZWrq4IAAATG0lEQVR4nO1dCZuiOBOm5BAVkPsSEVQ8uv////tSFcKl9szsTrewH+/zjNra7qa6kqq3jiSSNGPGjBkzZsyYMWPGjBkzZsyYMWPG2LCKtXcP4VthHaEKIFq/exzfhgtE7FE5QvbukXwTrhDQcwzFW8fxfSjB4C92sHnvSL4LHmjX3EoPFoD+7rF8D0I4QI3/qA6lk+3BggE+3j2S74IGCy7h9d0j+TYYwCU03j2Q74McoIgQvnsc34gVahFu7x7Gd6IkJdqGpmiZ7jjhf86qyuQsFtDiv2Z1IiaTRSJWNpkdAPXdY/qrYP4QTmf2sJOQn5KEq3cP6i9ic+EysX8nz9txHSbvHtVfxIF7QwJfjvjCfPew/h6ijoC1KunpP+MchwIeay0CeP+NSGPdF5Axt+3hJmSEyDI28ruH+G9hDyVk78lhQHaHI4kmPmEHszTn7+rN2yTlpCds1BNFePqD0ZUcYPvmUf4bmCDEu6WxtAGb3j3CuatbSN88yn8Dl1sVO1RXmyX7GVx8NxcstZbQffMo/w12aFOKWC/5JD0xN8HMp4WvA+8uNMl+sCbK4wxolmD9gj24HhR7A/1Eb5Va7x7sP4FWk7Rm0ZGsgVWXMbK+vdlNLisupz1fQdKVe0METivJGFK6/VvH+2dQQ9OGge4SkyejMof/jsXWY58QwG4y6apDx1Iu+MzUt9vYMDSmwXu95PYBT2/0tHzOwymU4tJ+yJQbmp8Htc+/6Ux8WnEmFF5L3zjOZ/ZwGT2RWzdBEgb2+iYNWpWy5wqgwF8TMp9ukRXGmdKw8BWzt+Nmco5wDR/47wJDg8LkLmUpxKWZO/FKWkJA0m2EETLZR8friLmcQ4yl8uOauyyGILtTWkJPV2ZjmeYScHr/AahGa3e2aFr0zH0mnDA8cScyzJlAmeQ5TSHcFWz2MlYZZd/Kd6+UB144YGjMMEFmtJxGbggrU67yw2P/LWxNeCXe2UWtGOY9SIKqsSZyrEhyq1S39aN2O3VHBOuJeJyuXWP2seqCnaYnFk69SAtbHcubSqtobIR1exkmZwiX3OBK0lLr68YTZp6SouHq5UaKxqVF7VG+hWcZS/H58hfc09jBnelWztKkdpd6PKoawKbHRTG4jfkHSxbH5/bXE27joPktmx9NUuUuEumdUeAI3akJbeU3NPBDuLz8pmYl/W/Qmyny9yr+1jH/EXLhyI73Q6buqNxUR32hz2yI9XRJLWMnaqnpqIN9pU6EuiQVL/1CQOyLzb/jo2tTdCe3j0K24nA4wemHx/xn2JNIbm0YyHHXTV9SiXIIi6EfzLvr2rtuVBHc2EpVtiOX8IjTkq2jOErKFOkl/mzXqmNM28NnvTMj+Yx2U72xlu6oDOcQKxTIof6SE/EV40Ry1CHtyj1Kkn/pBFJYU7T62ZkQlg//3fEgZhKisYS2wyuzyqLjIkjkHhMYOoIMRklEa6CEzKH77Olpt4UedPkcHJfhHYalRGXUVQwFqLprQpPFlmPd35d8mhpJJ85HUCFY8fOe0pbj7p1iw454Z4IoRXBZZEnff5DZIQEXlXn3bs8r3dtxl4fRSvKiIROVbCJZk09b2E1RqHmuJyNH2jfqMo0OaEuruuyS69kdGoaKz2ch4XN7CWe0NOPuYsASNtIXUyqFwxvEGfjm7Xn4ZMBOcoyRF6LQmuYpc+LV0xifSMzLHoU7WMb+QK39IwbGO8fnCTYM2DVde92bsAPdNFyofnC4/wCpMJgPQT4ZIcQrGZfM5hary9j7pdRnKRpDjQ3fFPZFe0E81wDKjn3//IPD/SfwHgpq7PFyWKGnO9S/81yJTMJjql+EqkcLv1f0LHJst4Q892LmBxb175A3XA7llHl4NXoJ5S7zxA0IyEVdWZIdwdN4zkZ6tJlXojPRuIN8hgo6DXqRuudGpg52a09vM4cR2g9fJdGuo995EuLCO3Uo9pVcCGOq0DTOpBC9jAKd0W9yw7IMOE0Q6F2xIVEQmrq/G7P+A2raGFh/1OEToQCvkzQ1U2g6TRpnrhRQDXyGLmIoH/yfHO0/gQllr8gtGFtZ5evOLw3zimLa+o1TGS30fqKCvwg6Ya7nMfe4dgcrUay+cPytQ62/gOOtqKdo6/ygyjbO6fZgTrR6YaYT6KoJGgk/FUmhaLFsP2Xuw1tJTMahU9iLz0ceXEi841KYl0hHs2PVE08OHKpe4FLbDGP5FdfzvfvnGCkM1NqN0hbnI5G25qMYCk2NOla1C25dk7EHFxInmEemC2Jt2IXQsJcUy4vMJ2Z3OD9yM256YAqbTZHDbDLUZK6s0J7yzphYWiU6ExEFVg8vCrsq+/aY8/ocqLcFevqAIotFPSfD89qAQjftr2nZfQJt3z6Iji+DN1iC7WD7zxWuAI+EewBz/LSt7msjMc9NhYm5DBmVC7IqfZnWzsdP2+rubkFHgxO1Pm8sFuBinV6qpLyX19Yw6c/1FsqKZI+f1FDLD0ZL9T78RV3HSNkMjSi8kK+S2rIcDeXlU9OUI+k08owpwaF4MGzKhLUT96Cl3lo7U9c+OkqK/6NVpfzGUn0/2Cj9W8nsfs3edqQwOewEhdtK7db1Q97REGeWHp7GnqlBnBiPAdUXSqRuEZnXCjV5Q94AZLtTDD1wKifpMXZ9TWBHG7MokrOXzkJE5KBIAUJGrKWUnH2Ub+DcRFCHOsWBwkcwgU5vH7MUdtOLT0tLwdSFAp/Uq6+HPqgB7X2uvyBahcwNTMFdLLGV29gs26LvTsW8or6tj1bwQAY3bI0KI3PcmmqYl5uAu0BpHObjbtxhnO0j3DH4z1T2zBArO6kCo02hYrHYwzl7AE0be3GGgKyUUZeUSxiYgJ1DKVtgZxTJx+y2gZv0m+2V+AU0SJ7DTNLnO4f+m8BZFy71rJml99o+Fnvqt0EPSbFjo0SXpzoiecm8zNjT3ogd9iEabmNqzi5zDV5lXW7YA0xb8kPiBeILKl+TobFi0cWo+zFqWDTrIqHD8wktpNVt9jKYudkbbdW+zpjKOImncDII+oa7VBtTOG0xz61J+x3cqM29CLBFj7mNZ65vM4FUjSRRq4IsyolcdQGqNjjARwmLG8DzfoVYWo2/wkZwiKUYbc/wgrrdaFebr9sg2jIfsPSZkxlRV/BLIA099TfkkydHQ4ou4mXxSdWl6yR8PgWJRq/qzdWWAfzq5A99GgsRXWLRTFM+VZmfW+d7AKv4uv1+IocQJRRM9KbpXVI/sOFGlzh7ewVv3P17Asyj68DWVFeJNS5Mhq+WWjgJaiqx8NCwyq4S2bo0KhJRS7/cdqBOZJpemcE45k5PQsYFcrQ0+tfWphzjlrVHrJgH1OGetDVv7gNlI8ScKk5Tiwe7D73d6TSsKaOlrlR1u/g67bFHiuRVTmw2w6hem8iRLmyccv9oiJbI5F/s1zLQX4y6V7iBzcYZdFQIsDvUgeJSkE8H04j97FpiMVv7itWNCzETI2yX4ZlOcbnz2tPqZquyobB4t8ikqLcS9wvc3z2BjJuE+ZqD1GnNSM7UXWvzwaPbsOgxy3reIQNJTka16/A1mFOot+yJCIM/kc6wL+WEzgR2UnDquseKq38SCMB62lUL7rremUE/xjocOyLKkl5M5UwepifZgr4O65eeYTXxcS7tevtLDYonJ5Ddl1CJkXSpJfnIB+dE8hcLZn/QtOy73+LZqimAKTFei/XnKK3ZOTdZqYDxUBOzVK1BTfmJrpPw+ozUFJgC5iJ69yatcZXWfPsvJk0TErXbsycX7APvXYP+I2hoMq69XWv4QuGUVLeSZntGT8JMXcBUDhx0MQXlNbrLcZvlPdFrIrN0m/bTomNZjJxZG3v0WxM4WIiR8H4+rj1Ps5tSvXar+zY+i/7hEFvGTQv2pWm4fQvnKeOhcP7g6e4AxAoTB5o9TWocsKV6Cgl+qsFoVKYIbT4lsbWPf5TdxM69x/2/GiXmJhHsG3RcBO68ONTdC3Dj1PQI54Xwik93IWwv0wiFbXTntE/hs+nP4DrLO7z86YTcTIO8bakStQPoyFN7Ar1tKQYvHvA0VHQ+DZeRUtuo2+GlqXHkygm6XBX6nfo5ErmJUJsCi231kbSC0xi08vwBV+1a1TWGwX7bsjFmaFQT7RwODSAShjqIrVLc0HZd4AZDqts07sYwqZ6o9BR24lNSB3HqLhdxuO6Ux8MlRglmZ1xNurcStnpk/jJQjQh9CdR3KDTAmWzBJBLEGRXV9OEGdntNHbdwiqVlvZWvt3uNyvvBNDi4RZsQhikNZHQKtqBi7katwIeBwvCounUveBwvSBO9aVqvvlTj4XCVSUb5IEzukME9TSCnsR6WTBcslHLoiK8z2LyZwZfk4XUCBroM83Xhf0zwMVd/6mb5vSKAXcQ3Cjn8RKLHk73PyL5d+LqoOhJga5fedRgXlMrNsHxTOeuQe437INvtUzgZTSO9WDBjo7dZRSZNapl03O5H7RDp8da3nHcKoXIY/+ZLWoqhJMVO03hK78qGR4JRZup6MJm1CXqBRkmilZNwiwbn0aK636Qz5GtCgb8FQapKK2Z3jt0aMXXfbH7ZpjIK1BeTNkps+dg6h6MuLW8A5lqS4/SSDLy82zmeacywSSinWYmdRbejFu+MOZBTdb/emfXpeUaN1un4E+EqX02dwBdObuo414jszAfeK1A2Vqe3KdikE4zGv4tW531tncLFI1rOE3TdYwIlI+fJ6FuIU+LWah4Eda67Ms88bvKwgurTyYqtjB3vKBdcs6NPMbr1sJttQ0nCJawoxW/RIeatiJ1QQ2VL9WzD+Bejx6Mht12LYrryx6Jsj5qAfkXfhh12AxRjPwHlxvmJN4ylOmKxV9cw58e+dE0qtlThhTVjdxtMxGrVPZy8Ee/TQqnYGl2Q7mQMi4/dcEPf0f0KEIy8WcPms8+Drhqxw53NX/0GEaYEsEHxRNrs79Hn56WM/taWiM8+t3dbS771KJ0T76A+7rW+9DrplS9kk7/7Me49YGxB0bkDit0/BJz921HR+4N3bDhuctoFw7Ai5BeABKM+kciiLW1S76JL0XBDOTd8Kq3sRfUpu37iL7w+kKmPjRXlP57OwgOH1fpFx12IPo3WYRSe6+6fGE9+ivv+NzjOEm2T9fObqDcfsCB+wrUIp7ysyU10eiB1T8NfPcaP8l/pkSed0/MbbBP70waHdX2U61k3RGY/zuF823XX56s/P20cB+/LPShi5/xbUpJkFS9Bw2EWzRkMQVvmwB/9VzYl5dapOLysFltiNrynOGC00QQJd6kasUpRMS6XTFUvHbwj/iie8TSnakV8Mrzt5Ju1uPOD+omg7zpqBRaXr8JCvQknwXv0kKmt1aHL+w5DvwtRjr3gUMh58wLMxCXMJmnPzaacQ1UJi+Q5vdXmgCD072R5tSnFdpR9Dr0mRvbDscw9pKngndpsm98vDK+sgC4043+jXR4KKVtH9N6gchPwaWZoVH8K/HK41aZxG9xo5lcmlJ0UZeQ0qlkqstH+4tFL9WVbYX5/8gMnU3rgpXBIlMFNwh1xqbpo5hgk1/hs7+ZZDw5+XzSTAWya4Iq27d6l9aOtgStGxb2txeK+ZT/gGIroIqV1jrV4Nu0z8popqLtd29yC/VAkCfEI2+Lhs4rh6V5XVFXdZLHuG98eVVPnM6NXhqREX8hYD5mxVtMFOvkFcWrT4ZnjnTsyJsnu3JMUp/DdtDx4QPHt1pZZnA9jY++YjPzWtqeC0geFC55H5nHDmOkGHca+Y0M1ix905PKjp9W17uyj+q4eaAQ2+gIufuBoHIzog3jtJnjvDhvILnia51jUzXGKREcwa5JST9riHgpmE8OThkB1XWGeWSxVjNFSbUNnGm9oYf9AGRYnaOKv0oAxLD+4SgkMFQni0jrGUUxg1DaQQmATPOUMFapDrMQWnUkJH4FdBUVRssjEN/RMD3HRfgi+S2o7evt7mRy5Dhc/UmjWcIFcl5nJ/m90xeA5aY0H8nNG06PafzI1lHjlmeSBg5lGOLbX8wxtTfP24A/W+f0v7qP6yzLS0Yp1uOrb4G50y27Gh3eVXgSPpb98hdzaAy8DywBX/8IQf42fzPwsr9hQZHHTppjgMUOuHbxWDQ9aYLZHKoM7ZN2tZH8gG1ndn63dUdVUXNTpB5/8UiHNWjwxPc1V5mD/uQbpe5+l6f988IhtUgB3LqTGVqR99bVu+19nkO3DbwooVh6D62RvvIKJhLQPxD2dquiZkWawf6i0nv0pR9Bspe+Ra1WWgbNopTt5+dRCtqP/tXjVIVup6tofz77/deiS+grPDGPm5OWN7qRX17OrKE+NzSF4IvIzUekTzx9pd5WqWzwBxwSNrn6/YXrFeLNh6LqmyrKs6Bbud+japEbwyhl5eVXWfCsSs7Sw3TTMNgMrsWL6vTI7bOa95RZVXn4YwZr7XWx039rfbw2BOSY327bLoDhDHx+XyHT0Md9W90ssFc1wDiZbk8LQLk5B5d1z6xDqyqRFmzFjxowZM2bMmDFjxowZM2bMmDFjxowZM2bM+H/B/wA1gfNcpb7fxgAAAABJRU5ErkJggg==;" vertex="1" parent="o_3mLYSUMHdXF__UBMAF-762">
          <mxGeometry x="119.85000000000002" y="7.5" width="45" height="45" as="geometry" />
        </mxCell>
        <mxCell id="o_3mLYSUMHdXF__UBMAF-766" value="Forced/Schedule Trigger" style="text;html=1;align=center;verticalAlign=middle;resizable=0;points=[];autosize=1;strokeColor=none;fillColor=none;fontStyle=2" parent="1" vertex="1">
          <mxGeometry x="110" y="100" width="150" height="30" as="geometry" />
        </mxCell>
        <mxCell id="o_3mLYSUMHdXF__UBMAF-767" value="New Data Pulled" style="text;html=1;align=center;verticalAlign=middle;resizable=0;points=[];autosize=1;strokeColor=none;fillColor=none;fontStyle=2" parent="1" vertex="1">
          <mxGeometry x="65" y="292.5" width="110" height="30" as="geometry" />
        </mxCell>
        <mxCell id="o_3mLYSUMHdXF__UBMAF-768" value="Repository" style="text;html=1;align=center;verticalAlign=middle;resizable=0;points=[];autosize=1;strokeColor=none;fillColor=none;fontStyle=2" parent="1" vertex="1">
          <mxGeometry x="225" y="300" width="80" height="30" as="geometry" />
        </mxCell>
        <mxCell id="o_3mLYSUMHdXF__UBMAF-773" style="edgeStyle=orthogonalEdgeStyle;rounded=0;orthogonalLoop=1;jettySize=auto;html=1;entryX=0.5;entryY=0;entryDx=0;entryDy=0;" parent="1" source="o_3mLYSUMHdXF__UBMAF-770" target="o_3mLYSUMHdXF__UBMAF-762" edge="1">
          <mxGeometry relative="1" as="geometry">
            <Array as="points">
              <mxPoint x="743" y="510" />
              <mxPoint x="475" y="510" />
            </Array>
          </mxGeometry>
        </mxCell>
        <mxCell id="o_3mLYSUMHdXF__UBMAF-777" style="edgeStyle=orthogonalEdgeStyle;rounded=0;orthogonalLoop=1;jettySize=auto;html=1;" parent="1" source="o_3mLYSUMHdXF__UBMAF-770" target="o_3mLYSUMHdXF__UBMAF-776" edge="1">
          <mxGeometry relative="1" as="geometry" />
        </mxCell>
        <mxCell id="o_3mLYSUMHdXF__UBMAF-770" value="" style="fillColor=#ffffff;strokeColor=#dddddd;shadow=1;strokeWidth=1;rounded=1;absoluteArcSize=1;arcSize=2;" parent="1" vertex="1">
          <mxGeometry x="650" y="414" width="200" height="66" as="geometry" />
        </mxCell>
        <mxCell id="o_3mLYSUMHdXF__UBMAF-771" value="&lt;font color=&quot;#000000&quot;&gt;Register / Promote&lt;/font&gt;&lt;div&gt;&lt;font color=&quot;#000000&quot;&gt;Models&lt;/font&gt;&lt;/div&gt;" style="editableCssRules=.*;html=1;fontColor=#999999;shape=image;verticalLabelPosition=middle;verticalAlign=middle;labelPosition=right;align=left;spacingLeft=20;part=1;points=[];imageAspect=0;image=data:image/svg+xml,PHN2ZyB4bWxucz0iaHR0cDovL3d3dy53My5vcmcvMjAwMC9zdmciIHhtbG5zOnY9Imh0dHBzOi8vdmVjdGEuaW8vbmFubyIgd2lkdGg9IjIwIiBoZWlnaHQ9IjE3LjUiIGZpbGwtcnVsZT0iZXZlbm9kZCIgdmlld0JveD0iMCAwIDIwIDE3LjUiPiYjeGE7CTxzdHlsZSB0eXBlPSJ0ZXh0L2NzcyI+JiN4YTsJLnN0MHtmaWxsOiM0Mjg1ZjQ7fSYjeGE7CS5zdDF7ZmlsbDojNjY5ZGY2O30mI3hhOwk8L3N0eWxlPiYjeGE7CTxwYXRoIGNsYXNzPSJzdDAiIGQ9Ik0xOC45MSAxMC42M0wyMCA4Ljc1IDE3LjgyIDVoLTMuMDdsLTEuMDYtMS44NkgxMi41VjEuODhoMS45NGwxLjA2IDEuODdoMS41OUwxNC45IDBoLTQuMjd2NWgxLjczbC43MyAxLjI1aC0yLjQ2djIuNWgyLjI2bDEuMDUtMS44N2gyLjgxbC43MiAxLjI1aC0yLjhMMTMuNjIgMTBoLTIuOTl2NC4zOGgzLjRsLS43MiAxLjI1aC0yLjY4djEuODdoNC4yN2wzLjI4LTUuNjJoLTIuMDlsLS43MyAxLjI1SDEyLjV2LTEuMjVoMi4xNGwuNzQtMS4yNXoiLz4mI3hhOwk8cGF0aCBjbGFzcz0ic3QxIiBkPSJNMS4wOSAxMC42M0wwIDguNzUgMi4xOCA1aDMuMDdsMS4wNi0xLjg2SDcuNVYxLjg4SDUuNTZMNC41IDMuNzVIMi45MUw1LjEgMGg0LjI4djVINy42NGwtLjczIDEuMjVoMi40N3YyLjVINy4xMUw2LjA2IDYuODhIMy4yNWwtLjcyIDEuMjVoMi44TDYuMzggMTBoM3Y0LjM4SDUuOTdsLjcyIDEuMjVoMi42OXYxLjg3SDUuMWwtMy4yOC01LjYyaDIuMDlsLjczIDEuMjVINy41di0xLjI1SDUuMzZsLS43NC0xLjI1eiIvPiYjeGE7PC9zdmc+;" parent="o_3mLYSUMHdXF__UBMAF-770" vertex="1">
          <mxGeometry width="30" height="27" relative="1" as="geometry">
            <mxPoint x="15" y="16.5" as="offset" />
          </mxGeometry>
        </mxCell>
        <mxCell id="GmEKnKSyr8c-gKUxN58G-7" value="" style="shape=image;verticalLabelPosition=bottom;labelBackgroundColor=default;verticalAlign=top;aspect=fixed;imageAspect=0;image=data:image/png,iVBORw0KGgoAAAANSUhEUgAAAhAAAADMCAYAAAAiY5r0AAAACXBIWXMAAAsTAAALEwEAmpwYAAAAtGVYSWZJSSoACAAAAAYAEgEDAAEAAAABAAAAGgEFAAEAAABWAAAAGwEFAAEAAABeAAAAKAEDAAEAAAACAAAAEwIDAAEAAAABAAAAaYcEAAEAAABmAAAAAAAAAEgAAAABAAAASAAAAAEAAAAGAACQBwAEAAAAMDIxMAGRBwAEAAAAAQIDAACgBwAEAAAAMDEwMAGgAwABAAAA//8AAAKgBAABAAAAEAIAAAOgBAABAAAAzAAAAAAAAADLDxmuAAAgAElEQVR4nO29C3wcd3nv/ZvLrmTdbUuyY0mxnKtjhdiJExKHEjuQ9gVOSxIokBZKnNAX6Oc9LyEthXMKL4lz0kM5pS0czjm9vAEcoH1JCyW0vFwDsQO5OSSRnfhGEse2ZMeRZFla3fYyl/N5/v+Z3VlpL7O7s6tZ6fnCxLqsVjOrnfn/5rn8HsW2bRsMwzAMwzAloJbyYIZhGIZhGIIFBMMwDMMwJcMCgmEYhmGYkmEBwTAMwzBMybCAYBiGYRimZFhAMAzDMAxTMiwgGIZhGIYpGRYQDMMwDMOUDAsIhmEYhmFKhgUEwzAMwzAlwwKCYRiGYZiS0Uv/EYZh6pXhyUTW522NGtoa+DLAMEzp8JWDYZYYg2NJ7B9N4IXRFI7HTOwfTYF0w0TCKvBTKta3aehoUMW2uUtHX6uOzd06dvQ01HDvGYapFxSexskw9U0sYeDHL43hl8Mz+NbJJEZSGjRLhWrrsOgewS4hU6lkRIatAJZioDs6h+tXpvCZN67F1vXd1TkIhmHqDo5AMEydsuf0HL736gx2H45hao6+osBUNee7KiwFKPnuQMl8aJGYUAyMGAoeHtXxkVRw+84wTP3DAoJh6ownh2L47K/O4ZEzpljxNVNLL/yarQnhID9XYSskIfLLCNvyITFsukyoGOhuC+4gGIape1hAMEydcHzKwCf2nsO/HZtBKmKIrylWZEEzlWpT9MD7FUukI3Ki5PuGK0LoEmFhS2cj+toaKz4GhmGWDiwgGKYO+NL+GO59ZhpTc0nYWlLWKigqRAVTtaqYqHZCoUuEge090Sr9EoZh6hUWEAwTYiYTJnb+fBwPH0sIoUCxBlkYaYnPRYai2tgqbly3oga/iGGYeoIFBMOElKHJJN727ddwdEaBplgi0GBRRMBSoRnUZQHYmgnb0zkROLYB1VaxvYcFBMMw2bATJcOEkBdHZnHjd0bx0rRC/RQijWCpFHVQoVq6aNPUqh59sKDaFt64yhTeEAzDMF44AsEwIRQPb3n4FEYNLXOG6sKUAbqpQbdtKGpctFjKGoXM4p5dPBkAioXfPI8vEwzDLISvDAwTsrTFLd8/J8WDE3HIID9WKCJBKY0SUhdurYRNzyF+Tj4HFNc3IgdUZwEL77iY2zcZhlkICwiGCQknY0m8419ew8kZBaDuTBIPdkQs/rZtQbHJ1wFIqSQCorBF9CF31CHTtil/LkKWEVDFzwrhoSYdEaEBVu7LAKVONNvApu6W6h00wzB1CwsIhgkJtz86gV+TePBEFkg8UBGjbNVUs0yi4I0m5EXN+pdEgdASPtne08TDthiGyQlfGRgmBOzaN4E9w0loKqUmDECTIQTbbdekSIGtQkn3bTrfn/c8XsMoKT7oIxVmOhNiQLMAE46vgxO+kI9byJt7WoM7SIZhlhQsIBgmBA6TZBJFakC2aqrOwq6K9IOIHuQaiEXRhwKdGGIYVtZXvJ85z2mLqoicRK04blpXoEaCYZhlDQsIhllk3vrt16FZRpbPA3VbuJbUIqrgRh5yFk56JYDn++mfNTxCQ47r3rI6gg0tOta3ZEZ4EzTye/9oEo+dSmDq7ASu77ukegfOMExdwwKCYRaRh14cFcWT0FJp8UA+D6JVE5aMRizAKyKK921qVhL/YY2J397QhrddtBp9bQ2+9u30REcJR8IwzHJDsW3hps8wzCJw8ddfwsvTCqBSlECHlmyRJlHqnIg2pKjbglIZztArYSblERCKU8Nguqex+H6GHb1NuH9rI97Uy50UDMMEC0cgGGaR2H1kCi/PaOnBWBR9IITzpGI4Pg+6DDKkp2ZmBIIofBReDaqckeFJb/S36njwLStxQy9bUDMMUx1YQDDMIrFr36THg4HUgCpUgUFRBEVPly14hYEbYLBtU0gJISso+uDqC9XCXW9ow73XdLD9NMMwVYUFBMMsAg+9OIbjMbKidrohLG+Kgpi/+Of7eqawkrom7ru6BZ+6blU1d51hGEbAAoJhFoHdR1PQoNG4qizvBv/Iwd4iSqFQsaWJ+65qwqeu6w18XxmGYXLBAoJhasyJmImfnnZaNgu6SPrAcaK864oOfGpbV1C7yDAMUxQWEAxTY/aemoNJ8yxEFMGQw7F84z6W6h5ozoWF/nYN975xdZX2lmEYJjcsIBimxnz9yEzlkQePVfXPbunlgkmGYWoOCwiGqSGxhIE9pwzRlWnTpMyKhISKD17WhvVtNLqTYRimtvBtC8PUkCeGpoRhFOGrdlI81k13yGYNcqekLWIlcc8b26q7wwzDMHlgAcEwNWTfiRkxIEu1oh5xkIFSEnKTBlE2orDtxvT3bVUVG1QNf3hZA/ranamaDMMwNYYFBMPUkBdGDd/1DyQkqEhSPt7b7klGUxY+de3aau4qwzBMQbgGgmFqyI/O2FBVAynVElbV7pDNXCgwELEt4RVhCDtr6f1A21vWNqG33d9QLIZhmGrAAoJhasTgWApJVSc5AM22YCrFg4BiLoaIOGQeR6Lj9o3N1d9hhmGYArCAYJga8dhwQggHMQQLuphrYarkIpl5jPdjelxKXWhlbds6tvdk6iIYhmEWAxYQDFMj9p9NCsEgJ29nOivy1USQmLDdyINCtROEjpvOU7G+jU9dhmEWF74KMUyNeG48iWTUECaSmqEXrH8gpHhwRUZGbLxxVZEfDAFPn5wU/1rFDrIA2/o6AtwjhmGChgUEw9TIQGrwbArQpAu1qQKalZ2yyAs9xvGOoMmdv31huOsfTsQM7PjXcyLakqLjLQRNInVxx5YrFrasbsDz72MBwTBhhgUEUzPuvvtuDA4OVvQcu3fvxvr161FvHByZFcIBpmMiJdozUaSl08qIB4siFqooqhzoDreAGBxLwtBN0XaqQM87bZSORzc1ISJkLYgFqDJCc9VqrvFgmLDDAoKpGSQe9uzZg+XIwZEZcYNtq/KUI6MosrGmQsl8UQiK/pPdNeixjsEUDc5qayh2W7+4PPoaDQuT+yvJ3Wmi2ioUyzHTsh3xADLZArb3rKjlLjMMUwZsJMUwNWDf0GTaXZLuuEkz6FZxQynq2lCUJKDOwtRncXmXLwPsRWX/WNLfA0X6gtw2AUszZArDUqHYOjZ3ssMmw4QdjkAwTA14ZdqUkQZaLSmaYJWm3W1aYKFiS1e4ow/EntNxaD5qJy3VgurWPXjojhjY3MUCgmHCDgsIhqkysYSJJ85FYWvSSVIRlQxRp/qB7ta9i2i2sCAXSpHGoC/bKnaE3P9BpGqKpC6yazziTtpChSVmfBi4pjNR/R1lGKZiOIXBMFXm+bEU4lqjKIh0axko/5/tBZEP5zH0eCuJK1eHOwLx5NBkOjXhCxGBcASUIzxu6Gmq3g4yDBMYLCAYpsrsPTUn5lpQoaDoSKBuCtutgcg4TOY6HUWxpSgSALa3GWgPeQHlU8Oxkh5PERYxopwqJymlYam4vre9avvHMExwcAqDYarMgXlFhWKxtFxnyWLTOKWsIK1xYQtCz6tTpRlHZZw2rXRr58AajkAwTD3AAoJhalBUKNo1PVEFQ/UZCKSJnY6YuL63I/S1Hk+O69IsywcUjaGJpOIApUzC5m4VbQ18WWKYeoDPVIapIsOTCUxQnaDi9UVwFs55w7OKEXYDKar1SKqNWcfpnSKaE6qXoMc7RaLrW/mSxDD1Ap+tDFNtB8r5ls1lsqk73KH9vadIKflHOGtaMlwhRpsrFhtIMUwdwUWUDFNFnqKuhApwb+bJWCnsof29pypov1QsaNYsrl4d5B4xDFNNWEAwTBU5NDpd8PuypdO7qenNKyLqIbTvdaDMl5mholB3I2gGhkkmWWocrdYY3tTXWpudZRimYsJ/VWKYOoYGS5VPZoT39t4GhJlDIzOYSHj2mQRCDpfJnIhCSgM7eth9kmHqCY5AMEyVeHF0FkNmMHfUW0I+G+Lg6GxWQWi+CZxeKOISMVWoNKHU1rGpi6MPDFNPsIBgmCrx8pSCuFbJwp+5gw/7cKn9o6UVUHqR6QwVb+pdGeQuMQxTZTiFwTBVYu9piulLp0X/WAvu0jd3NqCjIdxa/6dnRM4ifayylVPuc2Y2xnwspyCCiiF0vKGrDpyyGIZJwwKCWdZ85ufDOGWvgJK37K989lTSleDhxJSJO382jmrgphoU28bb1xp4z8Cakp9jImFh37hd1mtoKWTvraK/VUdfW7gHhTEMkw0LCGZZ85cvxpFULShK8AIiKGiB3n1kpsoCwsLb15a3gA+eTaWfy402+Im60GNcK+stnZGyfjfDMIsHCwhm2XI8ZiCphru2oJZs62sPoNOEUjB+0y30OEWkO3b0hLvLhGGYhbCAYJYtx6dSJS54tae0+onyoRRCb5kpBGkg5X0N87dvZtlc0+fUgcERCIapS8J75WSYKnM8JkPvjIUdveVHYgbHynsdpaGUhUYzji1dfC/DMPUGn7XMsuW4GD293DU0dUJYeOeG8gZ1DccSOD5lFKityHxOH3sjKios2FoK21bOob3B5whPhmFCw3K/ejLLmP1jCxe+5SgeolYcN64rrwbh4Ij/4s6F5lKWM8KbxQPD1CMcgWCWLRPJVKi7L2rF9R1G2RGAp05Oiama8/FGHrx4P7fo/kWx8ca+jrJ+N8MwiwtHIJhly+AYuSf6nNewhLmhp7z0BXGgolkfcmTGpjXl/36GYRYPFhDMsmUildcicRlh4W0XrSr7p3/wuvzXnSaaF2XhRtEIctjc1M0CgmHqERYQzLKklNz9UmegTAtp8n9IVOijEfYZHwzD5IdrIJhlSSyx3AsoJTvWrUBbQ3mXgb2nkul7kKJ+FTmiE1Qnsb2H7asZpl7hCASzLDk4Mr3YuxAKtq8rfwF/LIBZHzt6WUAwTL3CAoJZlpB/QThPRdnaWCt29Kwo+2ePTVdWQElwCoNh6hdOYTDLkqtWa7h7A4kIBWqZkzgtT2yeniOlRPDQCQsjKf+nlTv2Wg6WctofFQv9LTp+8zwdjfYcIlbudItV4V2C5aQwyk0BDZ6Ni1ev3PuQa1bboR9TzjBMfpa1gDh+/HjW5x0dHWILK/W2v2HmnVesxzuvCP55X/zGEYykoumOBBpXnQ/RuWCSeLFhChsGmz4CbAs7eiL4+7d2I6wcHJ0uOEcklxPlfC5tqi8r8bF4CjOGhVnD+zeVB9jZGEGzrqFJZ0HELB+WhYCYmJjAnj17sHfvXrEIDw4OLliMXWhB7u/vF9v27duxY8cObNmypab7S/tK+7h///70vtIx5IP2j/bbu78sLBaHQyMJqFFnqmUB8eCdRilxHqvUR2j/yaFzaXFQLjf0NCGMTJsWXp5N4ZVZEy9MGTg2beL1hJWzWNScVx3arCu4qEkX2+bWCLa0RdCisVkZszRRbNuuaTN8voXbL7Sw+4EW3IcffhgPPvigWJAr/Z20MN9zzz2+f3+p0D5+73vfw+7duwuKBb/ccsstuPnmm7Fz506EhRtvvLHivwW9f9avX48w8vjQDH7zX8fliHDFKBh9kKhQZOgBlpqUgoM0hQ3suXkNtldQn1Btfu+hA/j2aDtsJ/1STgTiid9px7a+NoQBiir86uwsfnBuFofjJmZFcESF6rpsOv8WExDzj1OxVFzTArx5pYZrVzWhqzF8U0eHJ4OpB2pvUNG6CMfndlSV200Uhte/tz24cfZPDE/iv+07Ds1S0GBo0ExVpFgp2Gmqtvj3b95+IXraorj7xwcxFJvFV9955YLXb2gygbt/fBTXrrLxpzdtzvm7avqK08V/w4YNVV1AaPH90pe+hC9+8YuBLMTu76SFnTZakIMUErSg7tq1q+KFdT4knmij56b9DZOQWKo8M24jqalQbLqgGSJFYSnFQtqeyIPMZiBixkMtHojnK3SgJMIgHg5NxvHYhIlHRucwZdmwFNrogusxxsph1e0LWwqQZ6ctPDudgDI0h6taovgPq3XcsHbxj93l/G+eKevnpLii9zu9dw383bYIPrR1HWrN5odO4/iMKcRa9v5lP66/NTuqpzpqj0ShpZh47JZO9LYFt5D7YSiWQP/XXytqqU+1QgvqhWwNqtWAq6OT+Kf3Z9YjsqV/07oO2NBhYAW+/HwC69siuGWDhqiVgAoTrY51/fdf1/DyTDN+59g0br8sO2r96LCFfzvTBM2ayrtf9SnZ8kDC4d577w1MOOQiKCFRLeGQS/zccccdLCRqwIGzM1CUWeh04XLFg63nFRGqTdMgTOeu1ilGtA1cvzLctQEHR2dw0m6AqRri+HLVQWTSG/J7NLbby46e2l6o53N4Yg7/fGIKT8dTSOgUOVBBfyZaFHVLRlVoU9OLUj4RYeb8qlsdYtLzOh9TtIbExIHYLL41FMNtfe24YW0rFpsLWqM4HivfF8Wkty10TDppnlryzy+ewfGYBcU5x9IRIwdvmu1EzMj6vlu4LP7ONjAZN9FbY113/1OT81KZuZlI0Jb9+moWEDXieM9NLQuM4bzmcF89egabzrPxn7atXPC8bQkLW1Z24OtHzy0QEN9+YRaXroiiMfdbXLAkKn5okaTw+Mc//vGqigcvJCLod1KNQqncfffdgYTzyxES9Ltr9RotN54fnxOLqqFaxY2VBHRBMGBT6sKNQFCHSMjrH54dM5BUK/NvWKwaD0pV/NUrMXzscAK/iOuI67oI6crFRIo4MeSLFppyIw8exKAxEpGQQpIW27gWxWG7CfeeMPGB52ax58ziuqK2NShpwVTq5mU4VnlUqlT+4unX0rboBKUNvftGX7ezvp+97654IKFxuMbutCdiBr5yhObxlIli4PwOC7de0VnwYRRdsdXc4q7BNHFlZxR7Ts8glsjcuJyaSOCJk1P47YuoTsleugKCwvRXXnllTRdj76JMv5vSJX6ghZuEg9/HVwP63bTPldaiMAsZPGvD1lUYERUpJQrLbix4itHFy1SdGgJRLyHvWy8r01q6VrwwmoBmqdAsfcEdXz68F3Fie5njwyvhB6emcOezI3hkJC5kAkELO+xGaGYUihWFCRIUUki4IXq3zda76ORaQL2Ie0pbvka0wY6KCIQcoW6ITYWBs/E4/ublKfzt0RGMzy2ON8kVnREhYkvd6FgoshQxLTSaBmZl4UjN+KdDozgw1yDPHdon1dmc/TOFkM9sIlIy7xgiJhCxLOi2gSOv11ZA/PlTE2IfrDI3Or5PbSsewbIpUphHBCjqLLb3RHF+u46HDp1Kf/3bB4fxrisjGDPiSGnm0hQQlLK49dZbF/2Omu7qi4kCV2wshtDJtS8kZFhEBMcTQzF5OtHio6jibtYNj+aHljEnBeAsKvThQHe4BcTe07MitF9weFYBGqwktnaWNz68HM4kTPzx4Sl8YTiFcxZFAjzttU6EQCUxJNIVhX0t/EWW0o+Wf1OKaYi7XKoXkDUD6X9hCMHy8LiKvz06hsWgo9F23n9yISbkPjrCNt8mkEKLjme6hvbwJ2MJfPpZivgVjoRlF7VmohNZf0dHBE/VcP+HJhPYfSQGS50nfrxbeh+d64kIimW+f1GriQ9e5iPnopAAyB2BENlWBbj9kk782zG6hkm+cWQE79/ULmqCSKgsOQFB4oFSFmGBRAR1fNTLgh3GfapnDlH4U5yndLfp3Gmi2AVJFQuXOA3pJNXkRfz6PqcNNIRQxfszEwkYqlgWiz7eKQfxoGJgRRx9bbVJYRybMfAnR6exf9qAoiqwNA1QNEDVROGaatpQTeqlkJtqyQ1UUGnbMG1FbNSsRptizdsULWujigd3U1Qblj4HVZsDxTYaLQ0RW4OGCKJWBFHxsSb2602rG3D35edhMdjQojs1KpZ475IYaDB0NJiqLEy082xudIaiNohieLJAsjxgvn4khpOTBhRbk5ulZjY7e1OzNu/kWFWIt5QqI4YHRmsXAfofgzGkSEOr5B6n5Xx9ZQQrKqJjFMGSJYtuTRGwa2sJrfp5xH5Skc/78StW4YenWzAUS+Lx4SlMa53Y3tMCu0hxZ10KCKo7CJN4cKF9mr8gU3SEoiRhXKhdEbHYEZylwKExZ7YGXXDpIibuPgvbUlMRJd2BknGU3MgZcnGLC4vxIhlIOdcUNw1QKps7a9Pq99OxBD5ycApn5hWfeYtaZcWD+3eikHx24V1lZO7WqeAtYropjUz0ZkVEw4fXN+Ozl7QumgnVhlbdSbnIzY0oKD5SVLbzetI2V2FdjF+OTxm4Z9+keE01Z3/ziYTCUTJLRADEpgCvTNfG0eBEzMQ/HzdltLLI65uJionP0lt/SxTvGyhc+5BG/I58ET8pSqjD48197aIm44GjSVzfKwsuVUsT79e8+4c649VXXxULchihhZgKFb1Q90M5hZa1FBG0j0xlHBiLycWCLrxioZCdBwUvYJQHV2YRwSy0lAqkdGxeFe7hUgdHp6BYtOhSRXsJczuU2rZvfmt4Cl84RsK4PJEzv2bDyrMVjzDJ2grxr7ijlMLR1JJY2QR8blMbfmfd4hpqbe5sFFEEUUQqRK8h6gVo810MbKs4OFObjpJdvxqjvYVWsdKjkzTubEkMWQ0Ymqp+IejuI0kcn6FIGNVvFFqCqehWzdTO0PkmHq/jnmv8Rx8oQgPkFu2yY0y+jjdviOIXwwk8fiKFuzbLc1S3FEQcr5rce1hn0GIXxrt5F6pxcOshqFNjMQsm/UL7GIbajHpmcGx+ukKe6H5OMQq7yqJEFVtC3oHxi1OzmW4F599SGeiu7oL5zVNxfO10PASXt0w4mlI+otsDOqIm8PudKv5hoB0XNi/2PgIrGxQ0mvF5kRc/EklG0ISYhCFSARMJu+q1D7uPThYtYvWPjEDRllJ1nK1BFmP30Rmfwlb+DUS9jscn5sJmA7df1uz794k0aZ4ogmIrzo0AcMfGJhx5bQ7dEQObu+R1SBOeNvlf6MV/95ZIPSx0btShnu7sKXLCqYzyeGJ4CrNqh1wsREEUiXo3b1mgIE/kjpucTVbpb+kMdwrjiXO0f40iZyy7FbLDxX5CxwPd/i9+pfLNU7P46ukUDFAXTNSHkZdfvAWWfp9Tpi9SmoW5qIGZKNAY1fGR/hW4/YLVoZmb0dagoU+bFgsJvQcp8qAiKbd5/h1e6G9M3QsaktCUWRFNm0xWtw5i16/OAYjCoPefc874IV8LqptS0iidaFsYHKuugviXg6/j+DQZMyWF54uIKuTfa2iIQxUREvpcRiLu31pakbVuadCt3CckvX4RIRKkAdVdVzbiz7ZlIoQaZhEvUO8cjnfwEsNt1wxzpGQ+tK/1EC0JI8+ctZFU5qce/PgIyAI0my6EioqoZYQ6AkG521emIuK4cllTz8fNpXtfiy2dEbFgVYPHz8XxwGsJcd9GxkbSyGtxL3HSPphEhIFLmpL4uzdoeHtv+NJU3RFZ/+HebMruAKczoyjUUmjA0Awcj1WvlXPvqSS+ejSzwFcegci8N+lvRNtglUMQn396SDjVUuRmvrlaLmS3UMatlqb03jawuqTfeXXDONarZFi1kIGWGNboGS+KT17fjXdclBEQvfoM1nm+v6SdKMNEPd7Nu50tPIirNA6MxWFSctu5GMlKcD8/SaFT1/FGxdvWhFvP7x9NioueTXdGogDUzc/6hwRENRhJmPjCsbgoqqP9E+6Pwg00mOdf26BiS5uONVEVaxpUtOjAT0aTeHwy/4JJIotKW4j3dkdw59omNJcZdfj6M6cQi5v4j28+H9Xgsu5WPDksLCWFaLDSxZH5f0Z8Xwg1C4ZOs1yAc1UsIfiTX8TE4msrBjQR4aOvln/OSBMpVUSI7AiJJWDSqF4E5VuHRnFwdgWgykiC0LYFBC69f0ynhdMVEfdcs9BNshjf/P2Neb/3lfdfV/BnP3nTlQW/zwKCyRI9VLcRxg6XMDM45llEqMKe8o2+7twcxAVbxeaucJ+Oe07PyZA2zetwcqrGvGLD3F0Ijp+AreKGKlhYT5s2PnF4GtOGApVmWeSYg5APGSGRBkNpHI+GrW0K3tyh4Y2rG9HVuPBv869nPHerTvpK4nopqGhXFPxZ/wpcv7K8455MGPjQIyP40VH5HuvrmcHNFwSfAmqNRrPacuWi5R5X/p+jNJaI9DjdJtWqgXjoxXPYP5oQa6+MxucfJV8ajggWxzDvXA6Y//xcHCmFZktIU6vix+BGSOT5c3GThZ0bwzXBNtxXrAqg6Zk03ppGW7vjrWmjRdIdj+2O+A5LXQXN1aAJmt6R3PP3mWoraGpntfaZnpsFRGk8P+ZWR8t4grizcZ0O5y0q2WTuLOgCMbAmfKFtL/vHUuLYRN5YXgFhaRbMvGLJazxEn6tViUB8c3gWryWtnO2l4uM8axrdfWqUYwCQ0pKy8wIq/o+uBvxWdwSb2wpfHoVRmKhgFxaHstpdoXtGeRe7pTWCP72gTUQsyuGXw1PY+ejrODaloUGX/iI790zgQKeOvoCHPm3qbgWOySFwsojH+UYB8SDukN1Dc9oNJ6pUA3HPszHRkSBbH6m2JffjXOHoL/Lk+i3osJPy3Ds+WSUBdHBUtJ9GnRZeMUdGHIuzHzkQHhbCJ8YSnU/3XxU+g7klJyBoWNRdd90lFuBc0ILsfo8WaoIWZxrClc8Iqtq4o8Ld/Sm2z67fRDX2mYQJCRVOY/jjKceBMitlIe62/VZZu1c6C5uqWFwYBI+eduPTVBkuFzRLKRazzuRwO6OpwAUEjeD+zus59sFnBEj82RwX0KtbNHywpxGbOkoRcpkx3yRWyP8jahrYua4J711f/jn094Ov46NPzkqjIdUSkR56q9BQpY88cgo/eNcFCBJZl2J4RG1aGRT+Qbd12aI7efJoCF5A7D4yDdG4oFCdRvBpPlqkRTpOsTA5Z2E4lgh8Kud/feYMYLdJgZPl5FnMY0MKXfLquL4vfAIi3EnXEqAF9vnnn8fXvva1vOKh0J0/he7JYyKoMd1+oEX60UcfFVs+8cpzHx0AACAASURBVLAY+0zzRRh/vDgy53yUXZ1fTptZNbsTKuXgyJwoTKR2PVtNIq5biIspln4LKS1cvzJ4q+C/PTFb9s9SdCgRSSLSmMRH+5vwFwNdJYoHClk4TYCiiDCJtY0K/nLTarx3/aqy9ml4MoFb/+XXuPsX43IsvLA3p3w5iSS5WP/wTAS/GA52bkN2a235y8IkRYICZtczuQsAq8VkPNj36T8eGsPBGXp95fvEUmQdB0QUovDrZTvFnR/Y1ITe9vB1aC0JAXH77beLRbhU4TAfWoiDeB6/v4sET6nCId/zBLnPlNZh/HFoNJgL+Y6ecKcvnhyi1rPM3ZOtGWLzM+uDhAcUHTecF+wd1D8OT2M4VX6VJO376hUa/mbjKrx7TenmVtNOwZ2UEAaubVbw/25ajYH2FWXtz2PDCVz50Dj+/fUVzrRTOaeD7NFFy6+cCS4Cxx/cM4XJhBlsBKLCCaT0lzgX8EjvLzz1mgj915JDo+WL0lw88BLNOyEjMSceRyPe6e9qurb3BbCBi1ss3LGxvPdUtVGXgnigO/GgQu6uiKhmJCLo3+FGMoISEWGpCakHDpG1c1k+AtkRi8Uab+2XfUMTIjwvFjJR70FV99Telf/iThdKm1Id5LdvN2Fbb2ntZ4UYiyfxY9f9s0zWRnV8+ZJ2XNhU3ms/bVlQlCQ0O4mP9TbjCxu7yu6y+ORjE3jLd8dxLimHb8mR4o3Qki3QUi2w0SiEGLX/6aaB0+Mm/tdzmeFHlZL/7jbf+9Ytssx+9GSAAmJoMomvHElmzbWYvw/+bav9czDAsd5Pn5zEE8fjiFryfUJCwrabEEm1IJpqKpiSIUFG9UYfvjhSs9kxy0pA0AJcDe8CWpApFVINqiVQaJ+/+93vBvJcbsEmU5znK6jalhMa6UJh4coazYcol1enzLTRkJsn99PHLt3z5HyQywN0oNwzMoXXEv4GeuWCChv/emOTaM8sFzr+dQ02/uHylXj32uayUxZXfWsMf/lCYp51tFwcxbhpMdTKdTXNTPj874PxQBfs/rYS/TmcBV3Oz5BfOh4LLipy374pvDRdiyUq23WTBsYFxV8/8Zrz95LpCpHSc82rhK158b/JbQPhrUerawFBC3G1iv0otUDRjaChYslqRTfoeen5g6CeTLAWi8eHY4jpFb7/nDvozV3hy2+6UKj88QlPx4hTuZ4pIMwek5yp/6CcPd1BJnHNSi1QA6kfjmiAJfPKhZD7Zi0QD3+1sRVrKtyfd69Zgb+7fDUuaC5f/LU1ajiXSohZDLTQyBHw5IxIDo9xKOo0FGUWDSagmzTS2YIRMZCMGBg1k/jGYb8RsOL0t1b+95kIqAaChNU3D84EONisMLKWxwo0hTE8Gcf//3oSSd0QG9UyiKFqNEtGoQJZ+j2esfLzxAwd+gcui6C3PZzRh7oWENRtUe2CR/odQYuSoJ9zPkG1YIZ5AFhYeOYsENcqP7m7I9SdEA11lCWuNjqiwOMsWTRfLuslKHLR3xKQoxPIwCmFk0lnvLHPnH36zt5W8X/1rSi7tdLLu9c2oUWr7HnaGnQ8dnMnuiOyk0SOn858X/hTKNK5MG0r7XRkkFvk914NTkCc36amR8pn/a19Qvs9EVBE5G8ef83X43IJ1yu6/Ao6T5ux6CySQuJlp9ynUu595hzmdKeWhdJ5ns4WErUkBsWfcv57WHSbWLi0JYU7N4b3xqKuBURQd9rFFvxKixxrvc8UkQlinzmFUZz9Y4kCd0j+ZydsW1nd+QGVsudUAratiM1rNOQO1fIenzvF0jvNkob5XX9+cBfCH56Nw6YK9hImbdJCTOmOW9euwLZV4RJr5Omwa2u78DeIGBTeloWnKUUXMx9oSBVZYVMFP7VLwoiKia8khh49PYenhoI5V/vbFYBsi/WkXOwoyuQKxVxbDuh8oDbISmsfHjiSKdAtPGvFEn/b9KYCX33rajGeWiS48tRG5P66fD8NWc0YiiUrjqB85UhCzGOBRVujmMoqbc1pcBfNammEbuoyRTVPPFBR7h9eEsH5Ia19qGsBQQtkrdotyYwqCGh/gxQjhSAzqkphAVGcoAbvhL2Acu9wfi/8gjh3ypodxzWrg4lFj8ZT2D+ZEnfk6TvIAniNhXoaTNzeE07rm49e1Ykbz1shcuRiNoNC47VlwSot5u4CKcyvhBmRjFTQcX3/lWDaHPtbSTDQiyWnbPqfhREsd/5sHDO6HNZWqE04lzDYubFZeI2U5uqaXQNBHTBnk5VFzD7/1Oui8yhtMOfUsNDfS4xKV+TfmEQaOddmH4sq/ha3bQqu6Lha1KWAqEZtQj6CWvSDWNT9UiuhstxZOMK7PK47v/QWwloyOJb/bixXxCE9elh8bKHNGMebelsD2Zcj5xJiAdWdu7TilfeOVTUtLuuiZXdJ1IK/fnMzDCEaZNurn3HwJCS+cyKYCFZHRIWW1BFNAQ12XExiLNRlk4+hyfKF9b+8eAaPvDYLM2LB1N1USiFkd4acqqnjnqvlubS+1bUWLz6SXPxXCe7cHppM4IHDjqNnnjHaLjTm3a0XkkXJUjDefmk7etvD3dpNhPdsKkAtfBpcgop03HLLLagVtTTDWq48ORScuU2YLxTU0lZSXnvBBd/CW9YFd3x7RqbTw578IEPVKs6LqnhLV/ic/Lxs6dLwuxeY8s6fFI8PcURttUenIzgRgAMk1eFQOJ0WYqIUIzTRTWRX3sXw+adOpTsWhN9I0X1w6xcs3HlpVEZRaALlqoicSVPOEqfQWO/yUxj37otJHw8/QTd6L6uZ+gv6mUubbey8LFwzL5aMgPDaOtfTYlzLfabXiEVEdTlIC1ka906n0LKWu4+ecrWbusO7sB3KOk4fuAufO/DINnB5Z3AOm08kpmHq00hpFAamSZD+fm7neeF1+fTysS0NiNhx6FY8u3CygM8G1aJ891jl3gX0XjRUGVpPoQUmmqQJWAG8LZwEfUxTQ8vhnw6N4vBsRHSgUPcOeY3Q4CmvD0S2JwTd5BuwdWlq9plr29PPdZEo2s3sez6/iHyOseW2xw5NxvHVIxMLOn9yY0G3k1Ah57BQuoNauv/wEpp1Eu60Zt0KiFouxC6VLsb08zxbYmkRlANl2OsfHqvQMpkWmG29pY8gzsWBWEKOx3Z8EPyIB3oMmfhspZB2HbCtrxU39MouglKMkfaPJwIREN2UNqAR3a6DaElLhFw0h2Pl1cx8+rlZzOpR507c5zwZ5z2wc2NLVsHh5V0rKmoBLXcq5+efPlFwAFk2nhsP52dWRVXcNtCJeqE+zqo6ZzGiARyBqC4HX58L5PQJu4B4+hxNmCyzoMymfG4jNnUFU//wyowJzYxKEx6nBqI4Fq5pMdHVEM7iyVy8qbdJRleKLOAUnSCPDQr57zkVTD3OpiY5UEs+t58agoXE4qX/zNcPT+L4JEUuaNImnROyULR4BkOGEO7Zmi1SyTuho4LGn3KGgp2MJfCVowk5k1f1tojmw4n4CIty+Vq/c0MLetvCm9KsewHBCyMTBp49W3nOma5923vDe7Gg2odnxiupRlfR3xJFX0A1Hq8nbKi2Dt2MOkO6/L3G160M5xyBfNx0noYGS+bgC0dZxBgvEfYOal7EBa2KM6HU58RI1YBJc1HS9Qoqpkqc0XF8KiUHZqWtqmV3gpCImgVDPH+mbVd2pTivja3ivqva07UPXtb7dtZ0nlfJfu+X2o76taMzzgwTD0V8Stx2WfobNppx7LomGLFdK+pOQDDMYvP40BSm9HydE1aRLQNdsNa36SFvU5X7rCiK2OjuqtDmPk5sNrBlVXAW3cfmqH2zAYq9QvyrKsWf27ZtXNZeHwVpLtf3taJPm3RSNbLWIdfmdiCIYkG79AUvF+d16MJvgvwKpIlVgY28OLSk2EhEuGInVuI0ywePzOLVKRuKQgu+3BREAFUDdAOIxmFpceHW6Tp1msKXxBbCYedluWuIrujMFIPm23KJB6GgaLR3CcWgQ5MJ7D7spG7E66MAigZFVaBBc9puszfZ3klDtqS19R9dFK2b2gcXFhAMUyLPnFWQDMCBco1uhNqBspJKdJcdPcHd/c8YtjQ3ch0ofU6PXN8Sbje/XFwobkSLRQDk8Us3Q1nAVykU+pfCIVdHzXxo/1y/iMwiXEoEggybdu2joWDqvG4O5+/qtGJmFngndaUYaLRm8bmtjcKIK196sJROkvm8OOLf0vrxoVkcn5Tj1n1PNaUUH71uTr3LH29bh3qDBQTDlMh+KrCqcPQxsW1l+YO4asHe03TXJ6MJ5RKkQHq9jPHVNHGzHtnUVXrUJIgIBFlrlwTl7mmNd4QdLf6nJqk+yB9//nT+dmghJMQcKnmn7k4jpRkhtL1hxVTBgsNKo3uHS5jK+dlnabaFG4nTMpNDC1wjqH3TdLYPbGopMBE1vLCAYJhFuDOvhwLKSp02KY+/pSRHwMJMm6WX1a8NcIBXLVmsxWSgu4R2V2eypBQPGUZS/v7mJ2ImHjia/1yi1Ixu6GKTng7ZfHJbX8Hnv6qTaknKj8pM+0xh7D4yi5fInkRESpyZF2RJTW24PopQqUvo3jqrfXCpT3nOMIvI4GjKsaitzOZ3W1+mbz1sDMXiTmFeaQuwt7DxTSsNtNfpAr5cWRiBoG6M3I+V81Bk0aCstzRE98gJa6Xvcd2FoFoH1abnd6y1naJDmhFyQWsEv3v52oI/f35bA5rNGBLzCxtzkDnGzDl90GcK4/59o9BtKvSUxl6iCQOuMMrfSeMaXX304kjd1T64cASCYUrgyZOUr3Up0+nOoTdP7jY0Rlkew55yoJkETH1B9QRyEJUsJizU6SK+JwZuSdFBeXzK6dOE2mLOmE8MT+HBI1NFDJdoQZbnmPyIvD9UNJgW/nyrv3Pn4uby02+vTBe/QXjo4KgjtDPpCqohMUUhKhWWFn+OP93WjXqFBQTDlMChEvKihaCL9EB3eLsDnjxZ+TC1a/vCPeODyU1HtPiy4Do6kleEO8OBChYpjC8/L8yHfkbDpuguvdBjZSeI5dmoe+ENK+J434C/KMf1veW/B4eNZgwXmcp5z69mYaJRbJaiOwWeSSBiyVpfzxh595jS8zdUC3+wqUEUrtYrLCAYpgQOuWFNX7MKiNxmPFs6wx3aP3C2eP5XtNSRjz+Z5jh3iF6r7oEyCgEL0aLR1dipyhfzA4p7FUyb4R6Vng+ygy7uROnPq6GswldfJlK0oHsf46T1FAOvxvK/fx48PIOXppWSOiSkO6WMiN2/Y01NakniWuGpnA8ensXRaWl6JUfbe3fYY1lvS3GV2eRrS74P910T3psIP7CAYJgSOPT6LDQb0Cy5LbzIe2dd0EKXTN9pyf5vefFwe9TDyo9eKy6QRLtfxAAiSXGcdGzSk0BHe0MEmwKOsDRF6A7XgIIkDNVASs94D+TGwplEuDtd8nFkZEZ6PNh+PEWkkAgqJdYeJR8GS7p9Fpkh4S6G3n2i90UhY6tdz8RgqoVHdUvkeUR1D5ZNC7WOt54XxW9d7H8sQGWujhaeL1AwveuZSRlxcaIu4vUhUygrCqTkppvUOeJMqxVawhG/qoEPX6rWbe2DCwsIhimBwTF5Ryvutn2MCxbDhrLmGshTbkdPeB0o9w7PIan6vbBZC+pB6Fi3rA4+wtKqRqC7r6cQZMV/ZtawMRavPxExnoiUNAujrBbMPGxodc2p/C4PVraolB/lfOS3Do7j1XRtQfHnl74Q8i8esQw88JuldStUmiYULds5+OEr53Ay5ohm8Z7MHBO5pYrx4qb0K5FdGe4BZZ7jE9vOQ73DAoJhfPLE0DRieoeIJGTuvPJDj4uY0mVOXjcyj89lvRsW9o8lF0xZzIWw+6eGlJTs06cKdM3p079xXfCXlosbVojfQ4sbjZ2mrdA+0utPr/2J6cr9EWrJZMLEE+caSi7SLakFswD9bRosmkkBErmliIjM+ztXBCKWMPHZX805HUx+njfjekmL8Ic2RkuuF6isHVbFRCL3G+y/7/c3pdYUnRlux5ab4tOx89K2upp5kQ8WEAzjk2fO2kipqtPf7TjwFRERIsw77zTrjoTbgfKxU/565+moSCDRJq15kb5Qbq9ChGVDC42aJl+h0ky8Dk7Ul4B49HQKcbWppGMM8v3U3xqpeImgWRLz+fIg1T5ktz8XS2OkizVh4ZPXld6tQFGZSsR6rqmcjw0n8PNTlLrwAYkfobSdz22IUe31NvMiHywgGMYnB85OQ1FmoSqziNhJaHauPG8mH0wOc4ZuiIFAwkWPBgQpBq4LuQPliVjK16VBjH22G0V+mvLl9HqQDwBVpF/RGXyLaucKG7NRA0nNQkK3YIjizQL7J9rpLPz7uXC/3vP53qsz4s41pVIUwN8len2AEa31rZH03zNz15xvy81k0l7gkknDpoSfQ/q88R+JuGNjU17L6mJs6crfTjy/xmN+vUeuqZxfHpxb8Hexcs3ZUGQ0TgE5utIvk+Lpo5fodV/74MICgmF8Mjg2J4YG0aJEFwhf44bnzRSgO67NBS5oiw0NQjowQrld55pXJI1BrWvp6nvabBVbV2voaKhkimdutrRq0BGHScObVDkBspiPAHHOUrFfiKLwE0sYePhV6vQpbZT29nXBzRyhFAZ1CFRilHZuXgTi80+dwrEpWUws/SOK+0xkOzXmHphVbXFFkRSa1+EyNJnCw8dKiWhZThom85VPXlv/tQ8uLCAYxifPjVswdRUpjdzwojBB/vxq4QIwqsKmzVNEua2C3vRqU4r/P+Eu4pniORWXNVUnZdCsq7gi6nS1qElRyS53Qs25kfgRxWyWiq+fLux6GBZ+8Mo4JhJknER3r0lfVsjVKMq9vHmmohbRE54aiJOxBB74NdU+kOiTIpqiG5kIRz7k1M0PXUp37OVHtDaXYWjmTuqk1Mk5Tx3Enz895YhqpzjSiXTlew6KJMmR3VIQ7tzYir4lUPvgwgKCYXzw5BAN/SGbWl2EIiklIUcqF8K9yMh/xXXHVkN9ASGnTWnJ67TPFQkkCNMgRaYTUppMGfxGb/UcNje3rpjnjlnobyCLXekYDkxYGK2DbozP7XtdfpAWZYUXcXpPXdSiBF5Tszpa2kjuQjUQ9zxLdtLRBWKIRLVsFXVbnJ3plJ5jv6AN+OR1/n0fcpH/tSkukEgsPO90XtHsjq8dSQjfE1m7oRY5P2TBpPSCsKAbcdy3tfxIShhhAcEwPv0fYOiAGQWoz1tQ5OLu5D1tjYr/dFHZvjIaCaxavho8OTwNSyXDhQgURbZiuhd0EW2Amd5smzYFlm3D0kxYuglbNXFdX/WO7+pV7VCtRkQM2mRHhrv4zN9EDYRO+6Ygajbjy78Ot4D4/w6O49fTUeFz4RbfylSZlXOTd7g6bloXfMvsxq4mKJa88yah7G6552FkNncc96QjIKgbY/dhSsnQ+19fMK6bIi0RyxJ/S+GfQMJBM0SLj40Udm5sQF97ZYK7v1Vz3qvyeOTi77hBKtnHlzlOp1lYAQbPyhTGfcK/ItsdM/v5FnpiqE47p24C//HCpVP74MICgmF8OlCKk4WmDzopCX99+lQXkPGMCPt8iOfPmvKi6tR5FK2SF8ZOzjGK40xW1aJ7Y8cKtCkRkZYQm1Ohn2vL9t5Q8WysAQdiwTs3BsFQLIVPP2uI1JiYKSHcDX38oAL83mXBD2Vrr9BTwo1A3Pmzs07NQyatJA2X5N05LbBUXEwGTJl0IL2XgEubbdyxsTkQ23h6LndWByE7I/y9F0gMkRD62pHpLOFA+PobOZGMP9m2DksNFhAM44MXzk5Ky2a64xV3vekRhHkRcwIsC5qVhAbZvbGlM/jiwqB4YXQWQxalH6Sfv3DRLDKrQLOTYmx31LCgmQZ2rK2+QLp1rZw5kN7y3KGTU2hjitpMVRiagaSexOePJTFrhE9E3Pf0FF6dMtPGSa55UiHoGDe0Wri+CjNHeiu86yd27ZvAnkItwXSMVhNsuwkpDeLuXgYgdERTOu7bujKQ/SAua3YLIaXVtjtnww+DY0nct887RM8/pirTeh/Y1LJoI9qrCQsIhvHBc6Pyrsglc5HPjyzic0K2dNFSDGzvCW8I89mzJlIqLc4UPDfS9Q1+oGgA+UFsWV39+o53rW0SroTFcXLQtipqNKiD5rVUCt85Xt5ikOsu2w3VV8KufdN44NcJETWRtTKyqyVtj1yAz17jb6hUqeRfuP0vGV86ULhwlVIehgqkVFpo6fyQtRCKpWN9WwPe+4ZVCIrNq1fI1sv0/BT/Jl3Uyrn7SOlD9OysLpKl4fswHxYQDFOEJ4amMKdKB0q6+AiXX7i1EF6XuezFhHKpVGxJm/BHUFVsDrGB1N5Tc2LREh4ATopAoYMtAB2XgShMuwmG3YLt66pfJNakq9jarAuxk1Kcf3NsCU1FXFOR1GT4nI7t9nUa/uAi/7MU8vHYcBxbvzWCyWRlAuL7r0zjvzwzCt2OQ7VptocszlWpA0Mp3ErZ1qhjR09w7ZteehwBId/D3s1Jr3i6EEoxk/J6SJAnihGJw4xIfxWKZplKFIYaxZ9dF+yC29NBrxN15MgoB2i2ht0ozs1i5D6ObNzuEu9GsUY6h/7o4siSq31wCa+fLsOEhF+NASll3h1ZOsRceNqjuAA7XhCdehL9beE95QbPJmSRGF34yF2S2ugKZFxEt4YtH0d54QYzia01mjL6nvPbsPelwo6ZFKJOUUEeLSARHX+2vglXtFWeYtm1bw737psSNR8ljqvI4sBoCnf8/KzzWeaOmPZb3JGLKATVCeReqN+zPiIKBKtBUKmD4kXG8jhlLYScGbGh1cbOjcEKI7GAK3POrAqI9604h0Warrp8YlvpDpr1QnivZgwTEg6M0cJKd4duIZgs3qMLnyhUL9DOKfKsziJ8/crwjpaeTBgYPDcHRE2YdIEVBW5+ftJZ9ABsap5FXwALtB8u61iBK1sT2C/GRud+/S2qj1Bn8YbWRvxFf4czDrx8hiaTuPORCTxCk0qdyvuOaHlB3H88PIW7fhnDeFIWDypOJEulu3BaVHWnwt+QnQLzUxkkRD9zbeWRlEIW0FR8OJarXqQCf4gFbY9OcSWlLcRypFr4L1cHH1W5vLsRsKdEhIeiAo2UOwGQoproIOLwtvMk3gJLAH+wqaHk+R31BKcwGKYIz5+NO9a08nMKhVP4VRoo+XwSW8X2ddXrTqiUg2QgRXdlDtIDonAnQFYnimJhc1dtLyef6m8R+eWstjnPPkVsA59Y24r/ceGaisXDkyencOW3xvDIafp9JFqo/TCO9obSj/n+p6dw+8/GcTZlpCMY6dfZ6/2QQ5jS+zCCOD55efXD4q2NakniwY+rZDZe0y8poPpbgfdvCl4YUQFjxwo5l0IIBqq3qMBp00UTNU7zXydZv9JozWLXNeE954OAIxAMU4TnxmSBl0BRZZhf3J6TgCi8MImLi3NhHegM78Xk0MgcIHrxnSiJO4ZYULgTg14BGxau66ttoVhXo47b1zXgf42a6RC4O9SLbjjvv6gTG5orj4jcs+ck/urAHOJqo7Omm2LBbzfJXMw/Q7EE/vCno3jktJHu6FE8gkE8tajV0DPjItKpMqetVrVwWWMCH76q+mHxK7pX4NjsrOOimE8kZL833Nd/fqTBFUgLf955vJPK+Npb1qJa9LfrGJyYg21boFEd9H7xfQOQA9WmYXLSK4K6SGS0URYf01F95BId5y/R2gcXFhAMU8yB0nuRcVISjg0NFGi+LzbV9EeolF8OJcUirDqXBFO4btJHfu/SLAx0196i+7fXteM7sXM4k3DuBmHhbZ0q/s/+ZmF9XQnU+/+uH4xi8KwJ6LQQeBZSAA22v6mlVIT3pQOT+OL+SVmQ5+6W6DpYuIJ5ax7S5k3ijply98D33n0pakG1uw5JTNhinowUUb+7QcOOAGd65LK0HpygzhAZXdNKmHaaGzVdU0EttaYnOkPH9onrls7Mi3ywgGCYArw4Qi56RK6Ljf8LEOWTw9wH/sQ5qv4HdI/PvyhWL3aHRhdN565y0yI4bDbpGv7z+nbc9etZkaa4o0/DrWsr34//+fwEdj09jXHDLDvR+/jQDL776iy+8usZX5X8C8lEH8QIeRu49+rOiuZClMKWTg0PHs1fY1IO3veT2wpNz0537//tzdU1WtqySsM3U3KYl06pL5u6ePy3c+bCoI4Z8f6nyIPbgaFi50byfQivZX1QsIBgmAIcGp0J5DQpZ6BPrTgeM/HStLgvSxeKljqJkdpTqfBuMdjSGsGuXg0D7Y0irVEJkwkT9+6bxv98blaG2ws8XXd724KIxYERC78YMvDdV2fwynTC8f+oINfuLLC0I29dp+Az11bH9yEX5RaIloI0ZANu39hWdWG0oTUqhqu5NTIijVSpOFJkasnr2tpoJvHZN4Z3YF6QsIBgmAIcGqE89+oSfiL7gkR3VrQQhdlAav9YHBGbCkUp8kBzMOj/5ENAXSbF88T0/e09ixtd2bGmcv+JF0fncOv3z+Hl6ShUmuuQy7LYE/Y+ZbXghm+8jHNJC8PQMZGIIpJoFLMdLD2GiGqIVJBoGawA6ojpb4vg72+qXtdFLrZ0Su+EUsRkseFr3tfPhaIQ1TLE8rK5sxGW3SSPhiaDelNEZWFAd2aSGDRkT8wCMfCRS7SaRYkWGxYQDFPEnZE8oyol1AZSw5TLdyIP4m5KFoNJq1+nX76Oj88Pf//cCP7TsxYm4nS87kJIIkIsMzl/ZsTQMRJbIQsiKNLg2JtbYtQ4jR13Xr8KoKjQxS0GfnLLmpqbEa2K2oiaSSTV6iwTcgEHPnwpOU9Wfymi1lcKBI5S76ZnZHdFKE6btiOcKLrxiet6sVzgNk6GycPjwzHE9GBCkWFOYTw/RkWT0pVPcedgRCy59vmqUrewpas+BUQsYeCD/3YMf7I3hplZOVcjnXZw/yr2RAAADYdJREFUIxBOq+FCIUUFkSS+kqKjQmwKiQdDLLopNer7DpcmRc7fYJtirPa337F6UZwMqYOgLTVR1d9hw8Snrw1+GFg+BpopJUl1O3KmTaVLoEFdWSLtJwtBP7ixA71tS7/2wYUFBMPk4ZlxGymt8otBd8RAf1ttHBrLYc+plCf07LXkLn6BpWhFV8SoywjE3uE5bH7oDL5xUkeSWjTFZE/p8eC+BjJ1kec1EL7OzuuVbk+Uw5Ok+ioevXHHSXstnt3fd0lLCj+/pXNRu3cuainF3CHXscrXRwyW80xOdblrS3NNxdHmTi3zXvd6bpSFKq2wnU6SRjOOXUt05kU+OIXBMHnYf5YWEsfUPs38Bvfiz3PdSj+DnxaxTVUsmHIxE46INCfA40NQzCDoulXhPb58fO7JUWFHbWoaNFoIVFv+KRWIxlxvUZxXRIgBYx5sRcukOoQYEBMQ5LuE2vvy/H6KMIjfQY+0Fdjit2bmqlzYBvz4lvPRt8idO33tjXhqLPM5dRgUwjVVkq+lKxbkkKz0Ym2r5KQhUgof31zbBbeXahPENE6XbDO44gPysr+vkIOmIifu/tFF0SU78yIfLCAYJg+Do8H45N9QpYFHQXCQ2lQ9xYJuyL2UxoE399RPyHZoMoE7f3oWe07NwFblYk/kKhR12/IKkVlwvC+Y29o3/+uFyER9blqn4Ks3dS26eEgvuB4BUQrCqTRtHpXpeBC1NbaCOy9tQH9rbZcg2UpdeEiZb+xMgTFZ2//xtuq2oYYRFhAMk4fBsWAExLa+8LZ0PSUiEJWEyC1s66tda2ElPD4Uw/v+fQgjKQW2Rrlr3ZlpsjiIoU7plFFKLLB3be7EF2+oXU2ALwFR9sgw1RnKRoWlhnOsspaEUnr/z7WldDcFg0wH+TMAK4blDJ6jv9/twvdh8QVfrWEBwTA5eGooVvFzuCHxMDtQHpuqfAUN8/G5TMVT+NbBUUwmUoAalYVvjqPo/EFVtSIzX8XCBS0R7L6pC2/urb0ZV7EUBkBTLMsjXW8gOnzkXX/UjuNzWzuxGFRjkY9aSdx9RX2I6KDhIkqGyTNcqlg+1A8Uol0sg6VixBImnhyvrDtkc9fiGUiVQmtjBF9+24X4yk09WN/eLOs8aPN7CUzXQ6hZW3HUglvHChX3XLMKz/7e+aETD0RbQ2nFv6Ku1P1YsWBoNFJdRh5UmvGhWNjUlMBtA7WPPhD0Xg0qbaJaqpjs+Y41Ni7vCr+IrgYsIBgmB4eFA+USb98cMUX3QSWsr3EOu1Le+4YuvLRzPf55RzOuik4L10DfVDbQc4G1+X3XNOP4+3tw7xs7xOdhZKC7QoMuUSjqTtyUX/rUdWuwmGzpCvac/OS2LixX6uvsZ5haFhei8nDnltXhFRC/GErKArcKFsYd6+oz7/uey7vE9tDBcXz62QSOx2rTSUJC4WObW/Cxza2hFQ2VRCCycGZdaJYcBEbQ3f97BhZXQAQlei3VEg6z22o8hTZMsIBgmBwMjppAAM0FYV5g95yKO26T5dFgxXHTusUJRQfF+wZW4X0DMmX1D8+N4ZHXgF9P06RG2YGRHiiWp06Cvudtc81l5bxGT+J9/Rpu27QK14W4oDZfyJ+ETnnDwFxEGSWidhL3b138WoHNnTQ4ztMRUgRvJ066ENR5/99/dXgKXhcDFhAMM48nhqYwGQngQm/b2BJig6VnJ2ZgzasgtIWPgT/ajAlc3nUxlgID3c340ttkDcKB0aSw9957Oo5Xpww853bj5Hlp0q+g831acHesaxTmWvTvlZ0RtFdyJ7/I9LdGMEjFp4Sf6aweyFDTVKVL52+tBW4bWJziSS90TmYbhHlnnuQQFEpuMfFba0y8qbfyGSz1DAsIhpnHr85iXm1AeXdfF7WYoQ1TT8WT+PQAGf3I/2XwLyAuaunGUuSKrqjY/u8rMyKSIhRkez00GRf/0ka0Nuhob5SFsn1tjcK7oR6KSkuB0g6DY46AKDXlpTgiQlHxiW1rEQY2tGrQ7TgMOscdh0wvRUfYO9eDTy1yLUcYUGxhus4wjMuHHhnHg0fmHDfC+Xa385zoFpw9me9/oDeOr998YXV3lmGqDKUvJpKVpDDkitzfGp4ozFAsAVO4iJZPf50VEFcDfgUYZh77PQZSftwI87GlM7z1DwzjF4qihTWSVi7LZdx2tWEBwTDz2D9K4VpdOgWqC0Ocftl2fn0VzDEMw5TC0pKVDFMhT52MCeFQfmejlVWYxzAMs1RhAcEwHg6NzARwKlki31tRDz3DMEzIYQHBMB4OnE2ke/kVH3MS6PvuiF/bU3S5uZPFA8MwSxuugWAYD0+cU0XfekNKFQIipcmhS/nEA3nhy26NzGAkEhFXsoBgGGaJwwKCYTztas+cs6GQ35xjNFO4A8MdikTiwciqf9jes6Lau8swDLOosIBgGIc9p6l90xCTh5MRXY4gLuCbI8cx02NcrwhLPthWsZlbOBmGWeKwgGAYh+8dj2eiCKohXfcK+OeoNgkGwxESzhdt4JqVypLrm2cYhpkPCwiGARBLmHj42Jw8JVRSDTIaoYDGEOcWA5TqUG1DiAey6hXRCMvAxubaTHZkGIZZTPg2iWEA/ODlCUzQfAMSAUIwzLewzoNrde3Jc9zQw/4PDMMsfTgCwTAAPvvsJAC3c4IiCd5Tg4oq1ZxdGBR5sEhEiHSG/NmBrtZa7TbDMMyiwQKCWfbsOZ3AS9OOeHDTFeRGWcQDIi0q6Gfosc7GDpQMwywHWEAwy547HxmH4hEOkkzEwTWWyoVqy1PIcrIdN66LLLlxzgzDMLngKx2zrHno4DhOxowFxUCFREMGt15C+kVQxGL7usbq7CjDMEzIYAHBLFuGJpO4b9+Ur1rinIZSNK0TOmwnlUEOlDdf0FSFPWUYhgkfLCCYZcstPxjH0ZlKGpG8TpQWLmxJYnMXn1IMwywP+GrHLEs+8dg4nhszoJU/t1v4QEQs6fmQVJP48CU8/4JhmOUD+0Awy467fzmNv3ohCajUgln+KSAncTpeEIqB39u0KtD9ZBiGCTMcgWCWldvknY+cxXeO04JP3g2VPZ8FEiA6TMXCzo3t6GvjAkqGYZYPLCCYZcGTQ1P4wM+ncGyKxIPj2yBERAUqQiGDKQONZhwfupijDwzDLC9YQDBLmqdOTuLzT47gR2cUxLWo/GJaM5B5g+KrZTOXqRQN01KRxNvPS+A3etl9kmGY5QULCGbJMZGw8OCRGL53bAaPnkoBaMi4VAsc1ycRhag4iYH7buypbIcZhmHqEBYQTOj58Uvj2PXoq8Ii+rq+dmzqbpLGDIqNyYSJWCKF4clZvDpt4UevAS/PkFpwJmK66Yqq1Aur+MCmFlzG1tUMwyxDFNuuJAnMMNXnjp+NYffh6XlfzfgvSJx/xVhtii64UYbCAkJRyg9BXNps4SfvOg99bU5qhGEYZhnBEQgm9Dw2nITqzqpIQwWMTgpCaADdEQqWoyWq/9a+55pWFg8MwyxbWEAwoebJoUkcmzLm1Sq40QbPl9xpmGI+hRN5EJEIzItUBMPOjc24bYA7LxiGWb6wgGBCzY9eOivTEllYC4QDdUTQRE3bjop/qbiRHmeqNBgrWPHQ36rjr3+jI9DnZBiGqTdYQDChZu/pWUDJM6DKiS6QG6Qm5mmrsOxM26UcgFVAPCgUqJDfVyxVPI9s6cwIFtV2ijGdr53fpuLRWzrR0cAmrgzDLG9YQDChnpb59DlqwcwzY0LJCAVLpcfQok4KwoTpPMBWlLydmkI86I5ASOpO5IJiFzSeW4ViW9CE1wMZTunoa9fxk1vXYH0rnzYMwzB8JWRCy89Pp5BQyR66UApCRgIyZlDuY/1GCBY+t5hvQV0cIvUhayrWt6n4ya3dOJ/FA8MwjICvhkxo+eahmKhtMMvqtCxe9yD0QSojNCiSoVmynsJSk059RSN62hX86F2dLB4YhmE8cCKXCSWxuIHHhueq+juoNVQzo9AsPV10KeoonKLNqJXE769P4LnbukThJMMwDJOBr4pMKHlqKAZT0WHlGkIRECQUVDsq0hWaPSu7NhTyk1DR0aDhv17djA9f1V21388wDFPPsIBgQskPXp6CrVBhJAmIYNsw09iyYJLiDZkODOCtPcADN61EX3ukOr+XYRhmCcACggklPzmtSTMop5+iKigWbDsFm+osbA3bexrxmWvbsL23oXq/k2EYZonAAoIJHXuHE3h5WvUYSVJLpfye9HbIPV47F+7jSYzIDzPRDJuqKBUbb+lRsOuaDlzf1xbkYTAMwyxpWEAwoeOF0QQ0OylKfE36j6VCseRb1Valb4P8nLolyOa6SIrDproGDTQ2TnVSIjf0NWL7ugZ8fHMrm0IxDMOUAU/jZELbhXFoZBqPD0/hxdE5nBk38NyYgYloC5IqdU7IRd/UCggIZ9DWKt3CwAoTW1dHsa2vGW+7eCXaGvKYUzEMwzC+YAHB1BVDsQSOTdkihTGRsDCeyv/27W/V0N+mcwsmwzBMFWABwTAMwzBMyXDyl2EYhmGYkmEBwTAMwzBMybCAYBiGYRimZFhAMAzDMAxTMiwgGIZhGIYpGRYQDMMwDMOUDAsIhmEYhmFKhgUEwzAMwzAolf8NsfWyG+10ZUIAAAAASUVORK5CYII=;" vertex="1" parent="o_3mLYSUMHdXF__UBMAF-770">
          <mxGeometry x="107.66486486486488" y="30" width="85.41" height="33" as="geometry" />
        </mxCell>
        <mxCell id="o_3mLYSUMHdXF__UBMAF-774" value="Promoted Model for Production" style="text;html=1;align=center;verticalAlign=middle;resizable=0;points=[];autosize=1;strokeColor=none;fillColor=none;fontStyle=2" parent="1" vertex="1">
          <mxGeometry x="590" y="525" width="190" height="30" as="geometry" />
        </mxCell>
        <mxCell id="o_3mLYSUMHdXF__UBMAF-776" value="No changes to API model if&amp;nbsp;&lt;div&gt;promotion criteria not met&lt;/div&gt;" style="text;html=1;align=center;verticalAlign=middle;resizable=0;points=[];autosize=1;strokeColor=none;fillColor=none;fontStyle=2" parent="1" vertex="1">
          <mxGeometry x="895" y="427" width="170" height="40" as="geometry" />
        </mxCell>
        <mxCell id="o_3mLYSUMHdXF__UBMAF-778" value="" style="fillColor=#ffffff;strokeColor=#dddddd;shadow=1;strokeWidth=1;rounded=1;absoluteArcSize=1;arcSize=2;" parent="1" vertex="1">
          <mxGeometry x="390" y="650" width="170" height="60" as="geometry" />
        </mxCell>
        <mxCell id="o_3mLYSUMHdXF__UBMAF-779" value="Test Script to&amp;nbsp;&lt;div&gt;Verify Services&lt;/div&gt;" style="editableCssRules=.*;html=1;fontColor=#999999;shape=image;verticalLabelPosition=middle;verticalAlign=middle;labelPosition=right;align=left;spacingLeft=20;part=1;points=[];imageAspect=0;image=data:image/svg+xml,PHN2ZyB4bWxucz0iaHR0cDovL3d3dy53My5vcmcvMjAwMC9zdmciIHhtbG5zOnY9Imh0dHBzOi8vdmVjdGEuaW8vbmFubyIgd2lkdGg9IjIwLjAwMTA0NTIyNzA1MDc4IiBoZWlnaHQ9IjIwLjAwMTA0NTIyNzA1MDc4IiBmaWxsLXJ1bGU9ImV2ZW5vZGQiIHZpZXdCb3g9IjAgMCAyMC4wMDEwNDUyMjcwNTA3OCAyMC4wMDEwNDUyMjcwNTA3OCI+JiN4YTsJPHN0eWxlIHR5cGU9InRleHQvY3NzIj4mI3hhOwkuc3Qwe2ZpbGw6I2FlY2JmYTt9JiN4YTsJLnN0MXtmaWxsOiM2NjlkZjY7fSYjeGE7CS5zdDJ7ZmlsbDojNDI4NWY0O30mI3hhOwk8L3N0eWxlPiYjeGE7CTxwYXRoIGNsYXNzPSJzdDAiIGQ9Ik00LjczIDguODN2Mi42M2E0LjkxIDQuOTEgMCAwIDAgMS43MSAxLjc0VjguODN6Ii8+JiN4YTsJPHBhdGggY2xhc3M9InN0MSIgZD0iTTcuODkgNi40MXY3LjUzQTcuNjIgNy42MiAwIDAgMCA5IDE0YTggOCAwIDAgMCAxIDBWNi40MXoiLz4mI3hhOwk8cGF0aCBjbGFzcz0ic3QwIiBkPSJNMTEuNjQgOS44NnYzLjI5YTUgNSAwIDAgMCAxLjctMS44MlY5Ljg2eiIvPiYjeGE7CTxwYXRoIGNsYXNzPSJzdDIiIGQ9Ik0xNS43NCAxNC4zMmwtMS40MiAxLjQyYS40Mi40MiAwIDAgMCAwIC42bDMuNTQgMy41NGEuNDIuNDIgMCAwIDAgLjU5IDBsMS40My0xLjQzYS40Mi40MiAwIDAgMCAwLS41OWwtMy41NC0zLjU0YS40Mi40MiAwIDAgMC0uNiAwIi8+JiN4YTsJPHBhdGggY2xhc3M9InN0MSIgZD0iTTkgMGE5IDkgMCAxIDAgMCAxOEE5IDkgMCAxIDAgOSAwbTAgMTUuNjlhNi42OCA2LjY4IDAgMCAxIC4wMDctMTMuMzYgNi42OCA2LjY4IDAgMCAxIDQuNzI3IDExLjQwM0E2LjY4IDYuNjggMCAwIDEgOSAxNS42OSIvPiYjeGE7PC9zdmc+;" parent="o_3mLYSUMHdXF__UBMAF-778" vertex="1">
          <mxGeometry width="30" height="30" relative="1" as="geometry">
            <mxPoint x="15" y="15" as="offset" />
          </mxGeometry>
        </mxCell>
        <mxCell id="GmEKnKSyr8c-gKUxN58G-5" value="" style="shape=image;verticalLabelPosition=bottom;labelBackgroundColor=default;verticalAlign=top;aspect=fixed;imageAspect=0;image=data:image/webp,UklGRmQKAABXRUJQVlA4TFcKAAAv/8F/EL8HKbZtWc06jx7G+BeALzKMgbx70olw5LZtIDFJOzP7/6fuPXbcSJIiRfXukf9e4punIDeS5MhBVaFxq38nPTkDaC194oseaHLQVXd4qOIFoU/yJvDTdTn5+WYQB+2ffRKOcJMkOpHJfxkS9WgqVGsssNTJyLEPiXqDGCVQYWG1ZWqB4IjUGnhUA5cUkgqOKAE6iSqBCxTThgNAOgbgfQGJwNKFEQUEm9SQEv4VHIBHBQIBIBFYAqPEBIJAABqmDSMlEKhMEIiJGIFDQIj+wzAi9v8KuACE6C+MKDsAgphCQHzDpECgAA2LHYRCQAzacAGIKQBQWAJigkIQYjRcAoKAWEAgGKaBCzD9jZTCBJUgkOAfC0bhg+ifWflFwyEgCOAKQjhR//vigwAEAfoWXkbYWr1qedXy2k2tw3mDqIcknllHqt46vvr36lzGKTA7dH/jvMHa0fyfXw8bPrwMa9i2qW5qJWnS4u5uxd3d3d3dHSq4bcHd3d3dCym7uBxomKRNkLptbU+Ffv83OdDJmpnvO7Yi+j8BoPtf97/uf93/uv91/+v+1/2v+1/3v+5//Z0m3o30xHifo/tP95/uP91/uv/+S91i3qvTk+740od5L+km6jDv3dwd5r0eerVhvLdyU5Tx3sAd432O7r//qyGR+rqzlSmklxrC2OMalPcj+/vKFLLrzr7+vCrRpYa4YWxlOsn9wP7V51UIrhv7xkATtaXe/xZ2JJbYVrNvDylOal3Y9wytQWhfXn4X5hpvILPZ7Htv9CKyIhHfjW35QmN7WRYeS6UwX5al51MI7HTWsHMp5NWRZfWV7NR1OMvYiUzaqsA43G4krXU8MH/KignngvUhrNmMT0dHsrIEccKCc1FVO8btRRNRLeaHLaUpUzBHrk4kVY3xHJRMUYu5Yhsp6g5frLOiRP/Je4yb7H/yXsjdn7yX17IkxvmrTDVR+tG8sUHktJ+7D3HEZPnAHVtKTL8y/sPz0lI9D2D+tLTYEyLiSemCJ7DZlGQI9YjnXvJSzcZ7gpu2Nt4ruslr472puxDef3d31Mb5jqyLZp5ZW15qMd5LuWnDeG/lpijjvYE7xvscd+cY59uyro2HHCSkPz3EHkVHkzyEDaCjDZ5yjI5OeoozhYyueQqrTUZPPGY5GTk85jUVGZnHuv5JRD6ew7oRUbIHDSKieA/a4C4tb6nWVRr+3rvnV1u0L5XTh1JyeNB57/INp/90+TH7rp/vX9o4uE4pHwpJ8SC7i2W96862YZ2SiSPDg/i1n53WzkwY4NS+vz9Y0cVCFh/FwBi7MyyWKIKEwdjnJdEkcUkgjNnGZxLEbqEwFlmWHvwEw5xTM6lhrGgYiyxPDLXFwxwTM0mhgIAYu1GGEiyhImKOqZl0AFeExNgZQggU1BxC+E1MoemEkEtM04EQ4J2IImJIYZ6IlgIp1BZQeG5ayP5ZPAuBFuAn4UREU0M14SwDavB6JJjPUeQACwQzGeihoF0ooXEEAbuEMhwoorxIgrKRBBwXSCPQeN+TvBd2U+Ik7wlu4k/y3sHded57uZt/kvNZvPi6hHHMoHV4u1YU4fmAKqM/CWIO0OVgMZwz0UXKFCHYCgFVRs38yIRYH4iy0vowJsYAIMm8g98wUV7MIIikkUdcTJi3Y4EYczZfeJeJNDg/0KElT7fRK4OYYD+UBU00JyNuTNGiRct2bTjY76fzn5mAP7UEbazFqDa4ImjkSKq5XQC0cjHRnI0FzTxFM5u9QTvvU0zESAto5xc7wdwqBVr6KyNX18IvoKldyOVCBdDYxsTyoJ8RtPYPUvllYipo70RCeTo+GbQ4kExu9soAbd5EI9ZAX9DsQwTyeEVVE2j4NeKwnRle3ADa/g+6eH9zw4DSZtD+u/RgC7qya+nAakWMIMjHFOBq0vHr5UoXiM8E0Vop4CAI3UYBXcXmIIC3FrExAuwPYnfg38fsgvuEf5NA8MHoZy8qusfotxtEfw/9fIX3GvtOg/BvYl8H8R1CvvMG8W1Cviog/gDcu2WRgKm41wwkcBTq3TbLQEPU6wUyWB3z7pmkoBzmNQMpjEK8GxY5METgXVWQxNdod9YgC3vRriPI4nysOwPSOBrpXJXkoSbSrQd5LIlzEXklIjMM5SaATN7AuCfZpWIdxjUCqRyEcOctctEV4VqCXObGt59BNh9i28cc0nEQ2/qCdI5HtrNG+WiPa87iIJ/eDlSbBDJ6HtPue0uJP6bVACltjmg7QE5z4tmzvyQF3qBZbZDVZVi2FqS1C5I9TpGXDBuOVQGJ3YZiK0Bm+2LYnVSpKYZg9nYgt6/xayhI7mz0Om2UnSTsehYF0nsDt1zVQH6H4tZkkOACqHXWJENwE7Ee5AEpHoFXzvYgx9FOtBoFsrwNq3YYpKkqUl3LBtJsfoFS1iIg0bMwyt4NZDqPHaHGgFwfwKfFINlV0WmLUbYst5DpnDdIdw9cCooG+c58jEkfEkHGByFSWEeQ8uy/oJG9OUj6DCxy9QRZj36PRKNA3v1waBZIfNxHDFoIUj8BgTZY5C71AfrsNIPkj8aen7xA9jPu487PZpD/HqizyggKaLmEOCssoIRl7GgTYAFFnIc1fgZQxZRnODMVFLIexjh7gkoajuDL+5qgliXDsOVhS1DNIcjyvBQop/kKqlzPCwpaOBRR9qWCkvbBk0AzqKlhD5I4+oCyRgWjSHBrUNiqLgSJLAxKOxE/tqeC2lr2IIdjpAFUN/kdagRVBAVOtCHG6XhQ4iZo4fIzgyLPRYon3UCZDRtR4kAMKLRpPz5E9DOAUmc/jw3XE0G1416hgssvE9S74CNEeNcWlLx0MBY45/qAopd6hAM3KoO653+OAI6pmaDyhR4r39XioPj5H6vdw/5mUP4CdxTOtfovwMD4s8p2vgIgYbbNambtZwQ0NPormGN+CqBiP7tqHUwAbKz6UamOVgCELHhTnV7XNgBK+qxSpBc9zICWdW0K9HTkF8DMUm9V536/L4Cc2Vcozb1eJkDQTkHK8rKeF+BoaqBLSS7UNQOedg5RDvvWioCryYvtSvFxWR7A19JH1OHt6FTA2ep3lMB5sLoB0NZnfIT0hUzNCbhbeK1d5sJ2dbAA/ubf6JS1yJGxgMT5Njol7M7UgoDJibtdcvVoQSVA5wILQqXp8aL2XoDS2Xu+lqG7fh3NgNfGKscl5+r4koDe+aYGyYp1Zb0cgOMW38BQ6bBfmNrRCzDdu9EJp0S8WdwkDhA+pfbGDzLwMrBuTsD7L10XPxfZp2NTuqYB+lsqDz5oE1D42fkNE4xAhibf4Sdt4gi9uLxPWRPQo8l31PpXLo0Lv7puULWiBqDM1LZj1r22a5Dz9sFFo6vkNwORZitRZ/iaS1ZNcARd3r10QKeCJiDZON+645bsOBwSxp/11ZVtP04cUK18lAVI2BBfonPzXiOnzV+75dC1ly9fWq3W9197aLVan798GXnh5NaVi5dMHfdHw2oVC/1lBN3/uv91/+v+1/2v+1/3v+5/3f+6/3X/6zwHAA==;" vertex="1" parent="1">
          <mxGeometry x="728" y="648" width="92" height="92" as="geometry" />
        </mxCell>
        <mxCell id="GmEKnKSyr8c-gKUxN58G-6" value="" style="shape=image;verticalLabelPosition=bottom;labelBackgroundColor=default;verticalAlign=top;aspect=fixed;imageAspect=0;image=data:image/png,iVBORw0KGgoAAAANSUhEUgAAAQAAAAEACAMAAABrrFhUAAAAA3NCSVQICAjb4U/gAAAACXBIWXMAAAgUAAAIFAFhcJ6jAAAAGXRFWHRTb2Z0d2FyZQB3d3cuaW5rc2NhcGUub3Jnm+48GgAAAvdQTFRF////AAAAAAAAAAAAAAAAAAAAAAAAAAAAAAAAAAAAAAAAAAAAAAAAAAAAAAAAAAAAAAAAAAAAAAAAAAAAAAAAAAAAAAAAAAAAAAAAAAAAAAAAAAAAAAAAAAAAAAAAAAAAAAAAAAAAAAAAAAAAAAAAAAAAAAAAAAAAAAAAAAAAAAAAAAAAAAAAAAAAAAAAAAAAAAAAAAAAAAAAAAAAAAAAAAAAAAAAAAAAAAAAAAAAAAAAAAAAAAAAAAAAAAAAAAAAAAAAAAAAAAAAAAAAAAAAAAAAAAAAAAAAAAAAAAAAAAAAAAAAAAAAAAAAAAAAAAAAAAAAAAAAAAAAAAAAAAAAAAAAAAAAAAAAAAAAAAAAAAAAAAAAAAAAAAAAAAAAAAAAAAAAAAAAAAAAAAAAAAAAAAAAAAAAAAAAAAAAAAAAAAAAAAAAAAAAAAAAAAAAAAAAAAAAAAAAAAAAAAAAAAAAAAAAAAAAAAAAAAAAAAAAAAAAAAAAAAAAAAAAAAAAAAAAAAAAAAAAAAAAAAAAAAAAAAAAAAAAAAAAAAAAAAAAAAAAAAAAAAAAAAAAAAAAAAAAAAAAAAAAAAAAAAAAAAAAAAAAAAAAAAAAAAAAAAAAAAAAAAAAAAAAAAAAAAAAAAAAAAAAAAAAAAAAAAAAAAAAAAAAAAAAAAAAAAAAAAAAAAAAAAAAAAAAAAAAAAAAAAAAAAAAAAAAAAAAAAAAAAAAAAAAAAAAAAAAAAAAAAAAAAAAAAAAAAAAAAAAAAAAAAAAAAAAAAAAAAAAAAAAAAAAAAAAAAAAAAAAAAAAAAAAAAAAAAAAAAAAAAAAAAAAAAAAAAAAAAAAAAAAAAAAAAAAAAAAAAAAAAAAAAAAAAAAAAAAAAAAAAAAAAAAAAAAAAAAAAAAAAAAAAAAAAAAAAAAAAAAAAAAAAAAAAAAAAAAAAAAAAAAAAAAAAAAAAAAAAAAAAAAAAAAAAAAAAAAAAAAAAAAAAAAAAAAAAAAAAAAAAAAAAAAAAAAVynFdwAAAPx0Uk5TAAECAwQFBgcICQoLDA0ODxAREhMUFRYXGBkaGxwdHh8gISIjJCUmJygpKissLS4vMDEyMzQ1Njc4OTo7PD0+P0BBQkNFRkdISUpLTE1OT1BRUlNUVVZXWFlaW1xdXl9gYWNkZWZnaGlqa2xtbm9wcXJzdHV2d3h5ent8fX5/gIGCg4SFhoeIiYqLjI2Oj5CSk5SVlpeYmZqbnJ2en6ChoqOkpaanqKmqq6ytrq+wsbKztLW2t7i5uru8vb6/wMHCw8TFxsfIycrLzM3Oz9DR0tPU1dbX2Nna29zd3t/g4eLj5OXm5+jp6uvs7e7v8PHy8/T19vf4+fr7/P3+z2S0RwAADdBJREFUGBntwXl8VPW9BuB3kkAIYZNdQIIU6WERZCk7iohBBGRToEItQi8tGAMqiFQNcAEpF7hFiF5rBauSIEUISCMQFYphvbLJFi+rZQt7FoFkZt4/btMUmSRzZs73nDMzv+HD8wB33XVXUFVo1Gngb6cnL01NW7955/7vv9+/c/P6tNSlydN/O7BTXDTuYLW6/2b+3w5eoU+XD6ybN6Z7TdxZotq/+N6WixS4+Pf3XmwfhTtBbM83N+TSlNwNb/aMRTiL6jF3RyEtKdwxt0cUwlLVYR9fpi0ufzysKsLM/YkZhbRRYUbi/QgblX69yU3bub9+LhZhwPHwB7kMkNz3u0Fx9V8/yoDKeu1eqKvFkgIG3M33m0FND691Myjcad2hnIhB2xhEWwdFQCWOYVkMsqxhDijjsV0MgV2PQQ2t0xki6a0RenEfuhgyrg/jEFoxs28wpG7MjkEI9T7GkDvWG6FSN4VKSKmLUHCMvUpFXB3rQNC1zKRCMlsiyBJuUCk3EhBMtT+ncj6vjaCJP0cFnYtHcJSf76aS3PPLIwia7qaydjdFwMVfocKuxCPAJjqpNOdEBFL0EipvSTQCpu5WhoGtdREg7f/BsPCP9giIXnkME3m9EACDbjJs3BwE2z3nZBhxPgebJbgZVtwJsNUbDDtvwEZzGYbmwjbTGJaSYJOXGKYSYYsxDFfuUbDBMBfDlnMwLOtbwDB283FY1P06w1p+R1gSl80wd7Y+LKi4m2FvZwzMW847wCcwbSrvCK/CpP5u3hFcfWFK8xzeIa41hwkxB3jHOBADuWTeQZIhNoAGFB75cuf/XWXIHN2Rse6wkwYMgFC9i/Tvj1Eo0nrKFieDLvuTUfVRJDqD/l2sB5GIDBrQDbdU/+XHFxk8NzImt3HglrE0ICMCEpNpwIUIeIjssjiXQXH8lerwdK+bBkyGQPsCGvABSqmScJgBt6F/BErJpAEF7WFY1F4aMRBlOB5PczGAct/WUNYrNGJPFIyaRCOux8KbRn+4zAA5l1gF3jShIS/DoPvzacRa6Kg6LYcBkPtmJejYTyPy4mBMOg35DXTVmJNPmxUsrA1d02nIWhgynIa474UPdf9YQCMKC2mEO+Vn8KENjRkCA+45T0O+g28PbqM3eVmbls17aXiPts0b168RGwlExtao37h52x7DX5q3bFNWHr3Z9Qv4doGGnK4C/96jMavgR8QLOfR0dcs74x6pAT9qPDLunS1X6SlvQiT8yKQxC+FXazeNWQC/GqxmsZz0qU/cB4H7npiansNiaxvCr7/QGGdz+PM3GpQAA4acYfbKxHaRMCGyXeLKbJ59GgYk0aDV8ONRGtUPRlRtBkuaVYMRI2lUN/i2g0a1hEK60qhM+DSEhsVCIXVp2ED4EHWERmVDKXk06nAU9I2lYduhlH007D+gK/o0DfsKStlKw05HQ8/zNG4PlHKYxj0PHY5DNO4ElHKOxh1ywLv+FLgKpdygQH94t4UC7ggoJIYSW+BVZ4rcA4XcS5HO8OYzijSGQppT5DN40dRFkbZQSBeKuJqirPmUGQCFDKPMfJRR7jxlkqGQP1PmfDmU9hSFTkIhZyj0FEpbRakWUEZrSq1CKbULKPUylPEqpQpqo6QJFPsSythEsQkoaR/FCipDEVUKKbYPJbSlCQOhiEE0oS08zaRcQScoolMB5f4Tnr6j3AQoYwLl9sFDY8p9CoV8SrlGuG0CxY5UhkIqH6HYC7jtK0rlt4RSWuZTagN+Ut1JqRFQzAhKFVTBLSMplQzlJFPqGdyynEJ7oqGc6D0U+hC3nKfQk1DQkxQ6hX9rQqHtUNJ2CsWh2HMUegJKeoJCz6LYe5TZCkVtpUwyih2kTDwUFU+Z7/Av1d0UyYSyMinivgdF+lKmF5TVizJ9UWQWRb6Bwr6hyFso8jlFXoDCXqDIOhQ5TpGmUFhTihzDP1V0U+IElHaCEq4YAG0p8i6U9i5FWgMYQZHBUNpgigwFMJMSzmpQWjUnJZIAfEaJTCgukxIpAA5TIgmKS6LEXgA3KdEViutKiRygOkXqQHF1KBKLZpRwR0FxUW5KNMGjlLgE5V2iRDcMp8QhKO8QJZ5GIiU2Q3mbKZGAtyixAspbQYlZWEKJZCgvmRIfYB0lpkN50ynxOb6mxHgobzwlvsY2SoyA8kZQYhv2UmIslDeWEntxhBKvQnmvUuIITlJiDpQ3hxInkU2Jd6G8dymRjRxKpEJ5qZTIQQElvoDyvqBEAZyU2AHlbaeEE7mUyILysiiRi/OUyIbysilxHicoUQDlFVDiBA5RpCIUV5Eih/AtRepDcfUo8r/YQpGWUFwLimzBBooMgOL6U2QD0ijyOhQ3lSJpSKFIKhSXQpEU/IkiB6G4AxT5E6ZRxBkNpZUvpEgSRlPmISitNWWex+OUGQ+l/Y4yvdCMMquhtJWU0VCJMteioLCIK5SJBS5TpjMU1oEylwDspczrUNgUyuwBsIYymVDYJsqkAVhMoWZQ1s/clFkEYBKFFkBZsyn0CoB4Cl2qAEWVO0ehxwHUotQIKGowpWrin36g0GYoKp1Cp1BkNaWaQUmNXBRajSJJlJoPJc2g1Jso0p9Sl6KhoMjTlOqHIg0o9iwU9BTF6uNfsin1bSTUk0GpbBRLp1gilNOXYukoNo1iufdBMeWOUGwainWlXBoUM5FyXVEs8irlBkEp9a5Q7Gok/m0F5U5XgUIiMii3AreMoQlvQyGv0YQxuKUhTXB1hDI6F9KEhvjJQZrwQ2MoQjtLEw7itgU040QclKCdpRkLcFs8TTnaAArQztKUeNwWc52mfF8PIaedpSnXY+AhleYcroMQ087SnFR46kOTDtRCSGlnaVIfeIo6R5OOdkMIPX2RJp2LQgnzaJbrvyogRGqk0LR5KKkVzTvYHiHR/xzNa4VSdtO8wunlEHTVltKC3SgtkVbsfhBBFv8DrUhEabULacXNxQ0RRG3+SksKa6OMNbSm4P0mCJIOa2jRGpT1JH1x0T/nR80QBN2+oGV9UJZjP707P7Nr/Yqo+/Doj/Poh+vT1giwnl/Run3w5lf0yvUAbokdvo7+bJ/QAAHTLOkQ7fAsvCl3it64Y+HhkX30x/33cXUQAE1e20d7HIuCV4n0agE8RSZcoV/OjWNbRMBG5TtM2kXbjIN3sZfpjasDSqi9kkbkbJzZrzZs0GjYgq03aKPzMdAxg16daYkSHHNo1LGUpJFdasMcx309Rs9efY52mwo9tX6kV5c7oaTnCyiRs3vFWx0g0m/BmoM3GBA51aBrEb27nuBACT2vUObbKhB54AIDZS70NbxOHV81RgkP5lHiaB0IdcxnYOTUgQ8zqCdvvAOefkWB800g1tfJgJgCX2LPUFdaOXj6M40bCBPGMBBOVIBPv6a+TyLgoeJ3NCodpmxkAAyDb45d1LcInprn05ibTWFKN9pvK/zpRh9mwNNoGjMLJm2k7TrBr+X04ZfwtJpGFNSESd1ot2Xwr9F16rvSAB5qnaMBq2DaRtrrehwMmEUfNjjgoS8NGAjT+tJeM2FETBZ9SICnd+jXxXIwrbKTdsqKgSFdXNT34wPwEJtFf5JhwXbayNUFBs2lDyvgSTtBP0bCgjm00VwYVeEQffgFPNXdRd+aw4LetM+hCjCsg5P6MlBCbBp9yY2ABZUKaRdnBwjMpg+9UELk2/RhMyzZTrvMhkT5/dSXjlLGXaIe9xuwJJU22V8eIu0KqcutoZTKUy7QC/e2iQ1hzWLao7AdhH5PfYtQRuykbJbk3jaxISybQXv8HlKONOrKrY6yKj45acnOPDLn+29WJif9bnBD2CGRtkhzQKxqFnXNgg5HnRjYaiTtkFUVJrTIo57cmgiSPrRBXguY8gx1/QFB0oE2eAYmzaWe/DoIDo3WzYVZkRnUMx/BodGyjEiYVusUddx4BEGh0apTtWBBu1zqyO2CYNBoUW47WNLrJnVc64Ag0GjNzV6waKiLOq60QeBptMQ1FJaNo56L7RFwGi0ZBxskUY9zYTUEmEYrkmCLxdSVPdqBgNJowWLYIyKV+nZ0RCBpNC81AjYpv54+HJrd0YFA0Wja+vKwTYU0+nQmuX+rmg6UVeexKrBEo1lpFWCjqI/o182T21a+PXVU71Y/79h72Ngpc/5n+aYLZDNYotGkj6JgK8cimtMClmg0Z5EDdptJU1rCEo2mzEQAvEwzWsESjWa8jIAY46Jca1iiUc41BgEy5EeKtYElGsV+HIKAeeg4pdrBEo1Sxx5CANXYQKH2sESj0BfVEVCRcynTAZZolJkdgUAbmk+JjrBEo0TuYARBq6MU6AxLNAocaY6guGctjesKSzQa99cqCJbR12hUN1ii0agrIxFEDTfQoIdhiUaD1tVHcI3NpSE9YIlGQ3JGI+gafUkjesISjUZsjEMIOMbn0b9esESjf3njHAiNuGX0qzcs0ejXsjiETqdM+tEHlmj0I7MTQmvocfrUD5Zo9On4UIRc9ORr9GEALNHow7XJ0VBBreRC6hoESzTqKkyuBVU0WphPHU/DEo068hc2gkpqTrtErwbAkvvp1aVpNaGa2BdP0ovGsCQin2WdfDEWKooauZ+lXYJF21ja/pFRUJXj0aV5LOG/YVECS8hb+qgDSqs0apObP9lXARY5MvgT96ZRlRAGGicdZ7FMDZY1WM9ix5MaI1w4eixKWZW+vDts0TE1fVXKoh4O3HXXXbb7fw4AR/vjpM8PAAAAAElFTkSuQmCC;" vertex="1" parent="1">
          <mxGeometry x="985" y="40" width="80" height="80" as="geometry" />
        </mxCell>
      </root>
    </mxGraphModel>
  </diagram>
</mxfile>
